<svg width="825" height="781" viewBox="0 0 825 781" fill="none" xmlns="http://www.w3.org/2000/svg">
<path d="M824.952 384.487C824.973 385.821 824.988 387.156 824.995 388.493L823.995 388.499C823.996 388.834 823.998 389.17 823.999 389.506C824 389.837 824 390.169 824 390.5C824 391.168 823.998 391.835 823.995 392.502L824.995 392.507C824.988 393.844 824.973 395.179 824.952 396.513L823.952 396.497C823.931 397.827 823.903 399.156 823.867 400.483L824.867 400.51C824.832 401.84 824.789 403.169 824.74 404.496L823.741 404.459C823.691 405.782 823.635 407.104 823.572 408.425L824.571 408.472C824.507 409.803 824.437 411.131 824.359 412.458L823.361 412.399C823.283 413.73 823.198 415.058 823.106 416.385L824.103 416.454C824.011 417.785 823.912 419.113 823.806 420.44L822.809 420.36C822.703 421.683 822.59 423.005 822.47 424.324L823.466 424.414C823.346 425.737 823.219 427.059 823.084 428.378L822.089 428.277C821.955 429.598 821.814 430.917 821.666 432.235L822.659 432.347C822.51 433.674 822.354 434.999 822.19 436.322L821.198 436.199C821.035 437.519 820.865 438.836 820.688 440.152L821.679 440.285C821.502 441.604 821.318 442.921 821.126 444.236L820.137 444.092C819.946 445.403 819.749 446.713 819.544 448.02L820.532 448.174C820.326 449.49 820.114 450.804 819.894 452.116L818.908 451.951C818.688 453.264 818.461 454.574 818.228 455.883L819.212 456.058C818.978 457.37 818.737 458.68 818.489 459.987L817.506 459.801C817.259 461.105 817.005 462.407 816.743 463.706L817.724 463.903C817.462 465.206 817.194 466.506 816.918 467.805L815.94 467.597C815.664 468.897 815.382 470.195 815.092 471.49L816.068 471.708C815.777 473.01 815.48 474.309 815.175 475.606L814.201 475.377C813.898 476.671 813.587 477.962 813.27 479.25L814.241 479.489C813.923 480.781 813.598 482.071 813.267 483.358L812.298 483.109C811.967 484.392 811.63 485.673 811.286 486.952L812.252 487.212C811.905 488.499 811.552 489.783 811.192 491.065L810.229 490.795C809.87 492.075 809.504 493.352 809.131 494.627L810.091 494.908C809.717 496.186 809.337 497.462 808.95 498.735L807.993 498.444C807.607 499.713 807.214 500.98 806.815 502.244L807.768 502.545C807.368 503.813 806.961 505.078 806.548 506.34L805.597 506.029C805.183 507.292 804.763 508.553 804.336 509.811L805.282 510.132C804.854 511.394 804.419 512.653 803.977 513.909L803.034 513.577C802.594 514.83 802.147 516.08 801.693 517.327L802.633 517.668C802.178 518.919 801.717 520.166 801.249 521.411L800.313 521.059C799.847 522.3 799.374 523.539 798.894 524.775L799.826 525.137C799.344 526.379 798.856 527.619 798.361 528.855L797.432 528.484C796.939 529.717 796.439 530.947 795.932 532.174L796.857 532.556C796.349 533.786 795.834 535.014 795.314 536.238L794.394 535.847C793.874 537.068 793.349 538.286 792.817 539.501L793.733 539.902C793.199 541.121 792.659 542.337 792.113 543.549L791.201 543.139C790.656 544.35 790.104 545.558 789.546 546.763L790.453 547.183C789.893 548.391 789.327 549.596 788.755 550.798L787.852 550.368C787.282 551.567 786.705 552.762 786.122 553.954L787.02 554.394C786.435 555.589 785.845 556.781 785.248 557.969L784.354 557.521C783.758 558.707 783.156 559.89 782.548 561.069L783.437 561.528C782.827 562.711 782.211 563.891 781.589 565.068L780.705 564.601C780.084 565.774 779.457 566.945 778.824 568.112L779.703 568.588C779.069 569.758 778.429 570.925 777.782 572.088L776.908 571.602C776.263 572.762 775.612 573.919 774.956 575.072L775.825 575.567C775.166 576.723 774.501 577.876 773.83 579.026L772.967 578.522C772.298 579.669 771.623 580.812 770.942 581.951L771.8 582.464C771.117 583.607 770.429 584.746 769.734 585.881L768.881 585.36C768.189 586.492 767.49 587.621 766.786 588.746L767.634 589.277C766.928 590.405 766.216 591.529 765.498 592.65L764.656 592.111C763.94 593.229 763.218 594.343 762.491 595.453L763.328 596.001C762.598 597.114 761.863 598.224 761.123 599.33L760.292 598.773C759.553 599.876 758.809 600.975 758.059 602.07L758.884 602.635C758.132 603.734 757.374 604.828 756.611 605.919L755.792 605.345C755.03 606.433 754.263 607.517 753.491 608.597L754.304 609.179C753.53 610.261 752.75 611.339 751.965 612.413L751.158 611.823C750.375 612.895 749.586 613.962 748.792 615.026L749.593 615.624C748.797 616.691 747.996 617.753 747.188 618.812L746.393 618.205C745.588 619.261 744.778 620.313 743.962 621.361L744.751 621.975C743.933 623.025 743.11 624.071 742.281 625.114L741.498 624.491C740.673 625.53 739.842 626.564 739.005 627.595L739.782 628.225C738.943 629.258 738.099 630.287 737.25 631.312L736.48 630.673C735.633 631.696 734.781 632.714 733.923 633.728L734.687 634.374C733.827 635.39 732.962 636.402 732.092 637.411L731.335 636.757C730.468 637.762 729.595 638.763 728.718 639.759L729.468 640.42C728.589 641.418 727.705 642.412 726.816 643.401L726.072 642.733C725.185 643.72 724.292 644.703 723.395 645.681L724.132 646.357C723.233 647.338 722.328 648.315 721.418 649.287L720.688 648.604C719.781 649.574 718.868 650.54 717.951 651.501L718.674 652.192C717.756 653.154 716.833 654.112 715.905 655.065L715.188 654.368C714.263 655.318 713.332 656.264 712.397 657.206L713.107 657.911C712.169 658.855 711.227 659.795 710.28 660.73L709.577 660.018C708.632 660.951 707.682 661.879 706.728 662.803L707.423 663.522C706.466 664.448 705.505 665.37 704.538 666.287L703.85 665.562C702.888 666.475 701.921 667.383 700.95 668.287L701.631 669.019C700.657 669.925 699.679 670.826 698.696 671.723L698.022 670.984C697.041 671.879 696.056 672.769 695.066 673.654L695.733 674.399C694.741 675.287 693.744 676.17 692.742 677.048L692.083 676.296C691.084 677.172 690.08 678.043 689.072 678.91L689.724 679.668C688.716 680.535 687.704 681.396 686.687 682.253L686.043 681.489C685.028 682.344 684.01 683.194 682.986 684.039L683.623 684.81C682.598 685.658 681.567 686.501 680.533 687.339L679.903 686.562C678.871 687.398 677.835 688.229 676.794 689.055L677.415 689.838C676.373 690.666 675.325 691.49 674.274 692.308L673.66 691.519C672.614 692.333 671.563 693.142 670.508 693.947L671.115 694.742C670.058 695.548 668.996 696.35 667.93 697.146L667.331 696.346C666.268 697.14 665.201 697.93 664.129 698.715L664.72 699.522C663.646 700.309 662.567 701.091 661.484 701.868L660.901 701.056C659.823 701.83 658.74 702.599 657.653 703.364L658.228 704.182C657.141 704.946 656.05 705.705 654.955 706.46L654.388 705.636C653.295 706.389 652.199 707.136 651.098 707.879L651.658 708.708C650.555 709.452 649.447 710.191 648.336 710.926L647.785 710.091C646.676 710.824 645.564 711.552 644.447 712.274L644.99 713.114C643.873 713.836 642.752 714.554 641.627 715.267L641.092 714.422C639.973 715.131 638.849 715.836 637.722 716.535L638.249 717.385C637.119 718.086 635.985 718.781 634.847 719.472L634.328 718.617C633.193 719.306 632.054 719.99 630.912 720.668L631.422 721.528C630.277 722.208 629.128 722.883 627.975 723.553L627.473 722.689C626.325 723.355 625.174 724.017 624.02 724.673L624.514 725.542C623.359 726.199 622.2 726.85 621.038 727.496L620.552 726.622C619.393 727.266 618.229 727.905 617.063 728.539L617.54 729.418C616.37 730.054 615.197 730.684 614.021 731.309L613.552 730.425C612.378 731.049 611.2 731.667 610.019 732.28L610.48 733.167C609.3 733.78 608.116 734.387 606.929 734.988L606.477 734.096C605.295 734.696 604.109 735.289 602.92 735.878L603.364 736.774C602.172 737.364 600.977 737.949 599.779 738.528L599.343 737.627C598.148 738.205 596.949 738.778 595.746 739.344L596.173 740.249C594.967 740.817 593.759 741.38 592.547 741.938L592.129 741.029C590.924 741.583 589.716 742.132 588.505 742.675L588.914 743.588C587.703 744.131 586.487 744.669 585.269 745.202L584.868 744.286C583.653 744.817 582.434 745.343 581.213 745.864L581.605 746.784C580.38 747.306 579.152 747.822 577.921 748.333L577.538 747.409C576.31 747.918 575.078 748.422 573.844 748.921L574.219 749.848C572.986 750.346 571.751 750.838 570.513 751.324L570.147 750.394C568.914 750.878 567.678 751.357 566.439 751.83L566.796 752.765C565.554 753.239 564.309 753.708 563.061 754.172L562.713 753.234C561.468 753.696 560.22 754.153 558.969 754.604L559.308 755.545C558.054 755.997 556.797 756.444 555.537 756.884L555.207 755.941C553.956 756.378 552.702 756.811 551.445 757.237L551.767 758.184C550.509 758.611 549.249 759.032 547.987 759.448L547.674 758.498C546.414 758.913 545.151 759.322 543.886 759.725L544.19 760.678C542.921 761.082 541.65 761.48 540.376 761.873L540.082 760.918C538.811 761.309 537.537 761.696 536.261 762.076L536.547 763.034C535.273 763.414 533.997 763.788 532.718 764.156L532.442 763.195C531.169 763.562 529.894 763.923 528.616 764.278L528.884 765.241C527.604 765.597 526.32 765.947 525.034 766.291L524.776 765.326C523.493 765.669 522.208 766.007 520.92 766.339L521.169 767.307C519.879 767.64 518.585 767.967 517.289 768.289L517.049 767.318C515.761 767.637 514.472 767.95 513.18 768.258L513.411 769.231C512.12 769.538 510.827 769.839 509.532 770.135L509.309 769.16C508.017 769.455 506.722 769.744 505.425 770.028L505.638 771.005C504.338 771.289 503.035 771.567 501.73 771.84L501.526 770.861C501.036 770.963 500.545 771.064 500.055 771.165C499.242 771.332 498.428 771.496 497.613 771.658L497.809 772.639C496.504 772.899 495.197 773.153 493.888 773.401L493.702 772.418C492.402 772.664 491.1 772.905 489.795 773.14L489.972 774.124C488.665 774.359 487.355 774.588 486.044 774.812L485.876 773.826C484.567 774.049 483.256 774.266 481.943 774.477L482.102 775.465C480.786 775.676 479.468 775.882 478.148 776.082L477.998 775.093C476.685 775.292 475.369 775.485 474.051 775.672L474.191 776.662C472.879 776.849 471.565 777.029 470.249 777.203L470.117 776.212C468.804 776.386 467.489 776.555 466.172 776.717L466.294 777.709C464.974 777.872 463.652 778.029 462.328 778.18L462.215 777.186C460.894 777.337 459.571 777.482 458.246 777.62L458.35 778.615C457.023 778.754 455.695 778.887 454.364 779.014L454.269 778.018C452.954 778.144 451.637 778.263 450.318 778.377L450.404 779.373C449.082 779.487 447.758 779.596 446.432 779.698L446.356 778.701C445.033 778.803 443.709 778.899 442.383 778.989L442.451 779.986C441.122 780.077 439.791 780.161 438.458 780.239L438.4 779.241C437.07 779.319 435.739 779.391 434.406 779.458L434.456 780.456C433.132 780.522 431.806 780.582 430.479 780.636L430.438 779.637C429.116 779.69 427.793 779.738 426.468 779.78L426.5 780.779C425.172 780.821 423.843 780.857 422.512 780.887L422.489 779.888C421.161 779.917 419.831 779.941 418.5 779.959L418.514 780.959C417.18 780.977 415.844 780.989 414.507 780.995L414.502 779.995C413.835 779.998 413.168 780 412.5 780C411.832 780 411.164 779.998 410.497 779.995L410.493 780.995C409.155 780.989 407.82 780.977 406.486 780.959L406.499 779.959C405.168 779.941 403.839 779.917 402.511 779.888L402.488 780.887C401.157 780.857 399.828 780.821 398.5 780.779L398.531 779.78C397.206 779.738 395.883 779.69 394.561 779.637L394.521 780.636C393.194 780.582 391.868 780.522 390.544 780.456L390.594 779.458C389.261 779.391 387.929 779.319 386.6 779.241L386.541 780.239C385.209 780.161 383.878 780.077 382.549 779.986L382.617 778.989C381.291 778.899 379.967 778.803 378.644 778.701L378.567 779.698C377.242 779.596 375.918 779.487 374.596 779.373L374.682 778.377C373.363 778.263 372.046 778.144 370.731 778.018L370.636 779.014C369.305 778.887 367.976 778.754 366.65 778.615L366.754 777.62C365.429 777.482 364.106 777.337 362.785 777.186L362.672 778.18C361.348 778.029 360.026 777.872 358.705 777.709L358.828 776.717C357.511 776.555 356.196 776.386 354.882 776.212L354.751 777.203C353.435 777.029 352.121 776.849 350.808 776.662L350.949 775.672C349.631 775.485 348.315 775.292 347.002 775.093L346.852 776.082C345.532 775.882 344.214 775.676 342.898 775.465L343.057 774.477C341.744 774.266 340.433 774.049 339.124 773.826L338.956 774.812C337.645 774.588 336.335 774.359 335.028 774.124L335.205 773.14C333.9 772.905 332.598 772.664 331.298 772.418L331.112 773.401C329.803 773.153 328.496 772.899 327.191 772.639L327.387 771.658C326.08 771.398 324.776 771.132 323.474 770.861L323.27 771.84C321.965 771.567 320.662 771.289 319.362 771.005L319.576 770.028C318.278 769.744 316.983 769.455 315.691 769.16L315.468 770.135C314.173 769.839 312.88 769.538 311.589 769.231L311.821 768.258C310.528 767.95 309.239 767.637 307.952 767.318L307.711 768.289C306.415 767.967 305.122 767.64 303.831 767.307L304.081 766.339C302.793 766.007 301.507 765.669 300.225 765.326L299.966 766.292C298.68 765.947 297.397 765.597 296.116 765.241L296.384 764.278C295.106 763.923 293.831 763.562 292.559 763.195L292.282 764.156C291.003 763.788 289.727 763.414 288.454 763.035L288.739 762.076C287.463 761.696 286.19 761.31 284.919 760.918L284.624 761.873C283.35 761.48 282.079 761.082 280.811 760.678L281.114 759.725C279.849 759.322 278.586 758.913 277.326 758.498L277.014 759.448C275.751 759.033 274.491 758.611 273.234 758.185L273.555 757.238C272.298 756.811 271.044 756.379 269.793 755.941L269.463 756.885C268.203 756.444 266.946 755.997 265.692 755.545L266.032 754.604C264.781 754.153 263.533 753.696 262.288 753.234L261.94 754.172C260.692 753.708 259.447 753.239 258.205 752.765L258.561 751.831C257.322 751.357 256.086 750.878 254.853 750.394L254.488 751.324C253.249 750.838 252.014 750.346 250.782 749.848L251.156 748.921C249.922 748.423 248.691 747.919 247.463 747.409L247.079 748.333C245.848 747.822 244.62 747.306 243.396 746.784L243.788 745.864C242.566 745.344 241.347 744.818 240.132 744.286L239.731 745.202C238.513 744.67 237.298 744.132 236.086 743.588L236.495 742.676C235.284 742.132 234.076 741.583 232.871 741.029L232.454 741.938C231.242 741.38 230.033 740.818 228.828 740.249L229.254 739.345C228.052 738.778 226.853 738.205 225.657 737.628L225.222 738.528C224.023 737.949 222.828 737.364 221.636 736.774L222.08 735.878C220.891 735.29 219.706 734.696 218.524 734.097L218.072 734.989C216.884 734.387 215.701 733.78 214.521 733.168L214.981 732.28C213.8 731.667 212.623 731.049 211.449 730.426L210.98 731.309C209.803 730.684 208.63 730.054 207.46 729.418L207.938 728.54C206.771 727.906 205.608 727.266 204.448 726.622L203.962 727.496C202.8 726.85 201.641 726.199 200.486 725.542L200.981 724.673C199.826 724.017 198.675 723.355 197.528 722.689L197.025 723.553C195.872 722.884 194.723 722.208 193.578 721.528L194.089 720.669C192.946 719.99 191.807 719.306 190.672 718.617L190.153 719.472C189.016 718.781 187.882 718.086 186.751 717.385L187.279 716.535C186.151 715.836 185.028 715.132 183.908 714.422L183.373 715.267C182.248 714.554 181.127 713.837 180.01 713.114L180.553 712.274C179.437 711.552 178.324 710.824 177.216 710.092L176.664 710.926C175.553 710.192 174.446 709.452 173.343 708.708L173.902 707.879C172.801 707.136 171.705 706.389 170.613 705.636L170.045 706.46C168.95 705.706 167.859 704.946 166.772 704.182L167.348 703.364C166.261 702.599 165.178 701.83 164.099 701.056L163.516 701.868C162.433 701.091 161.355 700.309 160.28 699.522L160.871 698.716C159.8 697.93 158.732 697.141 157.669 696.346L157.07 697.147C156.004 696.35 154.943 695.548 153.885 694.742L154.492 693.947C153.437 693.142 152.387 692.333 151.341 691.519L150.726 692.308C149.675 691.49 148.628 690.667 147.585 689.839L148.207 689.055C147.166 688.229 146.129 687.398 145.097 686.562L144.468 687.339C143.433 686.501 142.403 685.658 141.377 684.81L142.014 684.039C140.991 683.194 139.972 682.344 138.958 681.489L138.313 682.254C137.296 681.397 136.284 680.535 135.276 679.669L135.928 678.91C134.92 678.044 133.916 677.172 132.917 676.296L132.258 677.048C131.257 676.17 130.26 675.287 129.267 674.4L129.934 673.654C128.944 672.769 127.959 671.879 126.978 670.984L126.304 671.723C125.321 670.827 124.343 669.925 123.37 669.019L124.051 668.287C123.079 667.383 122.113 666.475 121.151 665.562L120.462 666.288C119.496 665.37 118.534 664.448 117.577 663.522L118.272 662.804C117.318 661.88 116.368 660.951 115.423 660.018L114.721 660.73C113.773 659.795 112.831 658.855 111.893 657.911L112.603 657.206C111.668 656.265 110.738 655.319 109.812 654.368L109.096 655.066C108.167 654.112 107.244 653.154 106.326 652.192L107.049 651.502C106.132 650.54 105.219 649.575 104.312 648.605L103.582 649.288C102.672 648.315 101.768 647.339 100.868 646.358L101.605 645.682C100.708 644.703 99.8156 643.72 98.9285 642.733L98.1847 643.402C97.2953 642.412 96.4111 641.418 95.5321 640.42L96.2825 639.759C95.4049 638.763 94.5325 637.762 93.6653 636.758L92.9083 637.411C92.0381 636.403 91.1731 635.39 90.3134 634.374L91.077 633.728C90.2194 632.714 89.3671 631.696 88.5201 630.674L87.7501 631.312C86.9009 630.287 86.0571 629.258 85.2186 628.225L85.995 627.595C85.1586 626.564 84.3275 625.53 83.5018 624.491L82.719 625.114C81.8905 624.072 81.0673 623.026 80.2496 621.976L81.0386 621.361C80.2227 620.313 79.4121 619.261 78.607 618.206L77.8118 618.812C77.0047 617.753 76.203 616.691 75.4068 615.625L76.2081 615.026C75.414 613.963 74.6253 612.895 73.8422 611.823L73.0348 612.413C72.2497 611.339 71.4701 610.261 70.6961 609.179L71.5095 608.597C70.737 607.517 69.97 606.433 69.2087 605.346L68.3895 605.919C67.6261 604.828 66.8684 603.734 66.1164 602.636L66.9415 602.071C66.1914 600.975 65.447 599.876 64.7082 598.773L63.8774 599.33C63.1367 598.224 62.4018 597.115 61.6726 596.001L62.5091 595.453C61.7818 594.343 61.0602 593.229 60.3444 592.111L59.5023 592.65C58.7845 591.53 58.0726 590.405 57.3665 589.277L58.2141 588.746C57.5098 587.621 56.8114 586.492 56.1187 585.36L55.2657 585.882C54.5712 584.746 53.8827 583.607 53.2 582.465L54.0585 581.952C53.3776 580.812 52.7026 579.669 52.0336 578.522L51.1698 579.026C50.4992 577.877 49.8344 576.724 49.1757 575.567L50.0446 575.072C49.3878 573.919 48.737 572.762 48.0922 571.602L47.2182 572.088C46.5716 570.925 45.9311 569.759 45.2967 568.589L46.1758 568.112C45.543 566.945 44.9163 565.775 44.2957 564.601L43.4116 565.068C42.7894 563.892 42.1732 562.711 41.5631 561.528L42.452 561.07C41.844 559.89 41.242 558.707 40.6463 557.521L39.7526 557.97C39.1557 556.781 38.5648 555.589 37.9802 554.394L38.8785 553.954C38.2955 552.762 37.7186 551.567 37.1479 550.369L36.245 550.798C35.6728 549.597 35.1069 548.392 34.5472 547.184L35.4546 546.763C34.8964 545.558 34.3445 544.35 33.7988 543.139L32.8871 543.55C32.3408 542.337 31.8008 541.121 31.2672 539.902L32.1833 539.501C31.6514 538.286 31.1258 537.068 30.6066 535.847L29.6863 536.238C29.1657 535.014 28.6515 533.786 28.1436 532.556L29.068 532.174C28.5615 530.947 28.0614 529.717 27.5677 528.484L26.6394 528.856C26.1444 527.619 25.6558 526.38 25.1737 525.137L26.106 524.775C25.6265 523.54 25.1535 522.301 24.6869 521.059L23.7508 521.411C23.2832 520.166 22.822 518.919 22.3673 517.669L23.3071 517.327C22.8536 516.08 22.4066 514.83 21.9662 513.577L21.0228 513.909C20.5812 512.653 20.1461 511.394 19.7177 510.132L20.6646 509.811C20.2374 508.553 19.8168 507.292 19.4028 506.029L18.4525 506.34C18.0389 505.078 17.6319 503.813 17.2316 502.546L18.1851 502.244C17.7859 500.98 17.3932 499.713 17.0071 498.444L16.0504 498.735C15.6633 497.462 15.2829 496.186 14.9091 494.908L15.8689 494.627C15.4962 493.353 15.1301 492.075 14.7708 490.795L13.808 491.065C13.4481 489.784 13.095 488.499 12.7485 487.212L13.7142 486.952C13.37 485.673 13.0326 484.392 12.7019 483.109L11.7335 483.358C11.4019 482.071 11.077 480.782 10.7589 479.49L11.7299 479.25C11.4127 477.962 11.1022 476.671 10.7985 475.378L9.825 475.606C9.52049 474.309 9.22279 473.01 8.93194 471.708L9.90787 471.49C9.61847 470.195 9.33586 468.897 9.06009 467.597L8.08186 467.805C7.80646 466.506 7.53786 465.206 7.27611 463.903L8.25652 463.706C7.99546 462.407 7.74123 461.105 7.49386 459.801L6.51138 459.987C6.26334 458.68 6.02217 457.37 5.78791 456.058L6.77233 455.883C6.53871 454.574 6.31197 453.264 6.09216 451.951L5.10589 452.116C4.88625 450.804 4.67351 449.49 4.46771 448.174L5.4557 448.02C5.2513 446.713 5.05375 445.403 4.86311 444.092L3.87351 444.236C3.68235 442.921 3.4981 441.604 3.3208 440.285L4.31189 440.152C4.13507 438.836 3.96518 437.519 3.80226 436.199L2.8098 436.322C2.64644 434.999 2.49007 433.674 2.34072 432.346L3.33445 432.235C3.18618 430.917 3.04486 429.598 2.91051 428.276L1.91564 428.378C1.78151 427.058 1.65432 425.737 1.53409 424.414L2.52998 424.324C2.41008 423.004 2.29712 421.683 2.19115 420.36L1.19434 420.44C1.08808 419.113 0.988828 417.784 0.896612 416.454L1.89422 416.385C1.80225 415.058 1.7173 413.729 1.6394 412.399L0.641113 412.457C0.563438 411.131 0.492759 409.802 0.429109 408.472L1.42797 408.424C1.36479 407.104 1.30856 405.782 1.25931 404.458L0.259999 404.496C0.210613 403.169 0.168224 401.84 0.132864 400.509L1.13251 400.483C1.09725 399.156 1.06899 397.827 1.04778 396.497L0.0479071 396.513C0.0266405 395.179 0.0124373 393.844 0.00533149 392.507L1.00532 392.501C1.00177 391.835 1 391.168 1 390.5C1 389.832 1.00177 389.165 1.00532 388.498L0.00533384 388.493C0.0124412 387.156 0.0266458 385.821 0.0479139 384.487L1.04779 384.503C1.069 383.173 1.09725 381.844 1.13252 380.517L0.132874 380.49C0.168236 379.16 0.210626 377.831 0.260013 376.504L1.25932 376.541C1.30858 375.218 1.36481 373.896 1.42798 372.575L0.429125 372.528C0.492776 371.197 0.563456 369.869 0.641131 368.542L1.63942 368.601C1.71732 367.27 1.80227 365.942 1.89424 364.615L0.896631 364.546C0.988848 363.215 1.0881 361.887 1.19436 360.56L2.19117 360.64C2.29714 359.317 2.4101 357.995 2.53 356.676L1.53411 356.586C1.65434 355.263 1.78153 353.941 1.91566 352.622L2.91054 352.723C3.04488 351.402 3.1862 350.083 3.33447 348.765L2.34074 348.653C2.49009 347.326 2.64646 346.001 2.80982 344.678L3.80228 344.801C3.9652 343.481 4.13509 342.164 4.31191 340.848L3.32082 340.715C3.49812 339.396 3.68236 338.079 3.87353 336.764L4.86312 336.908C5.05377 335.597 5.25131 334.287 5.45571 332.98L4.46772 332.826C4.67352 331.51 4.88626 330.196 5.1059 328.884L6.09218 329.049C6.31198 327.736 6.53872 326.426 6.77234 325.117L5.78791 324.942C6.02217 323.63 6.26334 322.32 6.51138 321.013L7.49386 321.199C7.74123 319.895 7.99546 318.593 8.25651 317.294L7.2761 317.097C7.53786 315.794 7.80645 314.494 8.08185 313.195L9.06008 313.403C9.33585 312.103 9.61845 310.805 9.90786 309.51L8.93192 309.292C9.22277 307.99 9.52046 306.691 9.82497 305.394L10.7985 305.623C11.1022 304.329 11.4127 303.038 11.7299 301.75L10.7589 301.511C11.077 300.219 11.4019 298.929 11.7335 297.642L12.7019 297.891C13.0326 296.608 13.37 295.327 13.7141 294.048L12.7485 293.788C13.0949 292.501 13.4481 291.217 13.808 289.935L14.7707 290.205C15.1301 288.925 15.4961 287.648 15.8689 286.373L14.909 286.092C15.2828 284.814 15.6632 283.538 16.0503 282.265L17.007 282.556C17.3931 281.287 17.7858 280.02 18.1851 278.756L17.2315 278.455C17.6318 277.187 18.0388 275.922 18.4524 274.66L19.4027 274.971C19.8167 273.708 20.2373 272.447 20.6644 271.189L19.7176 270.868C20.146 269.606 20.5811 268.347 21.0227 267.091L21.9661 267.423C22.4065 266.17 22.8535 264.92 23.3069 263.673L22.3672 263.332C22.8218 262.081 23.283 260.834 23.7507 259.589L24.6868 259.941C25.1534 258.699 25.6264 257.461 26.1059 256.225L25.1736 255.863C25.6557 254.621 26.1442 253.381 26.6392 252.145L27.5676 252.516C28.0613 251.283 28.5614 250.053 29.0679 248.826L28.1435 248.444C28.6513 247.214 29.1656 245.986 29.6862 244.762L30.6065 245.153C31.1257 243.932 31.6513 242.714 32.1831 241.499L31.2671 241.098C31.8007 239.879 32.3407 238.663 32.8869 237.451L33.7987 237.861C34.3443 236.65 34.8962 235.442 35.4544 234.237L34.5471 233.817C35.1067 232.609 35.6727 231.404 36.2449 230.202L37.1477 230.632C37.7184 229.433 38.2953 228.238 38.8784 227.046L37.9801 226.606C38.5647 225.411 39.1555 224.219 39.7525 223.031L40.6461 223.479C41.2419 222.293 41.8438 221.11 42.4518 219.931L41.563 219.472C42.173 218.289 42.7892 217.109 43.4115 215.932L44.2955 216.399C44.9161 215.226 45.5429 214.055 46.1756 212.888L45.2966 212.412C45.931 211.242 46.5715 210.075 47.218 208.912L48.092 209.398C48.7368 208.238 49.3876 207.081 50.0444 205.928L49.1755 205.433C49.8342 204.277 50.499 203.124 51.1697 201.974L52.0334 202.478C52.7024 201.331 53.3774 200.188 54.0583 199.049L53.1998 198.536C53.8825 197.393 54.571 196.254 55.2655 195.119L56.1186 195.64C56.8112 194.508 57.5097 193.379 58.2139 192.254L57.3663 191.723C58.0724 190.595 58.7844 189.471 59.5021 188.35L60.3442 188.889C61.06 187.771 61.7816 186.657 62.5089 185.547L61.6724 184.999C62.4016 183.886 63.1365 182.776 63.8772 181.67L64.708 182.227C65.4468 181.124 66.1912 180.025 66.9413 178.929L66.1162 178.364C66.8682 177.266 67.6259 176.172 68.3893 175.081L69.2085 175.655C69.9698 174.567 70.7367 173.483 71.5092 172.403L70.6959 171.822C71.4699 170.739 72.2495 169.661 73.0346 168.587L73.842 169.177C74.6251 168.105 75.4138 167.038 76.2079 165.974L75.4066 165.376C76.2028 164.309 77.0044 163.247 77.8116 162.188L78.6068 162.795C79.4119 161.739 80.2224 160.687 81.0384 159.639L80.2494 159.025C81.0671 157.975 81.8903 156.929 82.7188 155.886L83.5015 156.509C84.3273 155.47 85.1583 154.436 85.9947 153.405L85.2183 152.775C86.0569 151.742 86.9007 150.713 87.7499 149.688L88.5199 150.327C89.3669 149.304 90.2192 148.286 91.0767 147.272L90.3132 146.626C91.1729 145.61 92.0378 144.598 92.908 143.589L93.6651 144.243C94.5323 143.238 95.4047 142.237 96.2823 141.241L95.5319 140.58C96.4109 139.582 97.2951 138.588 98.1844 137.599L98.9282 138.267C99.8153 137.28 100.708 136.297 101.605 135.319L100.868 134.643C101.767 133.662 102.672 132.685 103.582 131.713L104.312 132.396C105.219 131.426 106.132 130.46 107.049 129.499L106.326 128.808C107.244 127.846 108.167 126.888 109.095 125.935L109.812 126.632C110.737 125.682 111.668 124.736 112.603 123.794L111.893 123.089C112.831 122.145 113.773 121.205 114.72 120.27L115.423 120.982C116.368 120.049 117.318 119.121 118.272 118.197L117.577 117.478C118.534 116.552 119.495 115.63 120.462 114.713L121.15 115.438C122.112 114.525 123.079 113.617 124.05 112.713L123.369 111.981C124.343 111.075 125.321 110.174 126.304 109.277L126.978 110.016C127.959 109.121 128.944 108.231 129.934 107.346L129.267 106.601C130.259 105.713 131.256 104.83 132.258 103.952L132.917 104.704C133.916 103.828 134.92 102.957 135.928 102.09L135.276 101.332C136.284 100.465 137.296 99.6035 138.313 98.7466L138.957 99.5112C139.972 98.6564 140.99 97.8062 142.014 96.9607L141.377 96.1898C142.402 95.3422 143.433 94.4994 144.467 93.6614L145.097 94.4384C146.129 93.6024 147.165 92.7712 148.206 91.9447L147.585 91.1615C148.627 90.3336 149.675 89.5105 150.726 88.6921L151.34 89.4813C152.386 88.6672 153.437 87.8579 154.492 87.0534L153.885 86.2583C154.942 85.4519 156.004 84.6503 157.07 83.8535L157.669 84.6545C158.732 83.8597 159.799 83.0697 160.871 82.2847L160.28 81.478C161.354 80.691 162.433 79.909 163.516 79.1319L164.099 79.9443C165.177 79.17 166.26 78.4007 167.347 77.6364L166.772 76.8183C167.859 76.0541 168.95 75.2947 170.045 74.5404L170.612 75.3639C171.705 74.6113 172.801 73.8637 173.902 73.1212L173.342 72.2922C174.446 71.5479 175.553 70.8085 176.664 70.0742L177.215 70.9085C178.324 70.1759 179.436 69.4484 180.553 68.726L180.01 67.8864C181.127 67.1636 182.248 66.4458 183.373 65.7331L183.908 66.5779C185.027 65.8686 186.151 65.1643 187.278 64.4652L186.751 63.6153C187.881 62.9145 189.015 62.2188 190.153 61.5282L190.672 62.383C191.807 61.6941 192.946 61.0103 194.088 60.3317L193.578 59.4719C194.723 58.7916 195.872 58.1166 197.025 57.4467L197.527 58.3113C198.675 57.6447 199.826 56.9833 200.98 56.3271L200.486 55.4577C201.641 54.8013 202.8 54.1501 203.962 53.5041L204.448 54.3782C205.607 53.7338 206.771 53.0946 207.937 52.4606L207.46 51.5819C208.63 50.9465 209.803 50.3163 210.979 49.6914L211.448 50.5746C212.622 49.9512 213.8 49.333 214.981 48.7202L214.52 47.8326C215.7 47.2203 216.884 46.6132 218.071 46.0115L218.523 46.9035C219.705 46.3044 220.891 45.7105 222.08 45.1221L221.636 44.2258C222.828 43.6359 224.023 43.0514 225.222 42.4723L225.657 43.3727C226.852 42.7949 228.051 42.2225 229.254 41.6555L228.827 40.751C230.033 40.1827 231.241 39.6197 232.453 39.0623L232.871 39.9708C234.076 39.4166 235.284 38.8679 236.495 38.3246L236.086 37.4122C237.297 36.8686 238.513 36.3305 239.731 35.7978L240.132 36.714C241.347 36.1826 242.566 35.6566 243.787 35.1361L243.395 34.2161C244.62 33.6944 245.848 33.1781 247.079 32.6674L247.462 33.5911C248.69 33.0815 249.922 32.5775 251.156 32.0791L250.781 31.1518C252.014 30.6542 253.249 30.1622 254.487 29.6757L254.853 30.6064C256.086 30.1219 257.322 29.643 258.561 29.1695L258.204 28.2354C259.446 27.7609 260.691 27.2919 261.939 26.8285L262.287 27.766C263.532 27.3037 264.78 26.847 266.031 26.3959L265.692 25.4552C266.946 25.003 268.203 24.5564 269.462 24.1155L269.793 25.0594C271.044 24.6215 272.298 24.1892 273.555 23.7625L273.233 22.8156C274.491 22.3888 275.751 21.9676 277.013 21.5521L277.326 22.502C278.586 22.0874 279.849 21.6785 281.114 21.2752L280.81 20.3224C282.079 19.9182 283.35 19.5197 284.624 19.1268L284.918 20.0824C286.189 19.6905 287.463 19.3043 288.739 18.9238L288.453 17.9655C289.727 17.5859 291.003 17.2119 292.282 16.8437L292.558 17.8046C293.831 17.4382 295.106 17.0775 296.384 16.7224L296.116 15.7589C297.396 15.4031 298.68 15.0529 299.966 14.7085L300.224 15.6745C301.507 15.3309 302.792 14.9931 304.08 14.661L303.831 13.6927C305.121 13.3598 306.415 13.0327 307.711 12.7115L307.951 13.6821C309.239 13.363 310.528 13.0497 311.82 12.7421L311.589 11.7693C312.88 11.4621 314.173 11.1606 315.468 10.8649L315.691 11.8398C316.983 11.5448 318.278 11.2556 319.575 10.9722L319.362 9.99522C320.662 9.71114 321.965 9.43287 323.27 9.16046L323.474 10.1394C324.776 9.86758 326.08 9.60164 327.387 9.34156L327.191 8.3608C328.496 8.1011 329.803 7.84724 331.112 7.59924L331.298 8.58177C332.598 8.3355 333.9 8.09504 335.205 7.8604L335.028 6.8762C336.335 6.64102 337.644 6.41167 338.956 6.1882L339.124 7.174C340.433 6.95105 341.744 6.73395 343.057 6.52274L342.898 5.53543C344.214 5.32373 345.532 5.11793 346.852 4.91806L347.002 5.9068C348.315 5.70791 349.631 5.51492 350.949 5.32783L350.809 4.33776C352.121 4.15148 353.435 3.97105 354.751 3.7965L354.883 4.78782C356.196 4.61367 357.511 4.44538 358.828 4.283L358.706 3.29051C360.026 3.12775 361.348 2.97089 362.672 2.81998L362.785 3.81354C364.106 3.66298 365.429 3.51833 366.754 3.37964L366.65 2.38507C367.977 2.24617 369.305 2.11322 370.636 1.98627L370.731 2.98175C372.046 2.85624 373.363 2.73661 374.682 2.62286L374.596 1.62656C375.918 1.51255 377.242 1.40445 378.568 1.30228L378.644 2.29932C379.967 2.19738 381.291 2.10136 382.617 2.01129L382.549 1.01359C383.878 0.923313 385.209 0.838997 386.542 0.760669L386.6 1.75895C387.93 1.6808 389.261 1.60862 390.594 1.54245L390.544 0.543679C391.868 0.477946 393.194 0.418123 394.521 0.364238L394.562 1.36342C395.884 1.30976 397.207 1.262 398.532 1.22018L398.5 0.220675C399.828 0.178752 401.157 0.142772 402.488 0.112759L402.511 1.1125C403.839 1.08256 405.169 1.05857 406.5 1.04056L406.486 0.0406545C407.82 0.0226062 409.156 0.0105536 410.493 0.00452394L410.498 1.00451C411.165 1.00151 411.832 1 412.5 1C413.168 1 413.836 1.00151 414.503 1.00452L414.507 0.00452628C415.845 0.0105575 417.18 0.0226115 418.514 0.0406611L418.501 1.04057C419.832 1.05858 421.161 1.08257 422.489 1.11251L422.512 0.112769C423.843 0.142782 425.172 0.178764 426.5 0.220688L426.469 1.22019C427.794 1.26202 429.117 1.30977 430.439 1.36343L430.479 0.364254C431.806 0.41814 433.132 0.477964 434.456 0.543698L434.406 1.54247C435.739 1.60864 437.071 1.68082 438.4 1.75897L438.459 0.760689C439.791 0.839017 441.122 0.923335 442.451 1.01361L442.383 2.01131C443.709 2.10139 445.033 2.1974 446.356 2.29934L446.433 1.3023C447.758 1.40447 449.082 1.51257 450.404 1.62658L450.318 2.62288C451.637 2.73663 452.954 2.85627 454.269 2.98177L454.364 1.98629C455.695 2.11324 457.024 2.24619 458.35 2.38509L458.246 3.37966C459.571 3.51835 460.894 3.663 462.215 3.81357L462.328 2.82C463.652 2.97091 464.974 3.12777 466.295 3.29053L466.172 4.28301C467.489 4.4454 468.804 4.61368 470.118 4.78783L470.249 3.79651C471.565 3.97106 472.879 4.15149 474.192 4.33778L474.051 5.32785C475.369 5.51493 476.685 5.70793 477.998 5.90681L478.148 4.91807C479.468 5.11794 480.786 5.32374 482.102 5.53543L481.943 6.52274C483.256 6.73395 484.567 6.95105 485.876 7.174L486.044 6.1882C487.355 6.41167 488.665 6.64101 489.972 6.87619L489.795 7.8604C491.1 8.09503 492.402 8.3355 493.702 8.58176L493.888 7.59924C495.197 7.84723 496.504 8.10109 497.809 8.36079L497.613 9.34155C498.92 9.60162 500.224 9.86756 501.526 10.1393L501.73 9.16044C503.035 9.43285 504.338 9.7111 505.638 9.99518L505.424 10.9721C506.722 11.2556 508.017 11.5448 509.309 11.8398L509.532 10.8648C510.827 11.1605 512.12 11.462 513.411 11.7692L513.179 12.7421C514.472 13.0496 515.761 13.363 517.048 13.6821L517.289 12.7114C518.585 13.0327 519.878 13.3597 521.169 13.6926L520.919 14.6609C522.207 14.993 523.493 15.3308 524.775 15.6744L525.034 14.7084C526.32 15.0528 527.603 15.403 528.884 15.7589L528.616 16.7223C529.894 17.0774 531.169 17.4381 532.441 17.8045L532.718 16.8436C533.997 17.2118 535.273 17.5858 536.546 17.9654L536.261 18.9237C537.537 19.3042 538.81 19.6904 540.081 20.0823L540.376 19.1267C541.65 19.5195 542.921 19.9181 544.189 20.3223L543.886 21.2751C545.151 21.6784 546.414 22.0873 547.674 22.5018L547.986 21.5519C549.249 21.9675 550.509 22.3887 551.766 22.8155L551.445 23.7624C552.702 24.1891 553.956 24.6214 555.207 25.0593L555.537 24.1154C556.797 24.5563 558.054 25.0029 559.308 25.455L558.968 26.3957C560.219 26.8468 561.467 27.3036 562.712 27.7658L563.06 26.8284C564.308 27.2918 565.553 27.7607 566.795 28.2353L566.439 29.1694C567.678 29.6428 568.914 30.1218 570.147 30.6063L570.512 29.6755C571.751 30.1621 572.986 30.6541 574.218 31.1517L573.844 32.0789C575.078 32.5774 576.309 33.0814 577.537 33.5909L577.921 32.6673C579.152 33.178 580.38 33.6942 581.604 34.216L581.212 35.136C582.434 35.6565 583.653 36.1825 584.868 36.7139L585.269 35.7976C586.487 36.3303 587.702 36.8685 588.914 37.4121L588.505 38.3245C589.716 38.8678 590.924 39.4165 592.129 39.9706L592.547 39.0621C593.758 39.6196 594.967 40.1825 596.172 40.7508L595.746 41.6553C596.948 42.2223 598.147 42.7947 599.343 43.3725L599.778 42.4721C600.977 43.0513 602.172 43.6358 603.364 44.2257L602.92 45.1219C604.109 45.7104 605.294 46.3042 606.476 46.9033L606.928 46.0113C608.116 46.6131 609.299 47.2201 610.479 47.8325L610.019 48.7201C611.2 49.3329 612.377 49.951 613.551 50.5744L614.02 49.6912C615.197 50.3161 616.37 50.9463 617.54 51.5818L617.062 52.4604C618.229 53.0944 619.392 53.7336 620.552 54.378L621.038 53.5039C622.2 54.1499 623.359 54.8011 624.514 55.4575L624.019 56.3269C625.174 56.9832 626.325 57.6446 627.472 58.3112L627.975 57.4465C629.128 58.1164 630.277 58.7915 631.422 59.4717L630.911 60.3315C632.054 61.0101 633.193 61.6939 634.328 62.3828L634.847 61.528C635.984 62.2186 637.118 62.9143 638.249 63.6151L637.721 64.465C638.849 65.1641 639.972 65.8684 641.092 66.5777L641.627 65.7329C642.752 66.4456 643.873 67.1634 644.99 67.8862L644.447 68.7258C645.563 69.4482 646.676 70.1757 647.784 70.9083L648.336 70.074C649.447 70.8083 650.554 71.5477 651.657 72.292L651.098 73.121C652.198 73.8635 653.295 74.6111 654.387 75.3637L654.955 74.5402C656.05 75.2945 657.141 76.0539 658.228 76.8181L657.652 77.6362C658.739 78.4005 659.822 79.1699 660.901 79.9441L661.484 79.1317C662.567 79.9088 663.645 80.6908 664.72 81.4778L664.129 82.2845C665.2 83.0695 666.268 83.8595 667.331 84.6543L667.93 83.8533C668.996 84.6501 670.057 85.4517 671.115 86.2581L670.508 87.0532C671.563 87.8577 672.613 88.667 673.659 89.4811L674.274 88.6919C675.325 89.5102 676.372 90.3334 677.415 91.1613L676.793 91.9445C677.834 92.771 678.871 93.6022 679.903 94.4382L680.532 93.6612C681.567 94.4992 682.597 95.342 683.623 96.1896L682.986 96.9605C684.009 97.806 685.028 98.6561 686.042 99.511L686.687 98.7464C687.704 99.6033 688.716 100.465 689.724 101.331L689.072 102.09C690.08 102.956 691.084 103.828 692.083 104.704L692.742 103.952C693.743 104.83 694.74 105.713 695.733 106.6L695.066 107.346C696.056 108.231 697.041 109.121 698.022 110.016L698.696 109.277C699.679 110.173 700.657 111.075 701.63 111.981L700.949 112.713C701.921 113.617 702.887 114.525 703.849 115.438L704.538 114.712C705.504 115.63 706.466 116.551 707.423 117.478L706.728 118.196C707.682 119.12 708.632 120.049 709.577 120.982L710.279 120.27C711.227 121.205 712.169 122.145 713.107 123.089L712.397 123.794C713.332 124.735 714.262 125.681 715.188 126.632L715.904 125.934C716.833 126.888 717.756 127.846 718.674 128.808L717.951 129.498C718.868 130.46 719.781 131.425 720.688 132.395L721.418 131.712C722.328 132.685 723.232 133.661 724.132 134.642L723.395 135.318C724.292 136.297 725.184 137.28 726.072 138.267L726.815 137.598C727.705 138.588 728.589 139.582 729.468 140.58L728.717 141.241C729.595 142.237 730.467 143.238 731.335 144.242L732.092 143.589C732.962 144.597 733.827 145.61 734.687 146.626L733.923 147.272C734.781 148.286 735.633 149.304 736.48 150.326L737.25 149.688C738.099 150.713 738.943 151.742 739.781 152.775L739.005 153.405C739.841 154.436 740.673 155.47 741.498 156.509L742.281 155.886C743.11 156.928 743.933 157.974 744.75 159.024L743.961 159.639C744.777 160.687 745.588 161.739 746.393 162.794L747.188 162.188C747.995 163.247 748.797 164.309 749.593 165.375L748.792 165.974C749.586 167.037 750.375 168.105 751.158 169.177L751.965 168.587C752.75 169.661 753.53 170.739 754.304 171.821L753.491 172.403C754.263 173.483 755.03 174.567 755.791 175.654L756.611 175.081C757.374 176.172 758.132 177.266 758.884 178.364L758.058 178.929C758.809 180.025 759.553 181.124 760.292 182.227L761.123 181.67C761.863 182.776 762.598 183.885 763.327 184.999L762.491 185.547C763.218 186.657 763.94 187.771 764.656 188.889L765.498 188.35C766.215 189.47 766.927 190.595 767.633 191.723L766.786 192.254C767.49 193.379 768.189 194.508 768.881 195.64L769.734 195.118C770.429 196.254 771.117 197.393 771.8 198.535L770.942 199.048C771.622 200.188 772.297 201.331 772.966 202.478L773.83 201.974C774.501 203.123 775.166 204.276 775.824 205.433L774.955 205.928C775.612 207.081 776.263 208.238 776.908 209.398L777.782 208.912C778.428 210.075 779.069 211.241 779.703 212.411L778.824 212.888C779.457 214.055 780.084 215.225 780.704 216.399L781.588 215.932C782.211 217.108 782.827 218.289 783.437 219.472L782.548 219.93C783.156 221.11 783.758 222.293 784.354 223.479L785.247 223.03C785.844 224.219 786.435 225.411 787.02 226.606L786.121 227.046C786.705 228.238 787.281 229.433 787.852 230.631L788.755 230.202C789.327 231.403 789.893 232.608 790.453 233.816L789.545 234.237C790.104 235.442 790.656 236.65 791.201 237.861L792.113 237.45C792.659 238.663 793.199 239.879 793.733 241.098L792.817 241.499C793.349 242.714 793.874 243.932 794.393 245.153L795.314 244.762C795.834 245.986 796.349 247.214 796.856 248.444L795.932 248.825C796.438 250.053 796.939 251.283 797.432 252.516L798.361 252.144C798.856 253.381 799.344 254.62 799.826 255.863L798.894 256.225C799.373 257.46 799.846 258.699 800.313 259.941L801.249 259.589C801.717 260.834 802.178 262.081 802.633 263.331L801.693 263.673C802.146 264.92 802.593 266.17 803.034 267.423L803.977 267.091C804.419 268.347 804.854 269.606 805.282 270.868L804.335 271.189C804.763 272.447 805.183 273.708 805.597 274.971L806.548 274.66C806.961 275.922 807.368 277.187 807.768 278.454L806.815 278.756C807.214 280.02 807.607 281.287 807.993 282.556L808.95 282.265C809.337 283.538 809.717 284.814 810.091 286.092L809.131 286.373C809.504 287.647 809.87 288.925 810.229 290.205L811.192 289.935C811.552 291.216 811.905 292.501 812.251 293.788L811.286 294.048C811.63 295.327 811.967 296.608 812.298 297.891L813.266 297.642C813.598 298.929 813.923 300.218 814.241 301.51L813.27 301.75C813.587 303.038 813.898 304.329 814.201 305.622L815.175 305.394C815.479 306.691 815.777 307.99 816.068 309.292L815.092 309.51C815.382 310.805 815.664 312.103 815.94 313.403L816.918 313.195C817.194 314.494 817.462 315.794 817.724 317.097L816.743 317.294C817.005 318.593 817.259 319.895 817.506 321.199L818.489 321.013C818.737 322.32 818.978 323.63 819.212 324.942L818.228 325.117C818.461 326.426 818.688 327.736 818.908 329.049L819.894 328.884C820.114 330.196 820.326 331.51 820.532 332.826L819.544 332.98C819.749 334.287 819.946 335.597 820.137 336.908L821.126 336.764C821.318 338.079 821.502 339.396 821.679 340.715L820.688 340.848C820.865 342.164 821.035 343.481 821.198 344.801L822.19 344.678C822.354 346.001 822.51 347.326 822.659 348.654L821.666 348.765C821.814 350.083 821.955 351.402 822.089 352.724L823.084 352.622C823.219 353.942 823.346 355.263 823.466 356.586L822.47 356.676C822.59 357.996 822.703 359.317 822.809 360.64L823.806 360.56C823.912 361.887 824.011 363.216 824.103 364.546L823.106 364.615C823.198 365.942 823.283 367.271 823.361 368.601L824.359 368.543C824.437 369.869 824.507 371.198 824.571 372.528L823.572 372.576C823.635 373.896 823.691 375.218 823.741 376.542L824.74 376.504C824.789 377.832 824.832 379.16 824.867 380.491L823.867 380.517C823.903 381.844 823.931 383.173 823.952 384.503L824.952 384.487Z" stroke="#98DF5D" stroke-opacity="0.4" stroke-width="2" stroke-dasharray="4 4"/>
</svg>
