<svg width="1093" height="1037" viewBox="0 0 1093 1037" fill="none" xmlns="http://www.w3.org/2000/svg">
<path d="M1092.96 512.497C1092.98 513.83 1092.99 515.163 1093 516.497L1092 516.501C1092 516.768 1092 517.035 1092 517.302C1092 517.701 1092 518.101 1092 518.5C1092 519.166 1092 519.832 1092 520.497L1093 520.501C1092.99 521.836 1092.98 523.169 1092.96 524.501L1091.96 524.489C1091.95 525.819 1091.93 527.147 1091.9 528.474L1092.9 528.494C1092.87 529.823 1092.84 531.152 1092.81 532.479L1091.81 532.451C1091.77 533.776 1091.73 535.099 1091.68 536.421L1092.68 536.457C1092.63 537.782 1092.58 539.105 1092.52 540.427L1091.52 540.383C1091.46 541.703 1091.4 543.021 1091.33 544.338L1092.33 544.39C1092.26 545.721 1092.19 547.05 1092.11 548.378L1091.11 548.318C1091.03 549.646 1090.95 550.973 1090.86 552.298L1091.85 552.366C1091.76 553.694 1091.67 555.02 1091.57 556.346L1090.57 556.27C1090.47 557.592 1090.36 558.914 1090.25 560.233L1091.25 560.317C1091.14 561.64 1091.02 562.961 1090.9 564.28L1089.9 564.188C1089.78 565.505 1089.66 566.821 1089.52 568.135L1090.52 568.235C1090.39 569.554 1090.25 570.871 1090.11 572.187L1089.11 572.079C1088.97 573.402 1088.82 574.724 1088.67 576.044L1089.66 576.16C1089.5 577.482 1089.35 578.804 1089.18 580.123L1088.19 579.999C1088.02 581.317 1087.85 582.632 1087.68 583.946L1088.67 584.078C1088.5 585.395 1088.32 586.71 1088.13 588.023L1087.14 587.883C1086.95 589.194 1086.76 590.504 1086.57 591.811L1087.56 591.959C1087.36 593.27 1087.16 594.578 1086.95 595.886L1085.97 595.73C1085.76 597.041 1085.55 598.349 1085.33 599.657L1086.32 599.821C1086.1 601.135 1085.88 602.447 1085.65 603.758L1084.66 603.586C1084.56 604.157 1084.46 604.728 1084.36 605.298C1084.23 606.034 1084.1 606.77 1083.96 607.505L1084.95 607.685C1084.71 608.992 1084.46 610.298 1084.21 611.602L1083.23 611.414C1082.98 612.716 1082.73 614.015 1082.47 615.313L1083.45 615.509C1083.19 616.809 1082.93 618.108 1082.66 619.405L1081.68 619.202C1081.41 620.497 1081.13 621.79 1080.86 623.082L1081.83 623.293C1081.55 624.595 1081.26 625.895 1080.97 627.194L1080 626.974C1079.85 627.625 1079.7 628.275 1079.55 628.925C1079.41 629.569 1079.26 630.213 1079.11 630.856L1080.08 631.083C1079.78 632.378 1079.47 633.671 1079.16 634.962L1078.19 634.727C1077.88 636.015 1077.56 637.302 1077.24 638.586L1078.21 638.829C1077.89 640.116 1077.56 641.402 1077.23 642.686L1076.26 642.435C1075.93 643.716 1075.59 644.995 1075.25 646.272L1076.21 646.531C1075.87 647.815 1075.52 649.096 1075.17 650.376L1074.2 650.11C1073.85 651.39 1073.49 652.668 1073.13 653.944L1074.09 654.218C1073.72 655.497 1073.35 656.774 1072.98 658.049L1072.02 657.767C1071.65 659.039 1071.27 660.309 1070.88 661.577L1071.84 661.867C1071.46 663.138 1071.07 664.407 1070.67 665.673L1069.72 665.376C1069.32 666.64 1068.92 667.902 1068.52 669.163L1069.47 669.468C1069.07 670.731 1068.66 671.993 1068.24 673.252L1067.29 672.939C1066.88 674.201 1066.46 675.46 1066.03 676.717L1066.98 677.037C1066.56 678.297 1066.12 679.554 1065.69 680.81L1064.74 680.482C1064.31 681.735 1063.87 682.985 1063.43 684.234L1064.37 684.57C1063.92 685.821 1063.47 687.07 1063.02 688.317L1062.08 687.974C1061.62 689.218 1061.16 690.46 1060.7 691.7L1061.64 692.051C1061.17 693.293 1060.7 694.533 1060.23 695.772L1059.29 695.414C1059.08 695.97 1058.86 696.527 1058.65 697.083C1058.38 697.763 1058.12 698.443 1057.85 699.122L1058.78 699.488C1058.3 700.725 1057.81 701.961 1057.31 703.194L1056.38 702.821C1056.16 703.38 1055.93 703.94 1055.71 704.498C1055.43 705.168 1055.16 705.837 1054.89 706.506L1055.81 706.886C1055.31 708.115 1054.8 709.341 1054.28 710.565L1053.36 710.177C1053.11 710.779 1052.85 711.381 1052.59 711.982C1052.33 712.6 1052.07 713.218 1051.8 713.835L1052.72 714.23C1052.2 715.449 1051.67 716.666 1051.13 717.881L1050.22 717.478C1049.69 718.692 1049.15 719.902 1048.61 721.111L1049.52 721.52C1048.97 722.733 1048.42 723.943 1047.87 725.151L1046.96 724.734C1046.83 725.028 1046.69 725.322 1046.56 725.616C1046.14 726.526 1045.71 727.436 1045.29 728.344L1046.19 728.768C1045.63 729.971 1045.06 731.172 1044.49 732.37L1043.59 731.939C1043.02 733.134 1042.44 734.328 1041.86 735.519L1042.76 735.957C1042.18 737.151 1041.59 738.341 1041 739.53L1040.1 739.084C1039.51 740.271 1038.92 741.454 1038.32 742.635L1039.21 743.088C1038.61 744.273 1038.01 745.455 1037.4 746.635L1036.51 746.176C1036.18 746.815 1035.84 747.452 1035.51 748.09C1035.23 748.628 1034.95 749.165 1034.67 749.702L1035.55 750.168C1034.93 751.343 1034.31 752.515 1033.68 753.685L1032.8 753.212C1032.17 754.38 1031.54 755.545 1030.9 756.707L1031.78 757.187C1031.14 758.352 1030.5 759.514 1029.85 760.674L1028.98 760.187C1028.33 761.344 1027.68 762.499 1027.03 763.651L1027.9 764.145C1027.24 765.3 1026.58 766.452 1025.92 767.601L1025.05 767.1C1024.39 768.248 1023.72 769.393 1023.05 770.535L1023.91 771.043C1023.23 772.187 1022.56 773.329 1021.87 774.468L1021.01 773.954L1020.75 774.397C1020.15 775.386 1019.56 776.372 1018.96 777.357L1019.81 777.877C1019.12 779.011 1018.42 780.142 1017.72 781.27L1016.87 780.743C1016.48 781.373 1016.09 782.003 1015.69 782.632C1015.38 783.126 1015.07 783.62 1014.76 784.113L1015.61 784.647C1014.9 785.77 1014.18 786.89 1013.47 788.007L1012.63 787.466C1012.35 787.902 1012.07 788.337 1011.78 788.771C1011.35 789.45 1010.91 790.127 1010.46 790.803L1011.3 791.35C1010.57 792.462 1009.84 793.571 1009.11 794.677L1008.28 794.123C1007.54 795.227 1006.8 796.328 1006.06 797.427L1006.89 797.986C1006.15 799.087 1005.4 800.184 1004.65 801.279L1003.82 800.713C1003.07 801.805 1002.32 802.895 1001.56 803.982L1002.38 804.554C1001.62 805.643 1000.85 806.729 1000.08 807.812L999.268 807.234C998.5 808.314 997.729 809.392 996.954 810.466L997.764 811.052C996.988 812.128 996.206 813.202 995.421 814.273L994.615 813.681C993.831 814.75 993.043 815.816 992.251 816.879L993.053 817.476C992.26 818.541 991.462 819.603 990.66 820.662L989.863 820.058C989.063 821.115 988.259 822.169 987.45 823.22L988.243 823.83C987.433 824.883 986.619 825.933 985.801 826.98L985.013 826.364C984.197 827.408 983.377 828.45 982.553 829.488L983.336 830.11C982.511 831.149 981.681 832.186 980.848 833.22L980.07 832.592C979.238 833.624 978.402 834.652 977.563 835.678L978.337 836.311C977.495 837.339 976.65 838.363 975.801 839.384L975.032 838.745C974.185 839.764 973.333 840.78 972.478 841.793L973.242 842.439C972.385 843.454 971.524 844.465 970.659 845.474L969.899 844.823C969.036 845.83 968.169 846.834 967.298 847.834L968.052 848.491C967.181 849.491 966.306 850.489 965.427 851.484L964.678 850.821C963.8 851.814 962.919 852.803 962.034 853.789L962.778 854.457C961.891 855.445 961.001 856.43 960.106 857.412L959.367 856.739C958.474 857.718 957.578 858.695 956.677 859.668L957.412 860.347C956.51 861.323 955.604 862.295 954.694 863.263L953.965 862.579C953.057 863.546 952.146 864.509 951.23 865.47L951.954 866.16C951.038 867.121 950.119 868.078 949.195 869.033L948.477 868.337C947.556 869.289 946.631 870.238 945.703 871.183L946.416 871.883C945.486 872.831 944.552 873.774 943.615 874.715L942.907 874.009C941.971 874.947 941.032 875.883 940.089 876.815L940.792 877.526C939.847 878.46 938.898 879.39 937.946 880.317L937.249 879.6C936.299 880.526 935.345 881.448 934.387 882.366L935.08 883.088C934.121 884.008 933.159 884.924 932.193 885.837L931.506 885.11C930.544 886.019 929.578 886.925 928.609 887.828L929.29 888.56C928.319 889.464 927.344 890.365 926.366 891.263L925.69 890.526C924.714 891.422 923.734 892.314 922.75 893.203L923.421 893.945C922.436 894.836 921.447 895.723 920.455 896.606L919.79 895.86C918.799 896.742 917.805 897.62 916.808 898.495L917.468 899.247C916.468 900.124 915.466 900.997 914.46 901.867L913.806 901.11C912.804 901.976 911.799 902.839 910.79 903.698L911.439 904.459C910.429 905.319 909.416 906.176 908.399 907.029L907.756 906.263C906.741 907.114 905.723 907.962 904.701 908.807L905.339 909.577C904.315 910.423 903.288 911.266 902.258 912.105L901.627 911.329C900.599 912.167 899.567 913 898.532 913.831L899.158 914.611C898.121 915.442 897.081 916.271 896.038 917.095L895.418 916.31C894.378 917.132 893.334 917.951 892.288 918.765L892.902 919.554C891.855 920.369 890.806 921.18 889.753 921.987L889.144 921.194C888.093 922 887.039 922.802 885.982 923.6L886.585 924.398C885.525 925.198 884.463 925.995 883.397 926.787L882.8 925.985C881.736 926.776 880.669 927.564 879.599 928.348L880.19 929.154C879.118 929.94 878.043 930.721 876.965 931.499L876.38 930.688C875.303 931.465 874.224 932.237 873.141 933.006L873.72 933.822C872.639 934.59 871.555 935.354 870.468 936.114L869.895 935.295C868.81 936.053 867.722 936.808 866.631 937.56L867.198 938.383C866.106 939.136 865.01 939.885 863.911 940.63L863.349 939.803C862.252 940.546 861.152 941.286 860.049 942.023L860.604 942.855C859.499 943.592 858.391 944.326 857.28 945.056L856.731 944.22C855.622 944.949 854.51 945.674 853.395 946.395L853.938 947.235C852.823 947.956 851.705 948.673 850.584 949.387L850.047 948.543C849.567 948.849 849.085 949.154 848.603 949.459C847.966 949.862 847.329 950.263 846.69 950.663L847.221 951.511C846.096 952.215 844.969 952.915 843.839 953.612L843.315 952.76C842.187 953.456 841.056 954.147 839.922 954.835L840.441 955.69C839.305 956.378 838.167 957.063 837.025 957.744L836.513 956.886C835.373 957.565 834.231 958.241 833.086 958.913L833.592 959.776C832.445 960.449 831.296 961.118 830.143 961.784L829.643 960.917C828.497 961.579 827.348 962.236 826.197 962.89L826.691 963.76C825.538 964.414 824.382 965.065 823.223 965.711L822.736 964.838C821.58 965.484 820.42 966.125 819.258 966.763L819.74 967.64C818.576 968.278 817.409 968.913 816.24 969.544L815.765 968.664C814.597 969.294 813.427 969.919 812.255 970.541L812.723 971.425C811.549 972.048 810.371 972.667 809.191 973.281L808.729 972.395C807.553 973.007 806.375 973.616 805.194 974.221L805.65 975.111C804.47 975.715 803.288 976.314 802.103 976.91L801.654 976.017C800.471 976.612 799.286 977.202 798.098 977.789L798.541 978.686C797.352 979.274 796.159 979.857 794.964 980.437L794.528 979.537C794.003 979.792 793.478 980.045 792.953 980.298C792.283 980.621 791.613 980.942 790.942 981.261L791.372 982.164C790.172 982.736 788.969 983.303 787.764 983.867L787.34 982.961C786.137 983.523 784.932 984.082 783.724 984.636L784.141 985.545C782.936 986.098 781.729 986.646 780.519 987.191L780.109 986.279C778.903 986.822 777.694 987.361 776.483 987.896L776.887 988.811C775.673 989.347 774.458 989.879 773.24 990.406L772.842 989.489C771.626 990.016 770.408 990.538 769.187 991.057L769.578 991.977C768.355 992.497 767.13 993.012 765.902 993.523L765.518 992.6C764.292 993.11 763.065 993.616 761.835 994.118L762.212 995.044C760.981 995.546 759.748 996.044 758.513 996.538L758.141 995.609C756.914 996.1 755.684 996.587 754.452 997.069L754.817 998C753.582 998.483 752.346 998.962 751.107 999.437L750.749 998.503C749.512 998.977 748.274 999.447 747.033 999.913L747.384 1000.85C746.141 1001.32 744.895 1001.78 743.647 1002.24L743.303 1001.3C742.057 1001.75 740.81 1002.21 739.56 1002.66L739.898 1003.6C738.645 1004.05 737.391 1004.49 736.135 1004.93L735.803 1003.99C734.553 1004.43 733.301 1004.86 732.047 1005.29L732.372 1006.24C731.119 1006.67 729.864 1007.09 728.607 1007.52L728.289 1006.57C727.035 1006.99 725.778 1007.41 724.519 1007.82L724.83 1008.77C723.569 1009.18 722.306 1009.59 721.041 1009.99L720.736 1009.04C719.473 1009.44 718.208 1009.84 716.941 1010.24L717.238 1011.19C715.969 1011.59 714.698 1011.98 713.424 1012.37L713.133 1011.41C711.862 1011.8 710.589 1012.18 709.313 1012.56L709.597 1013.52C708.328 1013.89 707.056 1014.26 705.782 1014.63L705.504 1013.67C704.234 1014.04 702.962 1014.4 701.688 1014.76L701.958 1015.72C700.682 1016.08 699.403 1016.43 698.123 1016.78L697.859 1015.82C696.581 1016.17 695.301 1016.51 694.019 1016.85L694.276 1017.82C692.992 1018.16 691.706 1018.5 690.418 1018.83L690.168 1017.86C688.882 1018.2 687.595 1018.52 686.305 1018.85L686.549 1019.82C685.258 1020.14 683.966 1020.46 682.671 1020.78L682.435 1019.8C681.151 1020.12 679.866 1020.42 678.58 1020.73L678.809 1021.7C677.52 1022.01 676.229 1022.3 674.936 1022.6L674.714 1021.63C674.023 1021.78 673.333 1021.94 672.642 1022.09C672.04 1022.23 671.439 1022.36 670.837 1022.5L671.053 1023.47C669.757 1023.76 668.459 1024.04 667.159 1024.32L666.95 1023.34C665.652 1023.62 664.353 1023.89 663.052 1024.16L663.254 1025.14C661.951 1025.41 660.646 1025.67 659.339 1025.93L659.144 1024.95C657.843 1025.21 656.54 1025.47 655.235 1025.72L655.424 1026.7C654.125 1026.95 652.824 1027.19 651.521 1027.44L651.34 1026.45C650.594 1026.59 649.848 1026.73 649.102 1026.86C648.546 1026.96 647.99 1027.06 647.434 1027.16L647.609 1028.14C646.303 1028.38 644.996 1028.6 643.687 1028.83L643.519 1027.84C642.212 1028.06 640.904 1028.28 639.594 1028.49L639.755 1029.48C638.443 1029.7 637.129 1029.9 635.814 1030.11L635.659 1029.12C634.346 1029.33 633.032 1029.53 631.715 1029.72L631.862 1030.71C630.549 1030.91 629.235 1031.1 627.919 1031.28L627.779 1030.29C626.471 1030.48 625.162 1030.66 623.852 1030.84L623.986 1031.83C622.673 1032.01 621.359 1032.18 620.043 1032.35L619.917 1031.35C618.604 1031.52 617.289 1031.68 615.973 1031.84L616.092 1032.84C614.774 1032.99 613.454 1033.15 612.132 1033.3L612.02 1032.31C610.7 1032.46 609.38 1032.6 608.058 1032.74L608.164 1033.74C606.839 1033.88 605.514 1034.01 604.187 1034.15L604.088 1033.15C602.77 1033.28 601.451 1033.41 600.13 1033.53L600.223 1034.53C598.906 1034.65 597.588 1034.77 596.268 1034.88L596.183 1033.88C594.866 1034 593.548 1034.1 592.228 1034.21L592.306 1035.2C590.984 1035.31 589.661 1035.41 588.336 1035.5L588.264 1034.51C586.942 1034.6 585.618 1034.69 584.293 1034.78L584.358 1035.78C583.03 1035.86 581.702 1035.94 580.372 1036.02L580.314 1035.02C579.676 1035.06 579.038 1035.09 578.4 1035.13C577.71 1035.17 577.018 1035.2 576.327 1035.24L576.378 1036.24C575.054 1036.31 573.728 1036.37 572.401 1036.43L572.357 1035.43C571.039 1035.49 569.719 1035.54 568.398 1035.59L568.436 1036.59C567.113 1036.64 565.789 1036.68 564.463 1036.73L564.433 1035.73C564.048 1035.74 563.664 1035.75 563.28 1035.76C562.34 1035.79 561.4 1035.81 560.46 1035.83L560.484 1036.83C559.156 1036.87 557.827 1036.89 556.497 1036.92L556.48 1035.92C555.152 1035.94 553.823 1035.96 552.493 1035.97L552.503 1036.97C551.171 1036.98 549.837 1036.99 548.503 1037L548.499 1036C547.833 1036 547.167 1036 546.5 1036C545.834 1036 545.168 1036 544.502 1036L544.499 1037C543.164 1036.99 541.83 1036.98 540.498 1036.97L540.508 1035.97C539.863 1035.96 539.218 1035.96 538.573 1035.95C537.889 1035.94 537.205 1035.93 536.521 1035.92L536.504 1036.92C535.174 1036.89 533.845 1036.87 532.518 1036.83L532.541 1035.83C531.216 1035.8 529.892 1035.77 528.569 1035.73L528.538 1036.73C527.213 1036.68 525.888 1036.64 524.565 1036.59L524.603 1035.59C523.282 1035.54 521.963 1035.49 520.644 1035.43L520.6 1036.43C519.273 1036.37 517.948 1036.31 516.623 1036.24L516.674 1035.24C515.344 1035.17 514.015 1035.1 512.687 1035.02L512.629 1036.02C511.299 1035.94 509.971 1035.86 508.643 1035.78L508.708 1034.78C507.383 1034.69 506.059 1034.6 504.737 1034.51L504.665 1035.5C503.34 1035.41 502.017 1035.31 500.695 1035.2L500.773 1034.21C499.454 1034.1 498.135 1034 496.818 1033.88L496.733 1034.88C495.413 1034.77 494.095 1034.65 492.779 1034.53L492.871 1033.53C491.55 1033.41 490.231 1033.28 488.914 1033.15L488.815 1034.15C487.487 1034.01 486.162 1033.88 484.837 1033.74L484.943 1032.74C484.258 1032.67 483.574 1032.59 482.89 1032.52C482.253 1032.45 481.617 1032.38 480.982 1032.31L480.869 1033.3C479.547 1033.15 478.227 1032.99 476.909 1032.84L477.029 1031.84C475.712 1031.68 474.398 1031.52 473.084 1031.35L472.958 1032.35C471.642 1032.18 470.328 1032.01 469.015 1031.83L469.149 1030.84C467.839 1030.66 466.53 1030.48 465.223 1030.29L465.082 1031.29C463.766 1031.1 462.452 1030.91 461.139 1030.71L461.286 1029.72C459.97 1029.53 458.655 1029.33 457.342 1029.12L457.188 1030.11C455.872 1029.9 454.558 1029.7 453.246 1029.48L453.407 1028.49C452.097 1028.28 450.789 1028.06 449.482 1027.84L449.314 1028.83C448.005 1028.6 446.698 1028.38 445.392 1028.14L445.567 1027.16C444.263 1026.93 442.961 1026.69 441.661 1026.45L441.48 1027.44C440.177 1027.19 438.876 1026.95 437.577 1026.7L437.766 1025.72C436.461 1025.47 435.158 1025.21 433.857 1024.95L433.662 1025.94C432.355 1025.67 431.05 1025.41 429.747 1025.14L429.949 1024.16C428.648 1023.89 427.349 1023.62 426.051 1023.34L425.842 1024.32C424.542 1024.04 423.244 1023.76 421.948 1023.47L422.164 1022.5C420.87 1022.21 419.578 1021.92 418.287 1021.63L418.065 1022.6C416.772 1022.31 415.481 1022.01 414.192 1021.7L414.421 1020.73C413.135 1020.42 411.85 1020.12 410.566 1019.8L410.33 1020.78C409.035 1020.46 407.743 1020.14 406.452 1019.82L406.696 1018.85C405.406 1018.52 404.118 1018.2 402.833 1017.86L402.583 1018.83C401.295 1018.5 400.009 1018.16 398.725 1017.82L398.981 1016.86C397.7 1016.51 396.42 1016.17 395.142 1015.82L394.878 1016.78C393.597 1016.43 392.319 1016.08 391.043 1015.72L391.313 1014.76C390.039 1014.4 388.767 1014.04 387.496 1013.67L387.219 1014.63C385.945 1014.26 384.673 1013.89 383.403 1013.52L383.688 1012.56C382.412 1012.18 381.139 1011.8 379.868 1011.41L379.577 1012.37C378.303 1011.98 377.032 1011.59 375.762 1011.19L376.06 1010.24C374.793 1009.84 373.528 1009.44 372.265 1009.04L371.96 1009.99C370.695 1009.59 369.432 1009.18 368.171 1008.77L368.482 1007.82C367.223 1007.41 365.966 1006.99 364.711 1006.57L364.393 1007.52C363.136 1007.1 361.882 1006.67 360.629 1006.24L360.953 1005.29C359.699 1004.86 358.447 1004.43 357.197 1003.99L356.866 1004.93C355.61 1004.49 354.355 1004.05 353.103 1003.6L353.441 1002.66C352.191 1002.21 350.943 1001.75 349.698 1001.3L349.353 1002.24C348.106 1001.78 346.86 1001.32 345.617 1000.85L345.968 999.913C344.727 999.448 343.488 998.978 342.252 998.504L341.894 999.438C340.655 998.963 339.418 998.484 338.184 998L338.549 997.069C337.317 996.587 336.087 996.1 334.859 995.61L334.488 996.538C333.253 996.044 332.019 995.546 330.788 995.044L331.166 994.118C329.936 993.616 328.708 993.11 327.483 992.6L327.098 993.523C325.871 993.012 324.645 992.497 323.422 991.977L323.813 991.057C322.593 990.538 321.374 990.016 320.158 989.489L319.761 990.407C318.543 989.879 317.327 989.347 316.114 988.811L316.518 987.896C315.307 987.362 314.098 986.823 312.892 986.279L312.481 987.191C311.271 986.647 310.064 986.098 308.859 985.545L309.276 984.636C308.069 984.082 306.863 983.523 305.66 982.961L305.237 983.867C304.032 983.303 302.829 982.736 301.629 982.164L302.059 981.261C300.861 980.691 299.666 980.116 298.473 979.538L298.036 980.437C296.841 979.858 295.649 979.274 294.459 978.686L294.902 977.789C293.714 977.203 292.529 976.612 291.347 976.017L290.897 976.91C289.713 976.315 288.53 975.715 287.351 975.111L287.807 974.221C286.626 973.616 285.447 973.008 284.271 972.395L283.809 973.282C282.629 972.667 281.452 972.048 280.277 971.425L280.746 970.542C279.573 969.92 278.403 969.294 277.236 968.664L276.761 969.544C275.592 968.914 274.425 968.279 273.261 967.64L273.742 966.763C272.58 966.126 271.421 965.484 270.264 964.838L269.777 965.712C268.619 965.065 267.463 964.414 266.31 963.76L266.803 962.89C265.652 962.237 264.503 961.579 263.358 960.918L262.858 961.784C261.705 961.118 260.555 960.449 259.408 959.776L259.914 958.913C258.769 958.242 257.627 957.566 256.488 956.886L255.975 957.745C254.834 957.064 253.695 956.379 252.56 955.69L253.078 954.835C251.945 954.147 250.814 953.456 249.686 952.761L249.161 953.612C248.031 952.916 246.904 952.215 245.78 951.511L246.311 950.664C245.189 949.961 244.069 949.254 242.953 948.543L242.416 949.387C241.295 948.674 240.177 947.956 239.062 947.235L239.605 946.395C238.49 945.674 237.378 944.949 236.269 944.221L235.72 945.056C234.609 944.326 233.501 943.592 232.396 942.855L232.951 942.023C231.848 941.287 230.748 940.547 229.651 939.803L229.09 940.631C227.991 939.885 226.895 939.136 225.802 938.384L226.369 937.56C225.278 936.809 224.19 936.054 223.106 935.295L222.532 936.114C221.445 935.354 220.361 934.59 219.28 933.822L219.859 933.007C218.777 932.238 217.697 931.465 216.621 930.688L216.036 931.5C214.958 930.722 213.882 929.94 212.81 929.155L213.401 928.348C212.331 927.564 211.264 926.776 210.2 925.985L209.604 926.788C208.538 925.995 207.475 925.199 206.416 924.399L207.019 923.601C205.961 922.802 204.907 922 203.856 921.194L203.248 921.988C202.195 921.18 201.145 920.369 200.099 919.555L200.713 918.766C199.666 917.951 198.623 917.133 197.583 916.311L196.963 917.095C195.919 916.271 194.879 915.443 193.843 914.611L194.468 913.831C193.433 913.001 192.402 912.167 191.374 911.33L190.742 912.105C189.712 911.266 188.685 910.424 187.662 909.578L188.299 908.807C187.277 907.963 186.259 907.115 185.244 906.263L184.602 907.029C183.585 906.176 182.572 905.319 181.562 904.459L182.21 903.698C181.202 902.839 180.196 901.976 179.195 901.11L178.541 901.867C177.535 900.997 176.532 900.124 175.533 899.247L176.192 898.496C175.195 897.621 174.201 896.742 173.211 895.86L172.546 896.607C171.554 895.723 170.565 894.836 169.58 893.945L170.25 893.203C169.267 892.314 168.287 891.422 167.31 890.526L166.634 891.263C165.656 890.366 164.682 889.465 163.71 888.56L164.392 887.828C163.423 886.926 162.457 886.02 161.495 885.11L160.808 885.837C159.842 884.924 158.88 884.008 157.921 883.088L158.613 882.367C157.656 881.448 156.702 880.526 155.752 879.601L155.054 880.317C154.102 879.39 153.154 878.46 152.209 877.526L152.912 876.815C151.969 875.883 151.029 874.948 150.094 874.009L149.385 874.715C148.448 873.775 147.514 872.831 146.584 871.884L147.298 871.183C146.369 870.238 145.445 869.289 144.524 868.338L143.805 869.033C142.882 868.079 141.962 867.121 141.046 866.16L141.77 865.47C140.855 864.51 139.943 863.546 139.035 862.579L138.306 863.264C137.397 862.295 136.491 861.323 135.589 860.348L136.323 859.669C135.423 858.695 134.526 857.719 133.633 856.739L132.894 857.412C132 856.431 131.109 855.446 130.222 854.458L130.967 853.79C130.081 852.804 129.2 851.814 128.323 850.822L127.574 851.484C126.695 850.49 125.819 849.492 124.948 848.491L125.702 847.834C124.831 846.834 123.964 845.83 123.101 844.824L122.342 845.475C121.477 844.466 120.616 843.454 119.759 842.439L120.523 841.794C119.667 840.781 118.816 839.765 117.968 838.745L117.199 839.385C116.35 838.363 115.505 837.339 114.664 836.312L115.438 835.678C114.598 834.653 113.762 833.624 112.931 832.592L112.152 833.22C111.319 832.187 110.49 831.15 109.664 830.11L110.448 829.489C109.624 828.45 108.803 827.409 107.987 826.365L107.199 826.98C106.381 825.933 105.567 824.883 104.757 823.83L105.55 823.221C104.742 822.17 103.937 821.116 103.137 820.059L102.34 820.663C101.538 819.604 100.741 818.542 99.9472 817.477L100.749 816.879C99.9571 815.816 99.1692 814.751 98.3855 813.682L97.5791 814.273C96.7939 813.202 96.0128 812.129 95.2359 811.052L96.0468 810.467C95.2713 809.392 94.5 808.315 93.7328 807.234L92.9174 807.813C92.1484 806.73 91.3836 805.644 90.623 804.555L91.4428 803.982C90.6837 802.895 89.9288 801.806 89.1781 800.713L88.3539 801.279C87.6018 800.185 86.8539 799.087 86.1102 797.987L86.9388 797.427C86.1966 796.329 85.4586 795.228 84.725 794.124L83.8921 794.677C83.1571 793.571 82.4262 792.462 81.6998 791.351L82.5368 790.804C81.8118 789.694 81.091 788.582 80.3745 787.467L79.5332 788.007C78.8154 786.89 78.1018 785.77 77.3926 784.647L78.2381 784.113C77.5303 782.993 76.8269 781.869 76.1278 780.743L75.2782 781.271C74.5777 780.143 73.8816 779.012 73.1899 777.878L74.0436 777.357C73.3533 776.226 72.6673 775.091 71.9858 773.954L71.1281 774.469C70.4452 773.329 69.7668 772.188 69.0927 771.043L69.9544 770.536C69.2817 769.393 68.6134 768.249 67.9496 767.101L67.084 767.602C66.4191 766.452 65.7586 765.3 65.1026 764.145L65.9721 763.651C65.3177 762.499 64.6677 761.345 64.0222 760.187L63.1489 760.674C62.5021 759.515 61.8599 758.353 61.2221 757.188L62.0993 756.708C61.4628 755.545 60.8308 754.38 60.2034 753.213L59.3225 753.686C58.6938 752.516 58.0697 751.344 57.4501 750.169L58.3347 749.702C57.7163 748.529 57.1026 747.354 56.4934 746.176L55.6052 746.636C54.9948 745.456 54.389 744.273 53.7878 743.088L54.6797 742.636C54.0805 741.455 53.4859 740.271 52.8959 739.085L52.0005 739.53C51.4094 738.342 50.8229 737.151 50.241 735.958L51.1398 735.519C50.5591 734.328 49.9829 733.135 49.4115 731.939L48.5092 732.37C47.9366 731.172 47.3687 729.971 46.8055 728.768L47.7111 728.344C47.149 727.144 46.5915 725.941 46.0388 724.735L45.1298 725.152C44.576 723.944 44.0268 722.734 43.4824 721.521L44.3947 721.112C43.8522 719.903 43.3143 718.692 42.7812 717.479L41.8657 717.881C41.332 716.667 40.8029 715.45 40.2787 714.23L41.1973 713.835C40.6741 712.619 40.1556 711.399 39.6419 710.178L38.7201 710.565C38.2053 709.342 37.6954 708.115 37.1902 706.887L38.115 706.506C37.6108 705.28 37.1115 704.052 36.6169 702.822L35.689 703.194C35.1934 701.961 34.7027 700.726 34.2168 699.489L35.1476 699.123C34.663 697.889 34.1833 696.653 33.7085 695.414L32.7748 695.772C32.3 694.534 31.8301 693.294 31.365 692.051L32.3016 691.701C31.8375 690.461 31.3782 689.219 30.9238 687.974L29.9844 688.317C29.5291 687.071 29.0786 685.822 28.6331 684.57L29.5751 684.235C29.1305 682.986 28.6907 681.736 28.2558 680.483L27.3111 680.811C26.8753 679.555 26.4445 678.298 26.0186 677.038L26.9659 676.718C26.5409 675.461 26.1208 674.201 25.7056 672.94L24.7558 673.253C24.3412 671.993 23.9316 670.732 23.5269 669.469L24.4793 669.164C24.0757 667.903 23.677 666.641 23.2833 665.377L22.3285 665.674C21.934 664.408 21.5444 663.139 21.1599 661.868L22.117 661.578C21.7332 660.31 21.3544 659.04 20.9806 657.768L20.0211 658.05C19.6466 656.775 19.277 655.498 18.9124 654.219L19.8741 653.945C19.5103 652.669 19.1515 651.391 18.7977 650.111L17.8339 650.377C17.4801 649.097 17.1314 647.815 16.7878 646.532L17.7538 646.273C17.4119 644.996 17.075 643.717 16.7431 642.436L15.7751 642.687C15.4425 641.403 15.115 640.118 14.7926 638.83L15.7626 638.587C15.4408 637.303 15.1241 636.016 14.8124 634.728L13.8404 634.963C13.5281 633.672 13.2209 632.379 12.9188 631.084L13.8926 630.857C13.5911 629.565 13.2947 628.271 13.0034 626.975L12.0277 627.195C11.7358 625.896 11.4491 624.596 11.1674 623.294L12.1448 623.083C11.8654 621.791 11.5911 620.498 11.3218 619.203L10.3428 619.406C10.0731 618.109 9.80852 616.81 9.54907 615.51L10.5297 615.314C10.2708 614.016 10.017 612.717 9.76833 611.415L8.7861 611.603C8.53692 610.299 8.29287 608.993 8.05398 607.686L9.03769 607.506C8.79929 606.202 8.56604 604.895 8.33796 603.587L7.35282 603.759C7.12428 602.448 6.90092 601.136 6.68275 599.822L7.66925 599.658C7.45219 598.351 7.2403 597.042 7.03358 595.731L6.04579 595.887C5.8396 594.58 5.63855 593.271 5.44267 591.96L6.43168 591.813C6.23619 590.505 6.04586 589.195 5.8607 587.885L4.87053 588.024C4.68499 586.711 4.50463 585.396 4.32948 584.079L5.32075 583.947C5.14596 582.633 4.97636 581.318 4.81197 580.001L3.81967 580.125C3.65495 578.805 3.49545 577.484 3.3412 576.161L4.33447 576.045C4.18053 574.725 4.03182 573.403 3.88837 572.08L2.89419 572.188C2.75152 570.872 2.61402 569.555 2.48174 568.236L3.47675 568.136C3.34493 566.822 3.21829 565.507 3.09685 564.19L2.10108 564.282C1.97939 562.962 1.86292 561.641 1.75168 560.318L2.74816 560.235C2.63714 558.915 2.53134 557.594 2.43078 556.271L1.43366 556.347C1.3329 555.022 1.23738 553.695 1.14714 552.367L2.14484 552.299C2.05478 550.974 1.96997 549.647 1.89045 548.319L0.892236 548.379C0.812714 547.051 0.738459 545.722 0.669491 544.391L1.66815 544.34C1.59989 543.023 1.53682 541.704 1.47896 540.385L0.479915 540.429C0.421936 539.107 0.369175 537.783 0.321652 536.458L1.32101 536.423C1.27358 535.1 1.23138 533.777 1.19442 532.453L0.194812 532.481C0.157783 531.153 0.12601 529.825 0.099513 528.495L1.09931 528.475C1.07287 527.148 1.05169 525.82 1.0358 524.491L0.0358677 524.503C0.0199407 523.17 0.00930847 521.837 0.00398999 520.503L1.00398 520.499C1.00133 519.833 1 519.167 1 518.5C1 517.834 1.00133 517.168 1.00398 516.503L0.00398464 516.499C0.00929955 515.164 0.0199282 513.831 0.0358517 512.499L1.03578 512.511C1.05167 511.181 1.07285 509.853 1.09929 508.526L0.0994865 508.506C0.12598 507.176 0.15775 505.848 0.194776 504.521L1.19439 504.549C1.23134 503.224 1.27354 501.901 1.32096 500.579L0.321605 500.543C0.369125 499.218 0.421883 497.895 0.47986 496.573L1.4789 496.616C1.53676 495.297 1.59983 493.979 1.66809 492.662L0.669426 492.61C0.73839 491.279 0.812642 489.95 0.89216 488.622L1.89037 488.682C1.96989 487.354 2.05469 486.027 2.14475 484.702L1.14705 484.634C1.23729 483.306 1.33281 481.98 1.43357 480.654L2.43069 480.73C2.53124 479.408 2.63704 478.086 2.74805 476.767L1.75157 476.683C1.86281 475.36 1.97928 474.039 2.10097 472.72L3.09674 472.811C3.21817 471.495 3.34481 470.179 3.47662 468.865L2.48161 468.765C2.6139 467.446 2.75138 466.129 2.89406 464.813L3.88823 464.921C4.03168 463.598 4.18039 462.276 4.33432 460.956L3.34106 460.84C3.4953 459.518 3.6548 458.196 3.81952 456.877L4.81182 457.001C4.9762 455.683 5.1458 454.368 5.32059 453.054L4.32932 452.922C4.50447 451.605 4.68482 450.29 4.87035 448.977L5.86053 449.117C6.04568 447.806 6.23602 446.496 6.4315 445.189L5.44249 445.041C5.63837 443.73 5.83942 442.422 6.0456 441.114L7.03339 441.27C7.24011 439.959 7.452 438.651 7.66905 437.343L6.68255 437.179C6.90071 435.865 7.12407 434.553 7.35262 433.242L8.33775 433.414C8.56583 432.106 8.79908 430.8 9.03749 429.495L8.05377 429.315C8.29265 428.008 8.5367 426.702 8.78588 425.398L9.76811 425.586C10.0168 424.284 10.2706 422.985 10.5295 421.687L9.54885 421.491C9.80829 420.191 10.0729 418.892 10.3425 417.595L11.3216 417.798C11.5908 416.503 11.8652 415.21 12.1446 413.918L11.1672 413.707C11.4488 412.405 11.7356 411.105 12.0275 409.806L13.0031 410.026C13.2944 408.73 13.5909 407.436 13.8924 406.144L12.9185 405.917C13.2207 404.622 13.5279 403.329 13.8402 402.038L14.8121 402.273C15.1238 400.985 15.4406 399.698 15.7623 398.414L14.7923 398.171C15.1147 396.883 15.4422 395.598 15.7748 394.314L16.7428 394.565C17.0747 393.284 17.4116 392.005 17.7535 390.728L16.7875 390.469C17.1312 389.186 17.4799 387.904 17.8336 386.624L18.7975 386.89C19.1512 385.61 19.51 384.332 19.8738 383.056L18.9121 382.782C19.2767 381.503 19.6463 380.226 20.0208 378.951L20.9803 379.233C21.3541 377.961 21.7329 376.691 22.1167 375.423L21.1596 375.133C21.5441 373.862 21.9337 372.593 22.3282 371.327L23.283 371.624C23.6767 370.36 24.0754 369.098 24.479 367.837L23.5266 367.532C23.9313 366.269 24.3409 365.007 24.7555 363.748L25.7053 364.061C26.1205 362.799 26.5406 361.54 26.9656 360.283L26.0183 359.963C26.4442 358.703 26.875 357.446 27.3108 356.19L28.2555 356.518C28.6904 355.265 29.1301 354.015 29.5748 352.766L28.6328 352.43C29.0783 351.179 29.5288 349.93 29.9841 348.683L30.9235 349.026C31.3779 347.782 31.8372 346.54 32.3013 345.3L31.3647 344.949C31.8298 343.707 32.2997 342.467 32.7745 341.228L33.7082 341.586C34.183 340.348 34.6627 339.112 35.1473 337.878L34.2164 337.512C34.7024 336.275 35.1931 335.039 35.6887 333.806L36.6166 334.179C37.1111 332.949 37.6105 331.72 38.1147 330.494L37.1899 330.114C37.695 328.885 38.205 327.659 38.7198 326.435L39.6416 326.823C40.1553 325.601 40.6738 324.382 41.197 323.165L40.2784 322.77C40.8026 321.551 41.3317 320.334 41.8654 319.119L42.7809 319.522C43.314 318.308 43.8519 317.098 44.3944 315.889L43.4821 315.48C44.0265 314.267 44.5756 313.057 45.1295 311.849L46.0385 312.266C46.5912 311.06 47.1487 309.857 47.7108 308.656L46.8051 308.232C47.3684 307.029 47.9363 305.828 48.5089 304.63L49.4112 305.061C49.9827 303.866 50.5588 302.672 51.1395 301.481L50.2407 301.043C50.8226 299.849 51.4091 298.659 52.0003 297.47L52.8956 297.915C53.4856 296.729 54.0802 295.546 54.6794 294.365L53.7876 293.912C54.3887 292.727 54.9945 291.545 55.6049 290.365L56.4931 290.824C57.1023 289.646 57.7161 288.471 58.3344 287.298L57.4498 286.832C58.0694 285.657 58.6935 284.485 59.3222 283.315L60.2031 283.788C60.8305 282.62 61.4625 281.455 62.099 280.293L61.2218 279.813C61.8596 278.648 62.5018 277.486 63.1486 276.326L64.0219 276.813C64.6674 275.656 65.3174 274.501 65.9719 273.349L65.1024 272.855C65.7584 271.7 66.4188 270.548 67.0837 269.399L67.9494 269.9C68.6132 268.752 69.2814 267.607 69.9541 266.465L69.0925 265.957C69.7665 264.813 70.4449 263.671 71.1278 262.532L71.9855 263.046C72.667 261.909 73.353 260.775 74.0433 259.643L73.1897 259.123C73.8813 257.989 74.5774 256.858 75.2779 255.73L76.1275 256.257C76.8266 255.131 77.53 254.008 78.2378 252.887L77.3923 252.353C78.1015 251.23 78.8151 250.11 79.5329 248.993L80.3742 249.534C81.0907 248.419 81.8115 247.306 82.5366 246.197L81.6995 245.65C82.426 244.538 83.1567 243.429 83.8918 242.323L84.7247 242.877C85.4583 241.773 86.1963 240.672 86.9385 239.574L86.1099 239.014C86.8536 237.913 87.6015 236.816 88.3536 235.721L89.1778 236.287C89.9285 235.195 90.6834 234.105 91.4425 233.018L90.6227 232.446C91.3833 231.357 92.1481 230.271 92.9171 229.188L93.7325 229.766C94.4996 228.686 95.271 227.608 96.0465 226.534L95.2355 225.948C96.0125 224.872 96.7935 223.798 97.5788 222.727L98.3852 223.319C99.1689 222.25 99.9567 221.184 100.749 220.121L99.9468 219.524C100.74 218.459 101.538 217.397 102.34 216.338L103.137 216.942C103.937 215.885 104.741 214.831 105.55 213.78L104.757 213.17C105.567 212.117 106.381 211.067 107.199 210.02L107.987 210.636C108.803 209.592 109.623 208.55 110.447 207.512L109.664 206.89C110.489 205.851 111.319 204.814 112.152 203.78L112.93 204.408C113.762 203.376 114.598 202.348 115.437 201.322L114.663 200.689C115.505 199.661 116.35 198.637 117.199 197.616L117.968 198.255C118.815 197.236 119.667 196.22 120.522 195.207L119.758 194.561C120.615 193.546 121.476 192.535 122.341 191.526L123.101 192.177C123.964 191.17 124.831 190.166 125.702 189.166L124.948 188.509C125.819 187.509 126.694 186.511 127.573 185.516L128.322 186.179C129.2 185.186 130.081 184.197 130.966 183.211L130.222 182.543C131.109 181.555 131.999 180.57 132.894 179.588L133.633 180.261C134.526 179.282 135.422 178.305 136.322 177.332L135.588 176.653C136.49 175.677 137.396 174.705 138.306 173.737L139.035 174.421C139.943 173.454 140.854 172.491 141.77 171.53L141.046 170.84C141.962 169.879 142.881 168.922 143.805 167.967L144.523 168.663C145.444 167.711 146.369 166.762 147.297 165.817L146.584 165.116C147.514 164.169 148.448 163.226 149.385 162.285L150.093 162.991C151.029 162.053 151.968 161.117 152.911 160.185L152.208 159.474C153.153 158.54 154.102 157.61 155.054 156.683L155.751 157.4C156.701 156.474 157.655 155.552 158.613 154.634L157.92 153.912C158.879 152.993 159.841 152.076 160.807 151.163L161.494 151.89C162.456 150.981 163.422 150.075 164.391 149.172L163.71 148.44C164.681 147.536 165.656 146.635 166.634 145.737L167.31 146.474C168.286 145.578 169.266 144.686 170.25 143.797L169.579 143.055C170.564 142.165 171.553 141.277 172.545 140.394L173.21 141.14C174.201 140.258 175.195 139.38 176.192 138.505L175.532 137.753C176.532 136.876 177.534 136.003 178.54 135.133L179.194 135.89C180.196 135.024 181.201 134.161 182.21 133.302L181.561 132.541C182.571 131.681 183.585 130.824 184.601 129.971L185.244 130.737C186.259 129.886 187.277 129.038 188.299 128.193L187.661 127.423C188.685 126.576 189.712 125.734 190.742 124.895L191.373 125.671C192.401 124.833 193.433 123.999 194.468 123.169L193.842 122.389C194.879 121.558 195.919 120.729 196.962 119.905L197.582 120.69C198.622 119.868 199.666 119.049 200.712 118.235L200.098 117.446C201.145 116.631 202.194 115.82 203.247 115.013L203.856 115.806C204.907 115.001 205.961 114.198 207.018 113.4L206.415 112.602C207.475 111.802 208.537 111.005 209.603 110.213L210.2 111.015C211.264 110.224 212.331 109.436 213.401 108.652L212.81 107.846C213.882 107.06 214.957 106.279 216.035 105.501L216.62 106.312C217.697 105.535 218.776 104.763 219.859 103.994L219.28 103.178C220.361 102.41 221.445 101.646 222.532 100.886L223.105 101.705C224.19 100.947 225.278 100.192 226.369 99.4402L225.802 98.6166C226.894 97.8639 227.99 97.1149 229.089 96.3697L229.651 97.1974C230.748 96.4536 231.848 95.7135 232.951 94.9772L232.396 94.1455C233.501 93.4078 234.609 92.674 235.72 91.9439L236.269 92.7796C237.378 92.0509 238.49 91.326 239.605 90.6049L239.062 89.7652C240.177 89.0441 241.295 88.3268 242.416 87.6133L242.953 88.4569C244.069 87.7464 245.188 87.0396 246.31 86.3367L245.779 85.4893C246.904 84.7851 248.031 84.0847 249.161 83.3882L249.685 84.2395C250.813 83.5443 251.944 82.8529 253.078 82.1654L252.559 81.3103C253.695 80.6215 254.833 79.9366 255.975 79.2556L256.487 80.1144C257.627 79.4346 258.769 78.7588 259.914 78.0868L259.408 77.2243C260.555 76.5511 261.705 75.8819 262.857 75.2165L263.357 76.0826C264.503 75.4212 265.652 74.7637 266.803 74.1101L266.309 73.2405C267.462 72.5859 268.618 71.9353 269.777 71.2886L270.264 72.1618C271.42 71.5163 272.58 70.8747 273.741 70.237L273.26 69.3604C274.424 68.7216 275.591 68.0867 276.76 67.4559L277.235 68.336C278.403 67.7062 279.573 67.0805 280.745 66.4587L280.277 65.5752C281.451 64.9523 282.629 64.3334 283.809 63.7185L284.271 64.6054C285.447 63.9927 286.625 63.3841 287.806 62.7795L287.35 61.8894C288.53 61.2855 289.712 60.6856 290.897 60.0898L291.346 60.9831C292.529 60.3883 293.714 59.7976 294.902 59.2108L294.459 58.3143C295.649 57.7264 296.841 57.1427 298.036 56.5629L298.472 57.4626C299.665 56.8839 300.861 56.3093 302.058 55.7387L301.628 54.8359C302.828 54.2643 304.031 53.6968 305.236 53.1333L305.66 54.0392C306.863 53.4768 308.068 52.9184 309.276 52.3642L308.859 51.4553C310.064 50.9024 311.271 50.3537 312.481 49.809L312.891 50.7208C314.098 50.1777 315.306 49.6387 316.517 49.1037L316.113 48.189C317.327 47.6531 318.542 47.1213 319.76 46.5936L320.158 47.5112C321.374 46.9844 322.592 46.4618 323.813 45.9433L323.422 45.0229C324.645 44.5034 325.87 43.9882 327.098 43.477L327.482 44.4002C328.708 43.89 329.935 43.3839 331.165 42.882L330.788 41.9561C332.019 41.4539 333.252 40.9558 334.487 40.462L334.859 41.3905C336.086 40.8999 337.316 40.4134 338.548 39.931L338.183 38.9999C339.418 38.5167 340.654 38.0376 341.893 37.5628L342.251 38.4965C343.488 38.0225 344.726 37.5527 345.967 37.087L345.616 36.1508C346.859 35.6843 348.105 35.222 349.353 34.764L349.697 35.7027C350.943 35.2455 352.19 34.7924 353.44 34.3436L353.102 33.4025C354.355 32.9529 355.609 32.5075 356.865 32.0664L357.197 33.01C358.447 32.5712 359.699 32.1367 360.953 31.7063L360.628 30.7605C361.881 30.3307 363.136 29.9051 364.393 29.4837L364.711 30.4319C365.965 30.0113 367.222 29.5949 368.481 29.1828L368.17 28.2324C369.431 27.8196 370.694 27.411 371.959 27.0067L372.264 27.9592C373.527 27.5556 374.792 27.1563 376.059 26.7612L375.762 25.8066C377.031 25.4108 378.302 25.0194 379.576 24.6322L379.867 25.589C381.138 25.2025 382.411 24.8204 383.687 24.4425L383.403 23.4837C384.673 23.1075 385.944 22.7355 387.218 22.3678L387.496 23.3286C388.766 22.962 390.038 22.5996 391.312 22.2416L391.042 21.2789C392.318 20.9202 393.597 20.5658 394.877 20.2158L395.141 21.1804C396.419 20.8309 397.699 20.4858 398.98 20.145L398.724 19.1786C400.008 18.8372 401.294 18.5001 402.582 18.1674L402.832 19.1356C404.118 18.8035 405.405 18.4757 406.695 18.1523L406.451 17.1824C407.742 16.8587 409.034 16.5393 410.329 16.2244L410.565 17.196C411.849 16.8838 413.134 16.5759 414.42 16.2723L414.191 15.299C415.48 14.9949 416.771 14.6951 418.064 14.3997L418.286 15.3746C419.577 15.0797 420.869 14.7891 422.163 14.503L421.947 13.5266C423.243 13.2399 424.541 12.9576 425.841 12.6797L426.05 13.6576C427.348 13.3801 428.647 13.1071 429.948 12.8385L429.746 11.8591C431.049 11.59 432.354 11.3253 433.661 11.0651L433.856 12.0458C435.157 11.7867 436.46 11.532 437.765 11.2817L437.576 10.2996C438.875 10.0503 440.176 9.80536 441.479 9.56482L441.66 10.5482C442.96 10.3081 444.262 10.0723 445.566 9.84101L445.391 8.85639C446.697 8.62465 448.004 8.39732 449.313 8.1744L449.481 9.16021C450.788 8.93769 452.096 8.71958 453.406 8.5059L453.245 7.51894C454.557 7.30489 455.871 7.09528 457.186 6.89012L457.341 7.87818C458.654 7.67338 459.968 7.47303 461.285 7.27715L461.137 6.28804C462.451 6.09264 463.765 5.90168 465.081 5.71517L465.221 6.70527C466.529 6.52001 467.838 6.33915 469.148 6.1627L469.014 5.17165C470.327 4.9949 471.641 4.82257 472.957 4.65468L473.083 5.64664C474.396 5.47904 475.711 5.31588 477.027 5.15717L476.908 4.16436C478.226 4.00537 479.546 3.85084 480.868 3.70078L480.98 4.69439C482.3 4.5446 483.62 4.39926 484.942 4.25842L484.836 3.26404C486.161 3.12295 487.486 2.98635 488.813 2.85425L488.912 3.84933C490.23 3.71818 491.549 3.59148 492.87 3.46925L492.777 2.4735C494.094 2.35162 495.412 2.23416 496.732 2.12116L496.817 3.11751C498.134 3.0047 499.452 2.89633 500.772 2.79242L500.694 1.7955C502.016 1.69141 503.339 1.59178 504.664 1.49664L504.736 2.49407C506.058 2.39909 507.382 2.30858 508.707 2.22256L508.642 1.22466C509.97 1.13849 511.298 1.05682 512.628 0.979662L512.686 1.97798C514.014 1.90096 515.343 1.82844 516.673 1.76044L516.622 0.761743C517.946 0.694041 519.272 0.630814 520.599 0.572075L520.643 1.5711C521.961 1.51274 523.281 1.45882 524.602 1.40936L524.564 0.410059C525.887 0.36051 527.211 0.315424 528.537 0.274815L528.567 1.27435C529.89 1.23381 531.215 1.19774 532.54 1.16615L532.516 0.166435C533.844 0.134796 535.173 0.10765 536.503 0.085012L536.52 1.08487C537.848 1.06227 539.177 1.04417 540.507 1.03059L540.497 0.030639C541.829 0.0170332 543.163 0.00795112 544.497 0.00340817L544.501 1.0034C545.167 1.00113 545.833 1 546.5 1C547.166 1 547.832 1.00113 548.498 1.0034L548.501 0.0034036C549.836 0.00794347 551.17 0.0170224 552.502 0.030625L552.492 1.03057C553.822 1.04415 555.151 1.06225 556.479 1.08484L556.496 0.0849891C557.826 0.107624 559.155 0.134766 560.482 0.166402L560.459 1.16612C561.784 1.1977 563.108 1.23377 564.431 1.2743L564.462 0.274773C565.787 0.315379 567.112 0.360463 568.435 0.410008L568.397 1.40931C569.718 1.45877 571.037 1.51268 572.356 1.57104L572.4 0.572016C573.727 0.630752 575.052 0.693978 576.377 0.761678L576.326 1.76037C577.656 1.82837 578.985 1.90089 580.313 1.97791L580.371 0.979585C581.701 1.05674 583.029 1.13841 584.357 1.22458L584.292 2.22247C585.617 2.30849 586.941 2.399 588.263 2.49398L588.335 1.49655C589.659 1.59169 590.983 1.69131 592.305 1.7954L592.227 2.79232C593.546 2.89623 594.865 3.00459 596.182 3.1174L596.267 2.12105C597.587 2.23405 598.905 2.35151 600.221 2.47339L600.129 3.46914C601.45 3.59137 602.769 3.71806 604.086 3.84921L604.185 2.85413C605.513 2.98622 606.838 3.12282 608.163 3.26392L608.057 4.25829C609.379 4.39913 610.699 4.54446 612.018 4.69426L612.131 3.70065C613.453 3.8507 614.773 4.00523 616.091 4.16422L615.971 5.15703C617.288 5.31574 618.602 5.47889 619.916 5.64649L620.042 4.65453C621.358 4.82242 622.672 4.99475 623.984 5.1715L623.851 6.16255C625.161 6.339 626.47 6.51986 627.777 6.70511L627.918 5.71501C629.234 5.90151 630.548 6.09247 631.861 6.28787L631.714 7.27698C633.03 7.47286 634.345 7.67321 635.658 7.878L635.812 6.88994C637.128 7.0951 638.442 7.30472 639.754 7.51877L639.593 8.50572C640.903 8.7194 642.211 8.9375 643.518 9.16002L643.686 8.17422C644.995 8.39713 646.302 8.62446 647.608 8.8562L647.433 9.84081C648.737 10.0722 650.039 10.3079 651.339 10.548L651.52 9.56463C652.823 9.80516 654.124 10.0501 655.423 10.2994L655.234 11.2815C656.539 11.5318 657.842 11.7865 659.143 12.0456L659.338 11.0649C660.645 11.3251 661.95 11.5898 663.253 11.8589L663.051 12.8383C664.352 13.1069 665.651 13.3799 666.949 13.6573L667.158 12.6794C668.458 12.9574 669.756 13.2397 671.052 13.5263L670.836 14.5027C672.13 14.7889 673.422 15.0795 674.713 15.3743L674.935 14.3995C676.228 14.6949 677.519 14.9947 678.808 15.2988L678.579 16.2721C679.865 16.5756 681.151 16.8836 682.434 17.1958L682.67 16.2241C683.965 16.5391 685.257 16.8584 686.548 17.1821L686.304 18.1521C687.594 18.4755 688.882 18.8033 690.167 19.1354L690.417 18.1672C691.705 18.4999 692.991 18.8369 694.276 19.1783L694.019 20.1447C695.3 20.4855 696.58 20.8307 697.858 21.1801L698.122 20.2155C699.403 20.5656 700.681 20.9199 701.957 21.2786L701.687 22.2413C702.961 22.5994 704.233 22.9617 705.504 23.3284L705.781 22.3676C707.055 22.7353 708.327 23.1072 709.597 23.4835L709.312 24.4423C710.588 24.8201 711.861 25.2023 713.132 25.5887L713.423 24.632C714.697 25.0191 715.968 25.4106 717.238 25.8063L716.94 26.761C718.207 27.156 719.472 27.5554 720.735 27.959L721.04 27.0064C722.305 27.4108 723.568 27.8193 724.829 28.2322L724.518 29.1826C725.777 29.5947 727.034 30.011 728.289 30.4316L728.607 29.4835C729.864 29.9048 731.118 30.3304 732.371 30.7602L732.047 31.7061C733.301 32.1364 734.553 32.571 735.803 33.0097L736.134 32.0662C737.39 32.5073 738.645 32.9526 739.897 33.4022L739.559 34.3434C740.809 34.7922 742.057 35.2452 743.302 35.7024L743.647 34.7637C744.894 35.2218 746.14 35.684 747.383 36.1505L747.032 37.0868C748.273 37.5524 749.512 38.0222 750.748 38.4963L751.106 37.5625C752.345 38.0374 753.582 38.5164 754.816 38.9996L754.451 39.9308C755.683 40.4131 756.913 40.8996 758.141 41.3903L758.512 40.4617C759.747 40.9556 760.981 41.4536 762.212 41.9559L761.834 42.8818C763.064 43.3837 764.292 43.8897 765.517 44.4L765.902 43.4768C767.129 43.9879 768.355 44.5032 769.578 45.0226L769.187 45.9431C770.407 46.4615 771.626 46.9842 772.841 47.5109L773.239 46.5933C774.457 47.121 775.673 47.6528 776.886 48.1887L776.482 49.1035C777.693 49.6384 778.902 50.1775 780.108 50.7206L780.519 49.8087C781.729 50.3534 782.936 50.9022 784.141 51.455L783.724 52.3639C784.931 52.9182 786.137 53.4765 787.34 54.039L787.763 53.1331C788.968 53.6965 790.171 54.2641 791.371 54.8357L790.941 55.7385C792.139 56.3091 793.334 56.8837 794.527 57.4624L794.964 56.5627C796.159 57.1424 797.351 57.7262 798.541 58.314L798.098 59.2106C799.286 59.7973 800.471 60.3881 801.653 60.9829L802.103 60.0895C803.287 60.6854 804.47 61.2852 805.649 61.8891L805.193 62.7792C806.374 63.3839 807.553 63.9925 808.729 64.6051L809.191 63.7183C810.371 64.3332 811.548 64.9521 812.723 65.575L812.254 66.4585C813.427 67.0802 814.597 67.706 815.764 68.3357L816.239 67.4556C817.408 68.0865 818.575 68.7213 819.739 69.3601L819.258 70.2368C820.42 70.8744 821.579 71.516 822.736 72.1615L823.223 71.2883C824.382 71.935 825.537 72.5857 826.69 73.2402L826.197 74.1099C827.348 74.7635 828.497 75.4209 829.642 76.0823L830.142 75.2163C831.295 75.8816 832.445 76.5509 833.592 77.2241L833.086 78.0865C834.231 78.7585 835.373 79.4344 836.512 80.1141L837.025 79.2554C838.166 79.9364 839.305 80.6213 840.44 81.31L839.922 82.1651C841.055 82.8526 842.186 83.544 843.314 84.2392L843.839 83.3879C844.969 84.0844 846.096 84.7848 847.22 85.489L846.689 86.3364C847.811 87.0394 848.931 87.7461 850.047 88.4566L850.584 87.6131C851.705 88.3265 852.823 89.0438 853.938 89.7649L853.395 90.6046C854.51 91.3257 855.622 92.0507 856.731 92.7794L857.28 91.9436C858.391 92.6737 859.499 93.4075 860.604 94.1452L860.049 94.9769C861.152 95.7132 862.252 96.4533 863.349 97.1971L863.91 96.3694C865.009 97.1146 866.105 97.8636 867.198 98.6163L866.631 99.4398C867.722 100.191 868.81 100.946 869.894 101.705L870.468 100.886C871.555 101.646 872.639 102.41 873.72 103.178L873.141 103.993C874.223 104.762 875.303 105.535 876.379 106.312L876.964 105.501C878.043 106.278 879.118 107.06 880.19 107.845L879.599 108.652C880.669 109.436 881.736 110.224 882.8 111.015L883.396 110.212C884.462 111.005 885.525 111.801 886.584 112.601L885.981 113.399C887.039 114.198 888.093 115 889.144 115.806L889.752 115.012C890.805 115.82 891.855 116.631 892.901 117.445L892.287 118.234C893.334 119.049 894.377 119.867 895.417 120.689L896.037 119.905C897.081 120.729 898.121 121.557 899.158 122.389L898.532 123.169C899.567 123.999 900.598 124.833 901.626 125.67L902.258 124.895C903.288 125.734 904.315 126.576 905.338 127.422L904.701 128.193C905.723 129.037 906.741 129.885 907.756 130.737L908.398 129.971C909.415 130.824 910.428 131.681 911.438 132.541L910.79 133.302C911.798 134.161 912.804 135.024 913.805 135.89L914.459 135.133C915.465 136.003 916.468 136.876 917.467 137.753L916.808 138.504C917.805 139.379 918.799 140.258 919.789 141.14L920.454 140.393C921.446 141.277 922.435 142.164 923.42 143.055L922.75 143.797C923.733 144.686 924.713 145.578 925.69 146.474L926.366 145.737C927.344 146.634 928.318 147.535 929.29 148.44L928.608 149.172C929.577 150.074 930.543 150.98 931.505 151.89L932.192 151.163C933.158 152.076 934.12 152.992 935.079 153.912L934.387 154.633C935.344 155.552 936.298 156.474 937.248 157.399L937.946 156.683C938.898 157.61 939.846 158.54 940.791 159.474L940.088 160.185C941.031 161.117 941.971 162.052 942.906 162.991L943.615 162.285C944.552 163.225 945.486 164.169 946.416 165.116L945.702 165.817C946.631 166.762 947.555 167.711 948.476 168.662L949.195 167.967C950.118 168.921 951.038 169.879 951.954 170.84L951.23 171.53C952.145 172.49 953.057 173.454 953.965 174.421L954.694 173.736C955.603 174.705 956.509 175.677 957.411 176.652L956.677 177.331C957.577 178.305 958.474 179.281 959.367 180.261L960.106 179.588C961 180.569 961.891 181.554 962.778 182.542L962.033 183.21C962.919 184.196 963.8 185.186 964.677 186.178L965.426 185.516C966.305 186.51 967.181 187.508 968.052 188.509L967.298 189.166C968.169 190.166 969.036 191.17 969.899 192.176L970.658 191.525C971.523 192.534 972.384 193.546 973.241 194.561L972.477 195.206C973.333 196.219 974.184 197.235 975.032 198.255L975.801 197.615C976.65 198.637 977.495 199.661 978.336 200.688L977.562 201.322C978.402 202.347 979.238 203.376 980.069 204.408L980.848 203.78C981.681 204.813 982.51 205.85 983.336 206.89L982.552 207.511C983.376 208.55 984.197 209.591 985.013 210.636L985.801 210.02C986.619 211.067 987.433 212.117 988.243 213.17L987.45 213.779C988.258 214.83 989.063 215.884 989.863 216.941L990.66 216.338C991.462 217.396 992.259 218.458 993.053 219.523L992.251 220.121C993.043 221.184 993.831 222.249 994.615 223.318L995.421 222.727C996.206 223.798 996.987 224.871 997.764 225.948L996.953 226.533C997.729 227.608 998.5 228.685 999.267 229.766L1000.08 229.187C1000.85 230.27 1001.62 231.356 1002.38 232.445L1001.56 233.018C1002.32 234.105 1003.07 235.194 1003.82 236.287L1004.65 235.721C1005.4 236.815 1006.15 237.913 1006.89 239.013L1006.06 239.573C1006.8 240.671 1007.54 241.772 1008.28 242.876L1009.11 242.323C1009.84 243.429 1010.57 244.538 1011.3 245.649L1010.46 246.196C1011.19 247.306 1011.91 248.418 1012.63 249.533L1013.47 248.993C1014.18 250.11 1014.9 251.23 1015.61 252.353L1014.76 252.887C1015.47 254.007 1016.17 255.131 1016.87 256.257L1017.72 255.729C1018.42 256.857 1019.12 257.988 1019.81 259.122L1018.96 259.643C1019.65 260.775 1020.33 261.909 1021.01 263.046L1021.87 262.531C1022.55 263.671 1023.23 264.812 1023.91 265.957L1023.05 266.464C1023.72 267.607 1024.39 268.751 1025.05 269.899L1025.92 269.398C1026.58 270.548 1027.24 271.7 1027.9 272.855L1027.03 273.349C1027.68 274.501 1028.33 275.655 1028.98 276.813L1029.85 276.326C1030.5 277.485 1031.14 278.647 1031.78 279.812L1030.9 280.292C1031.54 281.455 1032.17 282.62 1032.8 283.787L1033.68 283.314C1034.31 284.484 1034.93 285.656 1035.55 286.832L1034.67 287.298C1035.28 288.471 1035.9 289.646 1036.51 290.824L1037.39 290.364C1038.01 291.544 1038.61 292.727 1039.21 293.912L1038.32 294.364C1038.92 295.545 1039.51 296.729 1040.1 297.915L1041 297.47C1041.59 298.658 1042.18 299.849 1042.76 301.042L1041.86 301.481C1042.44 302.672 1043.02 303.865 1043.59 305.061L1044.49 304.63C1045.06 305.828 1045.63 307.029 1046.19 308.232L1045.29 308.656C1045.85 309.856 1046.41 311.059 1046.96 312.265L1047.87 311.848C1048.42 313.056 1048.97 314.266 1049.52 315.479L1048.61 315.889C1049.15 317.097 1049.69 318.308 1050.22 319.521L1051.13 319.119C1051.67 320.333 1052.2 321.55 1052.72 322.77L1051.8 323.165C1052.33 324.382 1052.84 325.601 1053.36 326.822L1054.28 326.434C1054.79 327.658 1055.3 328.885 1055.81 330.113L1054.89 330.494C1055.39 331.72 1055.89 332.948 1056.38 334.178L1057.31 333.806C1057.81 335.039 1058.3 336.274 1058.78 337.511L1057.85 337.877C1058.34 339.111 1058.82 340.347 1059.29 341.586L1060.23 341.228C1060.7 342.466 1061.17 343.706 1061.64 344.949L1060.7 345.299C1061.16 346.539 1061.62 347.781 1062.08 349.026L1063.02 348.683C1063.47 349.929 1063.92 351.178 1064.37 352.43L1063.42 352.765C1063.87 354.014 1064.31 355.264 1064.74 356.517L1065.69 356.189C1066.12 357.445 1066.56 358.702 1066.98 359.962L1066.03 360.282C1066.46 361.539 1066.88 362.799 1067.29 364.06L1068.24 363.747C1068.66 365.007 1069.07 366.268 1069.47 367.531L1068.52 367.836C1068.92 369.097 1069.32 370.359 1069.72 371.623L1070.67 371.326C1071.07 372.592 1071.46 373.861 1071.84 375.132L1070.88 375.422C1071.27 376.69 1071.65 377.96 1072.02 379.232L1072.98 378.95C1073.35 380.225 1073.72 381.502 1074.09 382.781L1073.13 383.055C1073.49 384.331 1073.85 385.609 1074.2 386.889L1075.17 386.623C1075.52 387.903 1075.87 389.184 1076.21 390.468L1075.25 390.727C1075.59 392.004 1075.93 393.283 1076.26 394.564L1077.22 394.313C1077.56 395.597 1077.89 396.882 1078.21 398.17L1077.24 398.413C1077.56 399.697 1077.88 400.984 1078.19 402.272L1079.16 402.037C1079.47 403.328 1079.78 404.621 1080.08 405.916L1079.11 406.143C1079.26 406.786 1079.41 407.429 1079.55 408.073C1079.7 408.723 1079.85 409.374 1080 410.025L1080.97 409.805C1081.26 411.104 1081.55 412.404 1081.83 413.706L1080.86 413.917C1081.13 415.209 1081.41 416.502 1081.68 417.797L1082.66 417.594C1082.93 418.891 1083.19 420.19 1083.45 421.49L1082.47 421.686C1082.6 422.354 1082.74 423.023 1082.87 423.693C1082.99 424.323 1083.11 424.954 1083.23 425.585L1084.21 425.397C1084.46 426.701 1084.71 428.007 1084.95 429.314L1083.96 429.494C1084.2 430.798 1084.43 432.105 1084.66 433.413L1085.65 433.241C1085.88 434.552 1086.1 435.864 1086.32 437.178L1085.33 437.342C1085.55 438.649 1085.76 439.958 1085.97 441.269L1086.95 441.113C1087.16 442.42 1087.36 443.729 1087.56 445.04L1086.57 445.187C1086.76 446.495 1086.95 447.805 1087.14 449.115L1088.13 448.976C1088.32 450.289 1088.5 451.604 1088.67 452.921L1087.68 453.053C1087.85 454.367 1088.02 455.682 1088.19 456.999L1089.18 456.875C1089.34 458.195 1089.5 459.516 1089.66 460.839L1088.67 460.955C1088.82 462.275 1088.97 463.597 1089.11 464.92L1090.11 464.812C1090.25 466.128 1090.39 467.445 1090.52 468.764L1089.52 468.864C1089.66 470.178 1089.78 471.493 1089.9 472.81L1090.9 472.718C1091.02 474.038 1091.14 475.359 1091.25 476.682L1090.25 476.765C1090.36 478.085 1090.47 479.406 1090.57 480.729L1091.57 480.653C1091.67 481.978 1091.76 483.305 1091.85 484.633L1090.86 484.701C1090.95 486.026 1091.03 487.353 1091.11 488.681L1092.11 488.621C1092.19 489.949 1092.26 491.278 1092.33 492.609L1091.33 492.66C1091.4 493.977 1091.46 495.296 1091.52 496.615L1092.52 496.571C1092.58 497.893 1092.63 499.217 1092.68 500.542L1091.68 500.577C1091.73 501.9 1091.77 503.223 1091.81 504.547L1092.81 504.519C1092.84 505.847 1092.87 507.175 1092.9 508.505L1091.9 508.525C1091.93 509.852 1091.95 511.18 1091.96 512.509L1092.96 512.497Z" stroke="#98DF5D" stroke-opacity="0.4" stroke-width="2" stroke-dasharray="4 4"/>
</svg>
