<svg width="37" height="37" viewBox="0 0 37 37" fill="none" xmlns="http://www.w3.org/2000/svg">
<path d="M12.6206 6.5H11.4209C9.74074 6.5 8.90004 6.5 8.2583 6.82698C7.69381 7.1146 7.23521 7.57321 6.94759 8.13769C6.62061 8.77943 6.62061 9.62014 6.62061 11.3003V12.5M12.6206 6.5H24.6206M12.6206 6.5V3.5M24.6206 6.5H25.8209C27.5011 6.5 28.34 6.5 28.9817 6.82698C29.5462 7.1146 30.0063 7.57321 30.2939 8.13769C30.6206 8.7788 30.6206 9.61849 30.6206 11.2954V12.5M24.6206 6.5V3.5M6.62061 12.5V25.7003C6.62061 27.3804 6.62061 28.2201 6.94759 28.8618C7.23521 29.4263 7.69381 29.8857 8.2583 30.1733C8.89941 30.5 9.7391 30.5 11.416 30.5H25.8252C27.5021 30.5 28.3406 30.5 28.9817 30.1733C29.5462 29.8857 30.0063 29.4263 30.2939 28.8618C30.6206 28.2207 30.6206 27.3822 30.6206 25.7054V12.5M6.62061 12.5H30.6206M24.6206 24.5H24.6236L24.6235 24.503L24.6206 24.5029V24.5ZM18.6206 24.5H18.6236L18.6235 24.503L18.6206 24.5029V24.5ZM12.6206 24.5H12.6236L12.6235 24.503L12.6206 24.5029V24.5ZM24.6235 18.5V18.503L24.6206 18.5029V18.5H24.6235ZM18.6206 18.5H18.6236L18.6235 18.503L18.6206 18.5029V18.5ZM12.6206 18.5H12.6236L12.6235 18.503L12.6206 18.5029V18.5Z" stroke="white" stroke-width="2.00829" stroke-linecap="round" stroke-linejoin="round"/>
</svg>
