<svg width="24" height="24" viewBox="0 0 24 24" fill="none" xmlns="http://www.w3.org/2000/svg">
<path d="M4.31802 17.0602C3 15.9537 3 15.1173 3 11.5556C3 7.99383 3 6.21297 4.31802 5.10649C5.63604 4 7.75736 4 12 4C16.2426 4 18.364 4 19.682 5.10649C21 6.21297 21 7.99383 21 11.5556C21 15.1173 21 15.9537 19.682 17.0602C18.364 18.1667 16.2426 18.1667 12 18.1667C9.74147 18.1667 8.57976 19.8077 6.6 21V17.9667C5.61546 17.813 4.89087 17.5411 4.31802 17.0602Z" stroke="#F2F4FE" stroke-width="2" stroke-linecap="round" stroke-linejoin="round"/>
<path d="M12 8L12 14" stroke="#F2F4FE" stroke-width="2" stroke-linecap="round"/>
<path d="M15 11H9" stroke="#F2F4FE" stroke-width="2" stroke-linecap="round"/>
</svg>
