<svg width="37" height="36" viewBox="0 0 37 36" fill="none" xmlns="http://www.w3.org/2000/svg">
<g clip-path="url(#clip0_1095_209)">
<path d="M18.6201 1.5V34.5" stroke="white" stroke-width="2.66667" stroke-linecap="round" stroke-linejoin="round"/>
<path d="M26.1201 7.5H14.8701C13.4777 7.5 12.1424 8.05312 11.1578 9.03769C10.1732 10.0223 9.62012 11.3576 9.62012 12.75C9.62012 14.1424 10.1732 15.4777 11.1578 16.4623C12.1424 17.4469 13.4777 18 14.8701 18H22.3701C23.7625 18 25.0979 18.5531 26.0824 19.5377C27.067 20.5223 27.6201 21.8576 27.6201 23.25C27.6201 24.6424 27.067 25.9777 26.0824 26.9623C25.0979 27.9469 23.7625 28.5 22.3701 28.5H9.62012" stroke="white" stroke-width="2.66667" stroke-linecap="round" stroke-linejoin="round"/>
</g>
<defs>
<clipPath id="clip0_1095_209">
<rect width="36" height="36" fill="white" transform="translate(0.620117)"/>
</clipPath>
</defs>
</svg>
