<svg width="186" height="186" viewBox="0 0 186 186" fill="none" xmlns="http://www.w3.org/2000/svg">
<path fill-rule="evenodd" clip-rule="evenodd" d="M170.325 93C170.325 135.705 135.705 170.325 93 170.325C50.2946 170.325 15.675 135.705 15.675 93C15.675 50.2946 50.2946 15.675 93 15.675C135.705 15.675 170.325 50.2946 170.325 93ZM186 93C186 144.362 144.362 186 93 186C41.6375 186 0 144.362 0 93C0 41.6375 41.6375 0 93 0C144.362 0 186 41.6375 186 93ZM92.995 25.5955C96.6021 25.5955 99.5262 28.5196 99.5262 32.1268V46.34C107.795 47.1814 115.723 49.0737 121.407 50.9853C124.826 52.1352 126.665 55.8389 125.515 59.2578C124.365 62.6768 120.661 64.5161 117.243 63.3662C109.687 60.8252 97.6405 58.4031 87.5131 59.0569C82.4404 59.3844 78.4687 60.448 75.8122 62.1026C73.441 63.5796 71.9578 65.5875 71.5696 68.856C71.0863 72.9246 71.6282 75.6238 72.4916 77.4875C73.347 79.334 74.7557 80.8746 76.8802 82.2425C81.5064 85.221 88.3538 86.7328 96.7269 88.3764L97.5392 88.5357L97.5394 88.5357C101.253 89.2631 105.194 90.0353 108.854 91.0244C112.77 92.0826 116.807 93.4994 120.283 95.6887C123.854 97.9379 127.005 101.118 128.705 105.641C130.382 110.102 130.363 115.116 129.032 120.552C127.183 128.106 121.911 132.991 115.792 135.888C110.886 138.21 105.202 139.394 99.5262 139.864V153.872C99.5262 157.479 96.6021 160.403 92.995 160.403C89.3879 160.403 86.4637 157.479 86.4637 153.872V139.843C75.8304 139.025 65.5268 136.43 59.5161 133.262C56.325 131.58 55.1014 127.63 56.7831 124.439C58.4648 121.248 62.415 120.024 65.6061 121.706C70.8628 124.476 83.4375 127.396 95.4141 127.017C101.323 126.83 106.468 125.849 110.204 124.081C113.795 122.381 115.671 120.195 116.345 117.445C117.254 113.731 116.967 111.538 116.478 110.237C116.013 108.998 115.101 107.863 113.321 106.741C111.446 105.561 108.845 104.553 105.446 103.634C102.25 102.771 98.74 102.082 94.8999 101.329L94.2109 101.194L94.1221 101.177C86.3972 99.6606 76.9122 97.7988 69.809 93.2255C66.0552 90.8087 62.7409 87.515 60.6392 82.9783C58.5454 78.4589 57.8961 73.2262 58.5982 67.3153C59.485 59.8498 63.3966 54.4467 68.9062 51.015C74.0717 47.7976 80.3816 46.4489 86.4637 46.0354V32.1268C86.4637 28.5196 89.3879 25.5955 92.995 25.5955Z" fill="url(#paint0_linear_1550_9354)"/>
<defs>
<linearGradient id="paint0_linear_1550_9354" x1="93" y1="0" x2="93" y2="186" gradientUnits="userSpaceOnUse">
<stop offset="0.378319" stop-color="#088C59"/>
<stop offset="0.742711" stop-color="#03301F" stop-opacity="0"/>
</linearGradient>
</defs>
</svg>
