<svg width="24" height="25" viewBox="0 0 24 25" xmlns="http://www.w3.org/2000/svg">
<path d="M20 6.1001C20 5.54005 19.9996 5.25981 19.8906 5.0459C19.7948 4.85774 19.6423 4.70487 19.4542 4.60899C19.2403 4.5 18.9597 4.5 18.3996 4.5H5.59961C5.03956 4.5 4.75981 4.5 4.5459 4.60899C4.35774 4.70487 4.20487 4.85774 4.10899 5.0459C4 5.25981 4 5.54005 4 6.1001V6.83736C4 7.08195 4 7.20433 4.02763 7.31942C4.05213 7.42146 4.09263 7.51893 4.14746 7.6084C4.20928 7.70928 4.29591 7.79591 4.46875 7.96875L9.53149 13.0315C9.70443 13.2044 9.79044 13.2904 9.85228 13.3914C9.90711 13.4808 9.94816 13.5786 9.97266 13.6807C10 13.7946 10 13.9155 10 14.1552V18.911C10 19.7682 10 20.1971 10.1805 20.4552C10.3382 20.6806 10.5814 20.831 10.8535 20.8712C11.1651 20.9172 11.5487 20.7257 12.3154 20.3424L13.1154 19.9424C13.4365 19.7819 13.5966 19.7013 13.7139 19.5815C13.8176 19.4756 13.897 19.3485 13.9453 19.2084C14 19.0499 14 18.87 14 18.511V14.1626C14 13.918 14 13.7958 14.0276 13.6807C14.0521 13.5786 14.0926 13.4808 14.1475 13.3914C14.2089 13.2911 14.2947 13.2053 14.4653 13.0347L14.4688 13.0315L19.5315 7.96875C19.7044 7.7958 19.7904 7.70932 19.8523 7.6084C19.9071 7.51893 19.9482 7.42146 19.9727 7.31942C20 7.20551 20 7.08444 20 6.8448V6.1001Z" stroke-width="2" stroke-linecap="round" stroke-linejoin="round"/>
</svg>
