<svg width="24" height="25" viewBox="0 0 24 25" fill="none" xmlns="http://www.w3.org/2000/svg">
<g clip-path="url(#clip0_1127_9891)">
<path d="M12 3.13311C15.2063 3.13311 15.5859 3.14717 16.8469 3.20342C18.0188 3.25498 18.6516 3.45186 19.0734 3.61592C19.6313 3.83154 20.0344 4.09404 20.4516 4.51123C20.8734 4.93311 21.1313 5.33154 21.3469 5.88936C21.5109 6.31123 21.7078 6.94873 21.7594 8.11592C21.8156 9.38154 21.8297 9.76123 21.8297 12.9628C21.8297 16.169 21.8156 16.5487 21.7594 17.8097C21.7078 18.9815 21.5109 19.6144 21.3469 20.0362C21.1313 20.594 20.8687 20.9972 20.4516 21.4144C20.0297 21.8362 19.6313 22.094 19.0734 22.3097C18.6516 22.4737 18.0141 22.6706 16.8469 22.7222C15.5813 22.7784 15.2016 22.7925 12 22.7925C8.79375 22.7925 8.41406 22.7784 7.15313 22.7222C5.98125 22.6706 5.34844 22.4737 4.92656 22.3097C4.36875 22.094 3.96563 21.8315 3.54844 21.4144C3.12656 20.9925 2.86875 20.594 2.65313 20.0362C2.48906 19.6144 2.29219 18.9769 2.24063 17.8097C2.18438 16.544 2.17031 16.1644 2.17031 12.9628C2.17031 9.75654 2.18438 9.37685 2.24063 8.11592C2.29219 6.94404 2.48906 6.31123 2.65313 5.88936C2.86875 5.33154 3.13125 4.92842 3.54844 4.51123C3.97031 4.08936 4.36875 3.83154 4.92656 3.61592C5.34844 3.45186 5.98594 3.25498 7.15313 3.20342C8.41406 3.14717 8.79375 3.13311 12 3.13311ZM12 0.972168C8.74219 0.972168 8.33438 0.98623 7.05469 1.04248C5.77969 1.09873 4.90313 1.30498 4.14375 1.60029C3.35156 1.90967 2.68125 2.31748 2.01563 2.98779C1.34531 3.65342 0.9375 4.32373 0.628125 5.11123C0.332812 5.87529 0.126563 6.74717 0.0703125 8.02217C0.0140625 9.30654 0 9.71436 0 12.9722C0 16.23 0.0140625 16.6378 0.0703125 17.9175C0.126563 19.1925 0.332812 20.069 0.628125 20.8284C0.9375 21.6206 1.34531 22.2909 2.01563 22.9565C2.68125 23.6222 3.35156 24.0347 4.13906 24.3394C4.90313 24.6347 5.775 24.8409 7.05 24.8972C8.32969 24.9534 8.7375 24.9675 11.9953 24.9675C15.2531 24.9675 15.6609 24.9534 16.9406 24.8972C18.2156 24.8409 19.0922 24.6347 19.8516 24.3394C20.6391 24.0347 21.3094 23.6222 21.975 22.9565C22.6406 22.2909 23.0531 21.6206 23.3578 20.8331C23.6531 20.069 23.8594 19.1972 23.9156 17.9222C23.9719 16.6425 23.9859 16.2347 23.9859 12.9769C23.9859 9.71904 23.9719 9.31123 23.9156 8.03154C23.8594 6.75654 23.6531 5.87998 23.3578 5.12061C23.0625 4.32373 22.6547 3.65342 21.9844 2.98779C21.3188 2.32217 20.6484 1.90967 19.8609 1.60498C19.0969 1.30967 18.225 1.10342 16.95 1.04717C15.6656 0.98623 15.2578 0.972168 12 0.972168Z" fill="#F2F4FE"/>
<path d="M12.0005 6.80859C8.59736 6.80859 5.83643 9.56953 5.83643 12.9727C5.83643 16.3758 8.59736 19.1367 12.0005 19.1367C15.4036 19.1367 18.1646 16.3758 18.1646 12.9727C18.1646 9.56953 15.4036 6.80859 12.0005 6.80859ZM12.0005 16.9711C9.79268 16.9711 8.00205 15.1805 8.00205 12.9727C8.00205 10.7648 9.79268 8.97422 12.0005 8.97422C14.2083 8.97422 15.9989 10.7648 15.9989 12.9727C15.9989 15.1805 14.2083 16.9711 12.0005 16.9711Z" fill="#F2F4FE"/>
<path d="M19.8474 6.56406C19.8474 7.36094 19.2005 8.00313 18.4083 8.00313C17.6114 8.00313 16.9692 7.35625 16.9692 6.56406C16.9692 5.76719 17.6161 5.125 18.4083 5.125C19.2005 5.125 19.8474 5.77188 19.8474 6.56406Z" fill="#F2F4FE"/>
</g>
<defs>
<clipPath id="clip0_1127_9891">
<rect width="24" height="24" fill="white" transform="translate(0 0.972168)"/>
</clipPath>
</defs>
</svg>
