<svg width="251" height="64" viewBox="0 0 251 64" fill="none" xmlns="http://www.w3.org/2000/svg">
<path d="M12.1016 25.1557H19.4132L22.0683 34.1013L24.7642 25.1557H32.0759L27.1742 39.0029L29.2574 44.9258L35.507 25.1557H44.1666L33.2196 54.1572H26.3164L22.0683 43.782L17.861 54.1572H10.9579L0.0108103 25.1557H8.62957L14.92 44.9258L16.9215 39.0029L12.1016 25.1557ZM41.8849 47.6625C41.8849 46.2193 42.2798 44.953 43.0695 43.8637C43.8592 42.7472 44.9485 41.8758 46.3373 41.2495C47.7533 40.6232 49.36 40.31 51.1572 40.31C52.0014 40.31 52.7911 40.3781 53.5264 40.5143C54.2889 40.6504 54.9424 40.8547 55.487 41.127V40.4734C55.487 39.4659 55.1875 38.717 54.5884 38.2268C54.0165 37.7367 53.0771 37.4916 51.7699 37.4916C50.5718 37.4916 49.4417 37.6958 48.3796 38.1043C47.3448 38.4855 46.2556 39.0574 45.1119 39.8199L42.8653 34.9999C44.3085 34.074 45.8199 33.3932 47.3993 32.9575C49.006 32.4946 50.7215 32.2631 52.546 32.2631C55.95 32.2631 58.5778 33.0392 60.4296 34.5914C62.3085 36.1164 63.248 38.3902 63.248 41.4129V45.5793C63.248 46.3146 63.3569 46.832 63.5748 47.1315C63.7926 47.4038 64.1739 47.5672 64.7185 47.6217V54.1572C64.0922 54.2934 63.4931 54.3887 62.9212 54.4432C62.3766 54.5249 61.8864 54.5657 61.4507 54.5657C60.0619 54.5657 58.9999 54.3206 58.2647 53.8304C57.5566 53.3131 57.0937 52.5642 56.8758 51.5839L56.7125 50.8078C55.7594 52.0332 54.6565 52.9727 53.4038 53.6262C52.1512 54.2525 50.8168 54.5657 49.4008 54.5657C47.9848 54.5657 46.7049 54.2662 45.5612 53.6671C44.4175 53.068 43.5188 52.251 42.8653 51.2162C42.2117 50.1542 41.8849 48.9696 41.8849 47.6625ZM54.4659 48.1935C54.7654 47.9757 55.0105 47.7442 55.2011 47.4991C55.3917 47.2268 55.487 46.9545 55.487 46.6822V45.0891C55.0513 44.9258 54.5476 44.7896 53.9757 44.6807C53.4311 44.5718 52.9409 44.5173 52.5052 44.5173C51.5793 44.5173 50.7896 44.7488 50.1361 45.2117C49.5097 45.6746 49.1966 46.2601 49.1966 46.9681C49.1966 47.3494 49.3055 47.7034 49.5234 48.0301C49.7412 48.3297 50.0407 48.5748 50.422 48.7654C50.8032 48.9288 51.2389 49.0105 51.7291 49.0105C52.192 49.0105 52.6686 48.9424 53.1588 48.8062C53.6761 48.6429 54.1119 48.4386 54.4659 48.1935ZM89.1301 54.1572H81.3692V42.0665C81.3692 41.0044 81.1241 40.2419 80.6339 39.779C80.171 39.2888 79.6263 39.0438 79 39.0438C78.5643 39.0438 78.1014 39.1799 77.6112 39.4522C77.1211 39.6973 76.6717 40.0513 76.2633 40.5143C75.8548 40.9772 75.528 41.5082 75.2829 42.1073V54.1572H67.522V32.6716H74.5068V35.8577C75.0242 35.068 75.6778 34.4144 76.4675 33.897C77.2572 33.3524 78.1695 32.9439 79.2043 32.6716C80.2391 32.3993 81.3692 32.2631 82.5946 32.2631C84.0651 32.2631 85.236 32.5218 86.1074 33.0392C86.9788 33.5566 87.6324 34.2238 88.0681 35.0407C88.5038 35.8577 88.7897 36.7155 88.9259 37.6141C89.062 38.4855 89.1301 39.2888 89.1301 40.0241V54.1572ZM91.7482 43.3736C91.7482 41.2495 92.143 39.3569 92.9327 37.6958C93.7497 36.0075 94.8662 34.6867 96.2822 33.7336C97.6982 32.7533 99.3185 32.2631 101.143 32.2631C102.532 32.2631 103.812 32.5899 104.983 33.2435C106.154 33.8698 107.039 34.7412 107.638 35.8577V24.3388H115.399V45.5793C115.399 46.3146 115.508 46.832 115.725 47.1315C115.943 47.4038 116.325 47.5672 116.869 47.6217V54.1572C115.535 54.4295 114.446 54.5657 113.601 54.5657C112.294 54.5657 111.26 54.3206 110.497 53.8304C109.735 53.3403 109.244 52.5914 109.027 51.5839L108.863 50.8078C108.128 52.1149 107.134 53.068 105.881 53.6671C104.629 54.2662 103.294 54.5657 101.878 54.5657C100.408 54.5657 99.0462 54.2934 97.7936 53.7488C96.5681 53.2041 95.4925 52.4416 94.5666 51.4613C93.668 50.4537 92.9736 49.2692 92.4834 47.9076C91.9933 46.5188 91.7482 45.0075 91.7482 43.3736ZM107.679 45.8244V41.9848C107.433 41.3584 107.093 40.8138 106.657 40.3509C106.249 39.8607 105.786 39.4795 105.269 39.2072C104.751 38.9348 104.22 38.7987 103.676 38.7987C103.104 38.7987 102.573 38.9212 102.083 39.1663C101.62 39.4114 101.211 39.7518 100.857 40.1875C100.503 40.6232 100.231 41.127 100.04 41.6988C99.8495 42.2707 99.7542 42.8834 99.7542 43.537C99.7542 44.2177 99.8495 44.8305 100.04 45.3751C100.258 45.9197 100.558 46.3963 100.939 46.8047C101.32 47.186 101.769 47.4855 102.287 47.7034C102.804 47.9212 103.376 48.0301 104.002 48.0301C104.384 48.0301 104.738 47.9893 105.064 47.9076C105.391 47.7987 105.704 47.6625 106.004 47.4991C106.303 47.3085 106.589 47.077 106.862 46.8047C107.161 46.5052 107.433 46.1784 107.679 45.8244ZM130.636 54.5657C128.757 54.5657 127.083 54.2798 125.612 53.7079C124.142 53.1088 122.903 52.3055 121.895 51.2979C120.915 50.2904 120.166 49.133 119.648 47.8259C119.131 46.5188 118.872 45.1436 118.872 43.7003C118.872 41.6308 119.322 39.7382 120.22 38.0226C121.119 36.2798 122.44 34.891 124.182 33.8562C125.925 32.7941 128.077 32.2631 130.636 32.2631C133.196 32.2631 135.347 32.7805 137.09 33.8153C138.833 34.8501 140.154 36.2117 141.052 37.9C141.951 39.5884 142.4 41.4265 142.4 43.4144C142.4 43.8229 142.373 44.245 142.319 44.6807C142.291 45.0891 142.251 45.4568 142.196 45.7836H127.123C127.178 46.546 127.382 47.1724 127.736 47.6625C128.117 48.1255 128.58 48.4659 129.125 48.6837C129.697 48.9016 130.282 49.0105 130.881 49.0105C131.726 49.0105 132.515 48.8199 133.251 48.4386C134.013 48.0574 134.517 47.5264 134.762 46.8456L141.338 48.7246C140.766 49.8683 139.963 50.8758 138.928 51.7472C137.921 52.6186 136.723 53.3131 135.334 53.8304C133.945 54.3206 132.379 54.5657 130.636 54.5657ZM126.96 41.127H134.067C133.986 40.419 133.782 39.8199 133.455 39.3297C133.155 38.8395 132.747 38.4583 132.229 38.186C131.739 37.9137 131.167 37.7775 130.514 37.7775C129.86 37.7775 129.275 37.9137 128.757 38.186C128.267 38.4583 127.859 38.8395 127.532 39.3297C127.232 39.8199 127.042 40.419 126.96 41.127ZM159.531 39.2888C158.033 39.2888 156.671 39.4522 155.446 39.779C154.22 40.1058 153.308 40.6504 152.709 41.4129V54.1572H144.948V32.6716H152.056V36.7563C152.818 35.3131 153.771 34.2102 154.915 33.4477C156.059 32.658 157.27 32.2631 158.55 32.2631C158.85 32.2631 159.054 32.2631 159.163 32.2631C159.299 32.2631 159.422 32.2767 159.531 32.304V39.2888Z" fill="white"/>
<path fill-rule="evenodd" clip-rule="evenodd" d="M163.962 54.2849L163.962 54.2848V26.4961V26.496H172.067V26.4961H172.099V47.4162H185.536V54.2848H172.067V54.2849H163.962ZM172.391 25.2037H206.754C208.699 25.2037 211.293 22.6187 211.293 18.095C211.293 13.5712 205.782 7.10874 200.271 7.10874H159.423C158.127 7.10874 153.264 0 153.264 0H145.808C148.401 4.52374 154.561 13.5712 158.451 13.5712H196.705C200.595 13.5712 203.188 16.8025 203.188 18.7412H163.962L163.962 25.2035H172.391V25.2037Z" fill="#E7FE55"/>
<path d="M250.5 52.6358C249.776 52.9409 248.997 53.232 248.163 53.5093C247.356 53.7588 246.522 53.9529 245.659 54.0916C244.825 54.2302 244.004 54.2995 243.197 54.2995C242.001 54.2995 240.902 54.1054 239.901 53.7172C238.899 53.3013 238.092 52.6358 237.48 51.7208C236.896 50.778 236.604 49.5164 236.604 47.9359V37.9121H233.892V31.9643H236.604V25.1016H244.532V31.9643H248.831V37.9121H244.532V45.1492C244.532 45.8701 244.685 46.3831 244.992 46.6881C245.298 46.9654 245.715 47.104 246.243 47.104C246.633 47.104 247.078 47.0347 247.579 46.8961C248.079 46.7574 248.58 46.5911 249.081 46.397L250.5 52.6358Z" fill="#E7FE55"/>
<path d="M223.246 54.257C221.327 54.257 219.435 53.952 217.571 53.342C215.735 52.7042 214.177 51.7892 212.897 50.5968L215.61 45.7305C216.973 46.6178 218.281 47.311 219.532 47.8101C220.812 48.3093 221.967 48.5588 222.996 48.5588C223.58 48.5588 224.011 48.4895 224.289 48.3508C224.568 48.1845 224.707 47.9211 224.707 47.5606C224.707 47.311 224.609 47.1031 224.415 46.9367C224.22 46.7703 223.9 46.604 223.455 46.4376C223.038 46.2712 222.495 46.091 221.827 45.8969C220.103 45.2869 218.656 44.7184 217.488 44.1916C216.347 43.6648 215.485 43.027 214.9 42.2783C214.344 41.5019 214.066 40.476 214.066 39.2005C214.066 37.7031 214.441 36.3861 215.193 35.2492C215.944 34.0846 217.015 33.1696 218.406 32.5041C219.824 31.8386 221.521 31.5059 223.497 31.5059C224.971 31.5059 226.445 31.7415 227.92 32.2129C229.422 32.6566 230.869 33.4746 232.26 34.6669L229.255 39.4916C227.864 38.632 226.682 38.022 225.708 37.6616C224.762 37.3011 223.914 37.1209 223.163 37.1209C222.801 37.1209 222.481 37.1624 222.203 37.2456C221.953 37.3288 221.758 37.4536 221.619 37.62C221.48 37.7863 221.41 38.0082 221.41 38.2854C221.41 38.5627 221.508 38.7984 221.702 38.9925C221.897 39.1589 222.203 39.3253 222.62 39.4916C223.038 39.6303 223.566 39.7966 224.206 39.9907C226.098 40.5453 227.642 41.1137 228.838 41.696C230.034 42.2506 230.91 42.9299 231.467 43.7341C232.051 44.5382 232.343 45.5919 232.343 46.8951C232.343 49.1966 231.522 50.9989 229.881 52.3021C228.268 53.6054 226.056 54.257 223.246 54.257Z" fill="#E7FE55"/>
<path d="M187.622 46.3549V31.9639H195.551V44.5664C195.551 45.5092 195.759 46.2578 196.177 46.8124C196.622 47.3393 197.22 47.6027 197.971 47.6027C198.388 47.6027 198.805 47.5472 199.223 47.4363C199.64 47.3254 200.057 47.1036 200.475 46.7708C200.92 46.4381 201.351 45.9667 201.768 45.3567V31.9639H209.697V45.1071C209.697 45.8558 209.808 46.3826 210.031 46.6876C210.253 46.9649 210.643 47.1313 211.199 47.1867V53.8416C210.503 53.9802 209.878 54.0772 209.321 54.1327C208.765 54.2159 208.278 54.2575 207.861 54.2575C206.525 54.2575 205.468 54.0079 204.689 53.5088C203.91 53.0097 203.41 52.2472 203.187 51.2212L203.02 50.431C201.991 51.7897 200.753 52.774 199.306 53.384C197.887 53.9663 196.274 54.2575 194.466 54.2575C192.268 54.2575 190.571 53.5781 189.375 52.2194C188.206 50.8608 187.622 48.9059 187.622 46.3549Z" fill="#E7FE55"/>
</svg>
