<svg width="19" height="19" viewBox="0 0 19 19" fill="none" xmlns="http://www.w3.org/2000/svg">
<path d="M4.31445 7.81388C4.31445 11.38 7.43414 14.329 8.815 15.4596C9.01262 15.6214 9.11262 15.7033 9.26005 15.7448C9.37486 15.7771 9.54383 15.7771 9.65863 15.7448C9.80635 15.7032 9.90565 15.6222 10.104 15.4597C11.4849 14.3291 14.6044 11.3803 14.6044 7.81421C14.6044 6.46466 14.0624 5.17023 13.0975 4.21596C12.1326 3.26169 10.8241 2.72559 9.45951 2.72559C8.09497 2.72559 6.78626 3.26177 5.82139 4.21604C4.85651 5.17031 4.31445 6.46434 4.31445 7.81388Z" stroke="white" stroke-width="1.47" stroke-linecap="round" stroke-linejoin="round"/>
<path d="M7.98945 7.13559C7.98945 7.94744 8.64759 8.60559 9.45945 8.60559C10.2713 8.60559 10.9295 7.94744 10.9295 7.13559C10.9295 6.32373 10.2713 5.66559 9.45945 5.66559C8.64759 5.66559 7.98945 6.32373 7.98945 7.13559Z" stroke="white" stroke-width="1.47" stroke-linecap="round" stroke-linejoin="round"/>
</svg>
