<svg width="40" height="40" viewBox="0 0 40 40" fill="none" xmlns="http://www.w3.org/2000/svg">
<circle cx="20" cy="20" r="20" fill="#1A171C"/>
<path d="M8 23.7879C8 25.4652 9.33333 26.5252 10 26.8456C10.5897 28.5637 13.3846 32 19.8462 32C26.3077 32 29.359 28.5637 30.0769 26.8456C30.7179 26.467 32 25.3255 32 23.7879C32 22.2503 30.7179 21.167 30.0769 20.8175C29.8718 19.245 27.5385 16.0999 19.8462 16.0999C12.1538 16.0999 10.0769 19.245 10 20.8175C9.33333 21.1087 8 22.1105 8 23.7879Z" fill="#F2F4FE"/>
<path d="M14.3077 15.2263C14.6154 15.2263 14.7436 14.9933 14.7692 14.8768C14.7692 12.2559 12.3846 9.37294 11.5385 8.76139C10.5897 7.97513 8.86154 7.11897 9.53846 9.98448C10.3846 13.5664 13.9231 15.2263 14.3077 15.2263Z" fill="#F2F4FE"/>
<path d="M25.6923 15.2263C25.3846 15.2263 25.2564 14.9933 25.2308 14.8768C25.2308 12.2559 27.6154 9.37294 28.4615 8.76139C29.4103 7.97513 31.1385 7.11897 30.4615 9.98448C29.6154 13.5664 26.0769 15.2263 25.6923 15.2263Z" fill="#F2F4FE"/>
<ellipse cx="1.64662" cy="2.32283" rx="1.64662" ry="2.32283" transform="matrix(0.912581 -0.408897 0.328141 0.944629 13.8462 22.7389)" fill="#1A171C"/>
<ellipse cx="1.64662" cy="2.32283" rx="1.64662" ry="2.32283" transform="matrix(-0.912581 -0.408897 -0.328141 0.944629 26.1538 22.7389)" fill="#1A171C"/>
</svg>
