<svg width="94" height="94" viewBox="0 0 94 94" fill="none" xmlns="http://www.w3.org/2000/svg">
<path d="M94 61.8358C94 68.4055 88.7778 72.5572 86.1667 73.8118C83.8568 80.5412 72.9103 94 47.6026 94C22.2949 94 10.344 80.5412 7.53205 73.8118C5.02137 72.3291 0 67.858 0 61.8358C0 55.8136 5.02137 51.5706 7.53205 50.2019C8.33547 44.0428 17.4744 31.7246 47.6026 31.7246C77.7308 31.7246 85.8654 44.0428 86.1667 50.2019C88.7778 51.3425 94 55.2661 94 61.8358Z" fill="#1A171C"/>
<path d="M69.2949 28.3029C68.0897 28.3029 67.5876 27.3904 67.4872 26.9342C67.4872 16.669 76.8269 5.37735 80.141 2.98213C83.8568 -0.0974235 90.6256 -3.45071 87.9744 7.77254C84.6603 21.8016 70.8013 28.3029 69.2949 28.3029Z" fill="#1A171C"/>
<path d="M24.7051 28.3029C25.9103 28.3029 26.4124 27.3904 26.5128 26.9342C26.5128 16.669 17.1731 5.37735 13.859 2.98213C10.1432 -0.0974235 3.37436 -3.45071 6.02564 7.77254C9.33974 21.8016 23.1987 28.3029 24.7051 28.3029Z" fill="#1A171C"/>
<ellipse cx="6.44924" cy="9.09777" rx="6.44924" ry="9.09777" transform="matrix(-0.912581 -0.408897 -0.328141 0.944629 71.1021 57.7274)" fill="#93DF5D"/>
<ellipse cx="6.44924" cy="9.09777" rx="6.44924" ry="9.09777" transform="matrix(0.912581 -0.408897 0.328141 0.944629 22.8975 57.7274)" fill="#93DF5D"/>
</svg>
