<svg width="24" height="24" viewBox="0 0 24 24" fill="none" xmlns="http://www.w3.org/2000/svg">
<g opacity="0.5" clip-path="url(#clip0_1550_10130)">
<path d="M6.817 12.6075L13.6705 12.6075M19.2672 14.0216L6.97396 20.5297C5.87227 21.113 5.32112 21.4047 4.95785 21.3208C4.64276 21.2481 4.3824 21.0282 4.25883 20.7294C4.11635 20.3848 4.31332 19.7925 4.70764 18.6095L6.53972 13.1133C6.60229 12.9256 6.63329 12.8319 6.64572 12.7359C6.65674 12.6507 6.65729 12.5646 6.64626 12.4793C6.63412 12.3855 6.60348 12.2936 6.54369 12.1143L4.70739 6.60536C4.31307 5.4224 4.11606 4.8307 4.25854 4.48611C4.38211 4.18726 4.64242 3.96692 4.95752 3.89416C5.32084 3.81027 5.87215 4.10177 6.97419 4.6852L19.2674 11.1934C20.1338 11.652 20.567 11.8816 20.7087 12.1875C20.832 12.454 20.8322 12.7612 20.7088 13.0277C20.5672 13.3335 20.1341 13.5628 19.2686 14.021L19.2672 14.0216Z" stroke="#F2F4FE" stroke-width="2" stroke-linecap="round" stroke-linejoin="round"/>
</g>
<defs>
<clipPath id="clip0_1550_10130">
<rect width="24" height="24" fill="white"/>
</clipPath>
</defs>
</svg>
