<svg width="57" height="57" viewBox="0 0 57 57" fill="none" xmlns="http://www.w3.org/2000/svg">
<path fill-rule="evenodd" clip-rule="evenodd" d="M12.8135 38.9378C13.5934 40.1078 14.5053 41.1927 15.5359 42.1695C18.1848 44.6803 21.5046 46.3695 25.0935 47.033C28.6824 47.6966 32.3867 47.3058 35.7582 45.9082C39.1297 44.5105 42.024 42.1658 44.0908 39.1577C46.1576 36.1496 47.3085 32.607 47.4041 28.9585C47.4998 25.31 46.5361 21.712 44.6297 18.5997C42.7233 15.4875 39.9558 12.9943 36.6622 11.422C34.4809 10.3806 32.1306 9.77265 29.7408 9.61865L31.0905 14.6558C32.2911 14.8787 33.4636 15.2584 34.5769 15.7899C37.0264 16.9593 39.0845 18.8134 40.5023 21.1279C41.9201 23.4425 42.6368 26.1183 42.5656 28.8317C42.4945 31.545 41.6386 34.1796 40.1015 36.4167C38.5644 38.6538 36.412 40.3976 33.9047 41.437C31.3973 42.4764 28.6425 42.767 25.9734 42.2736C23.3044 41.7801 20.8355 40.5238 18.8655 38.6566C18.5076 38.3174 18.169 37.9607 17.8506 37.5881L12.8135 38.9378Z" fill="#222629"/>
<path d="M14.2083 9.80418C16.0174 8.41602 18.0152 7.30096 20.1376 6.49069C21.1499 6.10423 21.656 5.91099 22.1353 6.15571C22.6145 6.40044 22.7647 6.96125 23.0653 8.08288L27.9 26.1262C28.1953 27.2282 28.3429 27.7792 28.0923 28.2132C27.8417 28.6473 27.2907 28.7949 26.1887 29.0902L8.14538 33.9249C7.02375 34.2254 6.46294 34.3757 6.0114 34.0831C5.55985 33.7904 5.47413 33.2555 5.30267 32.1856C4.94319 29.9424 4.90993 27.6547 5.20756 25.3939C5.61072 22.3316 6.61308 19.3787 8.15743 16.7038C9.70177 14.029 11.7579 11.6845 14.2083 9.80418Z" stroke="#222629" stroke-width="4.84015"/>
</svg>
