<svg width="29" height="29" viewBox="0 0 29 29" fill="none" xmlns="http://www.w3.org/2000/svg">
<path d="M1.12012 14.5H8.62012M1.12012 14.5C1.12012 21.9558 7.16427 28 14.6201 28M1.12012 14.5C1.12012 7.04415 7.16427 1 14.6201 1M8.62012 14.5H20.6201M8.62012 14.5C8.62012 21.9558 11.3064 28 14.6201 28M8.62012 14.5C8.62012 7.04415 11.3064 1 14.6201 1M20.6201 14.5H28.1201M20.6201 14.5C20.6201 7.04415 17.9338 1 14.6201 1M20.6201 14.5C20.6201 21.9558 17.9338 28 14.6201 28M28.1201 14.5C28.1201 7.04415 22.076 1 14.6201 1M28.1201 14.5C28.1201 21.9558 22.076 28 14.6201 28" stroke="white" stroke-width="1.34831" stroke-linecap="round" stroke-linejoin="round"/>
</svg>
