<svg width="187" height="175" viewBox="0 0 187 175" fill="none" xmlns="http://www.w3.org/2000/svg">
<path fill-rule="evenodd" clip-rule="evenodd" d="M15.754 0.478941L14.6407 2.00074L13.5275 0.478941C14.1905 -0.00600126 15.091 -0.00600126 15.754 0.478941ZM14.6407 4.41506C14.4241 4.5977 14.1814 4.80684 13.9176 5.04116C12.7845 6.04772 11.2747 7.50755 9.76912 9.31691C6.71823 12.9834 3.88429 17.844 3.88429 23.1386C3.88429 26.1685 5.03685 29.0588 7.0638 31.177C9.08771 33.292 11.815 34.4632 14.6409 34.4632C17.4664 34.4632 20.1935 33.2915 22.2176 31.1763C24.2447 29.058 25.3972 26.1684 25.3972 23.1386C25.3972 17.844 22.5633 12.9834 19.5124 9.31691C18.0068 7.50755 16.497 6.04772 15.3639 5.04116C15.1001 4.80684 14.8574 4.5977 14.6407 4.41506ZM13.5265 0.479714C13.527 0.47931 13.5275 0.478941 14.6407 2.00074C15.754 0.478941 15.7545 0.47931 15.755 0.479714L15.7564 0.480702L15.7599 0.483316L15.7705 0.491101L15.8051 0.516827C15.8341 0.538467 15.8748 0.56906 15.9263 0.608405C16.0295 0.687083 16.1763 0.800838 16.3606 0.948061C16.7291 1.24237 17.2484 1.67124 17.8682 2.22182C19.1054 3.32079 20.7562 4.91604 22.4111 6.90488C25.6812 10.8348 29.1682 16.5432 29.1682 23.1386C29.1682 27.1164 27.6568 30.9466 24.9422 33.7834C22.2247 36.6233 18.5211 38.2342 14.6409 38.2342C10.761 38.2342 7.057 36.6243 4.33925 33.7842C1.62455 30.9472 0.113281 27.1163 0.113281 23.1386C0.113281 16.5432 3.60031 10.8348 6.8704 6.90488C8.52532 4.91604 10.1761 3.32079 11.4133 2.22182C12.0331 1.67124 12.5524 1.24237 12.9208 0.948061C13.1052 0.800838 13.252 0.687083 13.3552 0.608405C13.4067 0.56906 13.4474 0.538467 13.4764 0.516827L13.511 0.491101L13.5216 0.483316L13.5251 0.480702L13.5265 0.479714ZM21.865 20.6971C22.9063 20.6971 23.7505 21.5413 23.7505 22.5826C23.7505 25.2798 22.7073 27.8762 20.8353 29.7982C19.7721 30.8899 18.4898 31.7139 17.0901 32.222C16.1113 32.5773 15.0297 32.0719 14.6744 31.0931C14.3191 30.1142 14.8245 29.0327 15.8034 28.6773C16.6678 28.3635 17.4667 27.8521 18.134 27.167C19.3102 25.9594 19.9795 24.3113 19.9795 22.5826C19.9795 21.5413 20.8237 20.6971 21.865 20.6971ZM84.7969 0.906987C84.7969 0.906987 148.609 47.5864 148.609 107.603C148.609 125.289 141.885 142.248 129.918 154.754C117.951 167.26 101.722 174.282 84.7977 174.282C67.8737 174.282 51.6422 167.263 39.6752 154.758C27.7081 142.252 20.9851 125.289 20.9851 107.603C20.9851 47.5864 84.7969 0.906987 84.7969 0.906987ZM172.754 51.8559C172.091 51.371 171.19 51.371 170.528 51.8559L171.641 53.3777C170.528 51.8559 170.527 51.8563 170.526 51.8567L170.525 51.8577L170.522 51.8603L170.511 51.8681L170.476 51.8938C170.447 51.9154 170.407 51.946 170.355 51.9854C170.252 52.064 170.105 52.1778 169.921 52.325C169.552 52.6193 169.033 53.0482 168.413 53.5988C167.176 54.6977 165.525 56.293 163.87 58.2818C160.6 62.2118 157.113 67.9201 157.113 74.5155C157.113 78.4933 158.625 82.3242 161.339 85.1611C164.057 88.0012 167.761 89.6112 171.641 89.6112C175.521 89.6112 179.225 88.0002 181.942 85.1604C184.657 82.3235 186.168 78.4934 186.168 74.5155C186.168 67.9201 182.681 62.2118 179.411 58.2818C177.756 56.293 176.105 54.6977 174.868 53.5988C174.248 53.0482 173.729 52.6193 173.361 52.325C173.176 52.1778 173.029 52.064 172.926 51.9854C172.875 51.946 172.834 51.9154 172.805 51.8938L172.77 51.8681L172.76 51.8603L172.756 51.8577L172.755 51.8567C172.754 51.8563 172.754 51.8559 171.641 53.3777L172.754 51.8559ZM166.769 60.6939C168.275 58.8845 169.784 57.4247 170.918 56.4181C171.181 56.1838 171.424 55.9747 171.641 55.792C171.857 55.9747 172.1 56.1838 172.364 56.4181C173.497 57.4247 175.007 58.8845 176.512 60.6939C179.563 64.3604 182.397 69.2209 182.397 74.5155C182.397 77.5453 181.245 80.4349 179.218 82.5532C177.193 84.6685 174.466 85.8402 171.641 85.8402C168.815 85.8402 166.088 84.669 164.064 82.5539C162.037 80.4357 160.884 77.5455 160.884 74.5155C160.884 69.2209 163.718 64.3604 166.769 60.6939ZM180.75 73.9596C180.75 72.9182 179.906 72.0741 178.865 72.0741C177.824 72.0741 176.979 72.9182 176.979 73.9596C176.979 75.6882 176.31 77.3364 175.134 78.544C174.467 79.2291 173.668 79.7405 172.803 80.0543C171.825 80.4096 171.319 81.4912 171.674 82.47C172.03 83.4489 173.111 83.9543 174.09 83.599C175.49 83.0909 176.772 82.2668 177.835 81.1752C179.707 79.2532 180.75 76.6568 180.75 73.9596Z" fill="url(#paint0_linear_1549_18955)"/>
<defs>
<linearGradient id="paint0_linear_1549_18955" x1="81.4992" y1="61.001" x2="81.5013" y2="154.001" gradientUnits="userSpaceOnUse">
<stop stop-color="#5AB6FD"/>
<stop offset="1" stop-color="#366D97" stop-opacity="0"/>
</linearGradient>
</defs>
</svg>
