<svg width="217" height="147" viewBox="0 0 217 147" fill="none" xmlns="http://www.w3.org/2000/svg">
<path fill-rule="evenodd" clip-rule="evenodd" d="M56.3555 74.932C56.32 74.932 56.2847 74.9312 56.2496 74.9295C55.1261 74.9449 53.9922 75.2392 52.9519 75.8397C51.9404 76.4236 51.114 77.2377 50.5277 78.2108C50.5074 78.2515 50.4858 78.2918 50.4628 78.3317C50.4405 78.3704 50.4172 78.408 50.393 78.4448C50.1313 78.9212 49.9253 79.4326 49.781 79.9713C49.322 81.6841 49.5406 83.471 50.3951 85.0187C50.4187 85.0546 50.4413 85.0913 50.463 85.1289C50.485 85.167 50.5057 85.2054 50.5251 85.2442C51.438 86.7613 52.8777 87.8461 54.5929 88.3057C55.1096 88.4447 55.633 88.5218 56.1547 88.5381C56.2196 88.5323 56.2852 88.5293 56.3516 88.5293C56.4203 88.5293 56.4882 88.5325 56.5552 88.5387C57.6692 88.5072 58.7647 88.1986 59.7569 87.6258C60.7657 87.0436 61.5691 86.2401 62.1411 85.3115C62.1695 85.2497 62.2009 85.1887 62.2356 85.1287C62.2694 85.0701 62.3055 85.0137 62.3437 84.9595C63.3932 83.0036 63.4655 80.5765 62.3415 78.4977C62.3041 78.4445 62.2688 78.3893 62.2358 78.332C62.2032 78.2755 62.1734 78.2181 62.1463 78.1601C60.8888 76.1201 58.7072 74.967 56.4553 74.9298C56.4222 74.9313 56.389 74.932 56.3555 74.932ZM64.7448 74.3664C63.0972 72.4884 60.8963 71.2605 58.5353 70.7884V49.1453L69.421 38.2601C70.2726 37.4085 70.2726 36.0296 69.421 35.178C68.5709 34.3264 67.1895 34.3264 66.3389 35.178L58.5353 42.9812V33.9557L64.1899 28.301C65.0415 27.4494 65.0415 26.0706 64.1899 25.2189C63.3398 24.3673 61.9579 24.3673 61.1078 25.2189L58.5353 27.7915V19.1798C58.5353 17.9761 57.5592 17 56.3555 17C55.1519 17 54.1758 17.9761 54.1758 19.1798V27.497L51.7677 25.0889C50.9176 24.2373 49.5357 24.2373 48.6856 25.0889C47.834 25.94 47.834 27.3194 48.6856 28.171L54.1758 33.6612V42.5786L46.5353 34.9385C45.6836 34.0869 44.3033 34.0869 43.4532 34.9385C42.6015 35.7901 42.6015 37.169 43.4532 38.0206L54.1758 48.7428V70.7819C53.0085 71.0133 51.8592 71.4367 50.7727 72.0642C49.6987 72.6842 48.7519 73.4627 47.9567 74.3679L29.2221 63.5514L25.2378 48.6803C24.9259 47.5168 23.7289 46.8244 22.5684 47.1392C21.406 47.4511 20.7156 48.6466 21.0274 49.8086L23.8839 60.4693L16.0639 55.9543L13.9934 48.2284C13.6821 47.0649 12.484 46.3725 11.3241 46.6873C10.1611 46.9991 9.47118 48.1947 9.78301 49.3567L10.7246 52.8717L3.26934 48.5673C2.22742 47.9663 0.893744 48.3228 0.29219 49.3657C-0.309365 50.4087 0.0476611 51.7408 1.09009 52.3434L8.28847 56.4993L5.0007 57.3803C3.83827 57.6911 3.14783 58.8861 3.45966 60.0496C3.72026 61.0232 4.601 61.6659 5.56309 61.6659C5.74988 61.6659 5.93968 61.6413 6.12949 61.5906L13.6275 59.5818L21.3535 64.0424L10.9185 66.8389C9.75601 67.1507 9.06558 68.3463 9.37741 69.5082C9.63801 70.4824 10.5188 71.1251 11.4809 71.1251C11.6676 71.1251 11.8574 71.1005 12.0467 71.0493L26.6922 67.1246L45.7817 78.1458C45.7042 78.3751 45.6338 78.6077 45.5706 78.8435C44.9908 81.0068 45.0704 83.2429 45.7779 85.3166L27.0359 96.1374L12.1661 92.1535C11.0027 91.8376 9.80759 92.5311 9.49677 93.6945C9.18494 94.858 9.87537 96.052 11.0378 96.3639L21.6969 99.2199L13.8823 103.732L6.16222 101.663C4.99978 101.345 3.80371 102.04 3.49289 103.204C3.18107 104.366 3.871 105.561 5.03394 105.873L8.54402 106.814L1.09031 111.117C0.0478842 111.719 -0.309644 113.052 0.292413 114.095C0.695625 114.794 1.42824 115.185 2.18194 115.185C2.55201 115.185 2.92661 115.091 3.26957 114.893L10.4738 110.733L9.59179 114.026C9.27997 115.189 9.9704 116.384 11.1328 116.696C11.3221 116.747 11.5119 116.771 11.6987 116.771C12.6608 116.771 13.5411 116.128 13.8022 115.155L15.813 107.651L23.5282 103.197L20.732 113.634C20.4202 114.796 21.1106 115.991 22.273 116.303C22.4623 116.354 22.6521 116.379 22.8389 116.379C23.801 116.379 24.6818 115.736 24.9429 114.761L28.8675 100.114L47.9557 89.0934C49.3985 90.7466 51.2982 91.9357 53.4651 92.5171C53.7 92.58 53.9356 92.6351 54.1719 92.6825V114.316L43.2832 125.204C42.4316 126.056 42.4316 127.435 43.2832 128.287C44.1339 129.138 45.5152 129.138 46.3653 128.287L54.1719 120.48V129.51L48.5215 135.161C47.6699 136.012 47.6699 137.391 48.5215 138.243C49.3716 139.095 50.7535 139.095 51.6036 138.243L54.1719 135.675V144.282C54.1719 145.485 55.148 146.461 56.3516 146.461C57.5552 146.461 58.5314 145.486 58.5314 144.282V135.96L60.9443 138.373C61.3701 138.799 61.9274 139.012 62.4853 139.012C63.0432 139.012 63.6011 138.799 64.0264 138.373C64.878 137.521 64.878 136.142 64.0264 135.291L58.5314 129.796V120.889L66.1684 128.526C66.5937 128.952 67.1516 129.165 67.7095 129.165C68.2674 129.165 68.8257 128.952 69.2505 128.526C70.1021 127.675 70.1021 126.296 69.2505 125.444L58.5314 114.725V92.6881C59.7135 92.4523 60.8618 92.0219 61.9366 91.4018C63.023 90.7747 63.9641 89.9913 64.748 89.0962L83.4814 99.9118L87.4656 114.781C87.7262 115.755 88.607 116.397 89.5691 116.397C89.7558 116.396 89.9457 116.373 90.135 116.322C91.2979 116.01 91.9878 114.815 91.676 113.652L88.8202 102.994L96.64 107.509L98.7094 115.231C98.97 116.204 99.8507 116.847 100.813 116.847C101 116.847 101.19 116.822 101.379 116.772C102.542 116.46 103.232 115.265 102.92 114.102L101.979 110.591L109.429 114.893C109.772 115.09 110.147 115.184 110.517 115.184C111.27 115.184 112.003 114.794 112.406 114.095C113.008 113.052 112.651 111.72 111.608 111.117L104.41 106.961L107.703 106.079C108.865 105.768 109.555 104.573 109.244 103.409C108.932 102.246 107.737 101.552 106.574 101.868L99.0707 103.878L91.3472 99.4192L101.784 96.622C102.947 96.3101 103.637 95.1146 103.325 93.9526C103.014 92.7892 101.817 92.0977 100.656 92.4116L86.0085 96.3368L66.9226 85.3175C67.6955 83.0336 67.732 80.5097 66.9261 78.1407L85.6623 67.3235L100.531 71.307C100.72 71.3582 100.91 71.3828 101.097 71.3828C102.059 71.3818 102.94 70.7401 103.2 69.7664C103.512 68.603 102.822 67.4079 101.659 67.0971L91.0007 64.2414L98.8152 59.7298L106.535 61.7987C106.725 61.8494 106.914 61.874 107.101 61.874C108.063 61.873 108.944 61.2312 109.204 60.2571C109.516 59.0947 108.826 57.8996 107.663 57.5878L104.154 56.6474L111.608 52.3436C112.651 51.7416 113.008 50.4089 112.406 49.366C111.805 48.323 110.471 47.966 109.429 48.5676L102.223 52.7279L103.106 49.4347C103.418 48.2722 102.727 47.0772 101.565 46.7653C100.402 46.448 99.2067 47.1429 98.8953 48.3064L96.8845 55.8103L89.1676 60.2658L91.9641 49.8273C92.276 48.6648 91.5855 47.4697 90.4231 47.1579C89.2602 46.8406 88.0646 47.5355 87.7538 48.699L83.8287 63.3482L64.7448 74.3664ZM31.363 56.3269C31.107 56.3269 30.8468 56.2813 30.5928 56.1853C29.467 55.7595 28.8991 54.5017 29.3249 53.3759C29.9039 51.8434 31.005 50.5494 32.4246 49.7299C34.0831 48.7734 35.9726 48.5615 37.699 48.9893C38.2101 47.2067 39.3726 45.7189 40.9829 44.7885C42.4019 43.971 44.0705 43.6627 45.6879 43.9273C46.8754 44.1201 47.6824 45.2394 47.489 46.4284C47.2957 47.616 46.172 48.4324 44.9874 48.2291C44.3532 48.1271 43.721 48.2416 43.1617 48.5645C41.8431 49.3257 41.3896 51.0174 42.1514 52.3375C42.1698 52.3695 42.1873 52.4017 42.204 52.4341L49.2587 64.6534C49.8608 65.6963 49.5033 67.029 48.4609 67.631C48.1179 67.8289 47.7433 67.9223 47.3732 67.9223C46.6195 67.9223 45.8869 67.5316 45.4837 66.8326L38.3075 54.4031C37.5158 53.1717 35.8833 52.766 34.6038 53.5055C33.8978 53.9122 33.5609 54.4972 33.4022 54.917C33.0728 55.7897 32.2438 56.3269 31.363 56.3269ZM19.9596 91.7598C19.3279 91.7598 18.7017 91.4861 18.2704 90.9594C17.2345 89.691 16.6641 88.0912 16.6641 86.4532C16.6641 84.5366 17.4253 82.7932 18.6621 81.5117C17.4253 80.2303 16.6641 78.4869 16.6641 76.5703C16.6641 74.9313 17.235 73.3305 18.2714 72.0631C19.0336 71.1307 20.4059 70.9946 21.3384 71.7568C22.2704 72.5191 22.4075 73.8919 21.6447 74.8238C21.2375 75.321 21.0226 75.9255 21.0226 76.5703C21.0226 78.0932 22.2613 79.332 23.7843 79.332C23.8386 79.332 23.8924 79.334 23.9457 79.3379H38.0125C39.2161 79.3379 40.1923 80.314 40.1923 81.5176C40.1923 82.7213 39.2161 83.6974 38.0125 83.6974H23.6024C22.1639 83.7914 21.0226 84.9914 21.0226 86.4532C21.0226 87.098 21.238 87.7015 21.6457 88.2007C22.4074 89.1331 22.2689 90.5059 21.3369 91.2677C20.9327 91.5991 20.4446 91.7598 19.9596 91.7598ZM44.1802 119.418C42.9359 119.418 41.7026 119.093 40.616 118.466C38.956 117.507 37.8277 115.975 37.3361 114.264C35.6098 114.694 33.7192 114.482 32.0572 113.524C30.6356 112.703 29.5355 111.407 28.9575 109.876C28.5322 108.75 29.1006 107.493 30.2269 107.067C31.3557 106.641 32.6116 107.211 33.0359 108.337C33.2623 108.937 33.6781 109.426 34.238 109.75C35.5274 110.495 37.1831 110.073 37.9653 108.812L45.1197 96.4204C45.7218 95.3775 47.0549 95.021 48.0969 95.622C49.1393 96.2246 49.4963 97.5567 48.8947 98.5997L41.8167 110.859C41.8109 110.87 41.805 110.881 41.799 110.891L41.7845 110.917C41.0233 112.235 41.4767 113.929 42.7958 114.691C43.3537 115.012 43.9833 115.126 44.619 115.024C45.7976 114.829 46.9274 115.635 47.1217 116.822C47.3165 118.01 46.5106 119.131 45.3225 119.326C44.9439 119.387 44.5613 119.418 44.1802 119.418ZM68.1673 119.627C67.7872 119.627 67.4071 119.597 67.029 119.535C65.8415 119.342 65.0345 118.223 65.2278 117.034C65.4212 115.846 66.5394 115.029 67.7295 115.233C68.1724 115.304 68.8497 115.305 69.5557 114.898C70.1939 114.53 70.6509 113.934 70.8417 113.222C71.0187 112.562 70.9473 111.876 70.6438 111.271L63.4484 98.8069C62.8469 97.764 63.2039 96.4313 64.2463 95.8293C65.2888 95.2277 66.6224 95.5848 67.2234 96.6277L74.2663 108.827C74.292 108.866 74.3166 108.905 74.34 108.946C75.1018 110.265 76.795 110.721 78.1126 109.957C78.8186 109.55 79.1555 108.965 79.3142 108.546C79.7395 107.42 80.9973 106.854 82.1231 107.277C83.2489 107.703 83.8168 108.961 83.391 110.087C82.812 111.62 81.7108 112.914 80.2913 113.733C78.6328 114.691 76.7443 114.901 75.0169 114.474C74.5063 116.256 73.3438 117.744 71.7335 118.675C70.6474 119.301 69.4121 119.627 68.1673 119.627ZM92.7409 92.1899C92.2553 92.1899 91.7667 92.0282 91.361 91.6973C90.4301 90.9341 90.293 89.5612 91.0557 88.6303C91.4625 88.1332 91.6774 87.5301 91.6774 86.8839C91.6774 85.3609 90.4386 84.1222 88.9162 84.1222C88.8783 84.1222 88.8406 84.1212 88.8032 84.1193H74.7032C73.4996 84.1193 72.5234 83.1431 72.5234 81.9395C72.5234 80.7359 73.4996 79.7598 74.7032 79.7598H89.0429C90.5068 79.6933 91.6774 78.4814 91.6774 77.0009C91.6774 76.3562 91.462 75.7516 91.0547 75.2535C90.2925 74.322 90.4306 72.9492 91.362 72.1875C92.294 71.4232 93.6673 71.5608 94.429 72.4948C95.4649 73.7612 96.0359 75.3619 96.0359 77.0009C96.0359 78.9175 95.2741 80.661 94.0379 81.9424C95.2746 83.2238 96.0359 84.9672 96.0359 86.8839C96.0359 88.5238 95.4649 90.1247 94.4275 91.391C93.9982 91.9173 93.3716 92.1899 92.7409 92.1899ZM81.7182 56.5328C80.8374 56.5328 80.0084 55.9956 79.679 55.1229C79.4516 54.5213 79.0358 54.0332 78.4764 53.7094C77.1798 52.9601 75.5236 53.3879 74.7446 54.655L67.593 67.0419C67.1893 67.7414 66.4561 68.1321 65.7029 68.1321C65.3329 68.1321 64.9588 68.0381 64.6153 67.8403C63.5729 67.2377 63.2159 65.9056 63.8179 64.8626L70.8964 52.6024C70.9072 52.5823 70.9184 52.5623 70.9299 52.5424C71.6906 51.2238 71.2372 49.5306 69.9181 48.7684C69.3597 48.447 68.73 48.332 68.0943 48.4355C66.9123 48.6248 65.7855 47.8243 65.5917 46.6368C65.3969 45.4493 66.2028 44.3285 67.3903 44.1337C69.0092 43.8696 70.6783 44.1744 72.0978 44.9938C73.7579 45.9529 74.8861 47.4844 75.3777 49.1957C77.1061 48.7659 78.9961 48.9773 80.6572 49.9353C82.0772 50.7568 83.1779 52.0523 83.7563 53.5823C84.1821 54.7081 83.6147 55.9664 82.489 56.3917C82.2349 56.4871 81.9743 56.5328 81.7182 56.5328ZM33.297 37.5342C35.2754 37.5342 36.8793 39.138 36.8793 41.1164C36.8793 43.0948 35.2754 44.6986 33.297 44.6986C31.3186 44.6986 29.7148 43.0948 29.7148 41.1164C29.7143 39.138 31.3181 37.5342 33.297 37.5342ZM11.4427 78.2901C9.7289 77.3009 7.53809 77.8879 6.54889 79.6012C5.55969 81.3149 6.1467 83.5058 7.85997 84.495C9.57375 85.4842 11.7646 84.8972 12.7538 83.1839C13.743 81.4701 13.156 79.2793 11.4427 78.2901ZM29.6114 123.798C28.6222 122.085 29.2092 119.894 30.9225 118.904C32.6357 117.915 34.827 118.502 35.8162 120.215C36.8054 121.929 36.2184 124.12 34.5052 125.109C32.7919 126.099 30.6011 125.512 29.6114 123.798ZM82.9926 122.343C82.9926 124.321 81.3888 125.925 79.4104 125.925C77.432 125.925 75.8281 124.321 75.8281 122.343C75.8281 120.365 77.432 118.761 79.4104 118.761C81.3888 118.761 82.9926 120.365 82.9926 122.343ZM106.158 83.8577C105.169 85.571 102.978 86.158 101.264 85.1688C99.5506 84.1796 98.9641 81.9888 99.9533 80.275C100.943 78.5617 103.133 77.9747 104.847 78.9639C106.56 79.9531 107.147 82.1444 106.158 83.8577ZM81.7904 44.5597C83.5036 43.5705 84.0906 41.3792 83.1014 39.666C82.1122 37.9522 79.9209 37.3652 78.2076 38.3549C76.4944 39.3441 75.9073 41.5354 76.8966 43.2487C77.8857 44.962 80.0771 45.5489 81.7904 44.5597Z" fill="url(#paint0_linear_1549_18968)"/>
<path fill-rule="evenodd" clip-rule="evenodd" d="M125.012 0C125.17 0 125.311 0.0962447 125.37 0.242741L126.782 3.79554C126.818 3.88694 126.818 3.98863 126.782 4.08002L125.37 7.63271C125.311 7.77921 125.169 7.87545 125.012 7.87545C124.854 7.87545 124.712 7.77921 124.654 7.63271L123.242 4.08002C123.206 3.98863 123.206 3.88694 123.242 3.79554L124.654 0.242741C124.712 0.0962447 124.854 0 125.012 0ZM125.014 26.2325C124.883 26.2325 124.752 26.1824 124.652 26.0821L122.032 23.463L121.445 24.4799L122.017 26.6143C122.091 26.888 121.928 27.1695 121.654 27.2428C121.61 27.2549 121.565 27.2606 121.521 27.2606C121.295 27.2606 121.087 27.1094 121.026 26.88L120.719 25.737L120.247 26.5558C120.221 26.6011 120.189 26.6409 120.152 26.6748L120.728 28.8234C120.802 29.0972 120.639 29.3786 120.365 29.4519C120.321 29.464 120.276 29.4696 120.232 29.4696C120.005 29.4696 119.798 29.3184 119.737 29.089L119.256 27.2944L117.396 27.7927C117.122 27.8666 116.841 27.7036 116.768 27.4298C116.694 27.1561 116.857 26.8746 117.131 26.8013L119.295 26.2212C119.304 26.16 119.325 26.0995 119.358 26.0426L119.794 25.2864L118.685 25.5836C118.412 25.6576 118.13 25.4945 118.057 25.2208C117.983 24.947 118.146 24.6655 118.42 24.5922L120.52 24.0294L121.143 22.9499L117.566 21.9913C117.292 21.918 117.13 21.6366 117.203 21.3628L118.161 17.7863H116.985L115.424 19.3473C115.324 19.4475 115.192 19.4976 115.061 19.4976C114.93 19.4976 114.798 19.4475 114.698 19.3472C114.498 19.1468 114.498 18.8218 114.698 18.6215L115.533 17.7863H114.587C114.537 17.7863 114.488 17.7789 114.441 17.7652L112.869 19.3376C112.769 19.4377 112.637 19.4878 112.506 19.4878C112.375 19.4878 112.243 19.4377 112.143 19.3374C111.943 19.1371 111.943 18.812 112.143 18.6117L113.457 17.298L112.096 15.9367C111.895 15.7363 111.895 15.4114 112.096 15.2109C112.296 15.0104 112.621 15.0104 112.821 15.2109L114.404 16.7935C114.461 16.7717 114.523 16.7598 114.587 16.7598H115.464L114.65 15.9465C114.45 15.746 114.45 15.421 114.65 15.2207C114.851 15.0202 115.176 15.0202 115.376 15.2207L116.915 16.7598H118.162L117.203 13.1812C117.13 12.9074 117.292 12.626 117.566 12.5527L121.142 11.5943L120.557 10.5805L118.42 10.0078C118.146 9.93448 117.983 9.65308 118.057 9.37924C118.13 9.10529 118.411 8.94164 118.685 9.01637L119.831 9.32337L119.358 8.50347C119.332 8.45844 119.314 8.41111 119.302 8.36296L117.154 7.78722C116.88 7.71391 116.718 7.43251 116.791 7.15867C116.864 6.88471 117.145 6.72166 117.42 6.7958L119.214 7.27655L119.713 5.41703C119.786 5.14295 120.067 4.97967 120.341 5.05416C120.615 5.12746 120.777 5.40887 120.704 5.68271L120.124 7.84679C120.172 7.88551 120.214 7.93362 120.247 7.99032L120.682 8.74371L120.978 7.6376C121.052 7.36364 121.332 7.20059 121.607 7.27473C121.881 7.34804 122.043 7.62944 121.97 7.90328L121.408 10.0008L122.032 11.0817L124.652 8.46175C124.844 8.26926 125.185 8.26926 125.377 8.46175L127.994 11.0787L128.578 10.0676L128.006 7.9325C127.932 7.65866 128.095 7.37725 128.369 7.30395C128.642 7.23005 128.924 7.39286 128.997 7.66682L129.304 8.81056L129.777 7.99024C129.804 7.94474 129.836 7.90478 129.872 7.87076L129.297 5.72351C129.224 5.44967 129.386 5.16827 129.66 5.09496C129.933 5.02106 130.215 5.18388 130.288 5.45783L130.769 7.25244L132.629 6.75419C132.902 6.67958 133.184 6.84322 133.257 7.11706C133.331 7.3909 133.168 7.6723 132.895 7.74561L130.729 8.32579C130.72 8.38666 130.699 8.44684 130.666 8.50339L130.229 9.26016L131.338 8.96317C131.611 8.88939 131.893 9.05221 131.966 9.32605C132.04 9.59977 131.877 9.88129 131.604 9.9546L129.504 10.5173L128.882 11.5932L132.463 12.5527C132.737 12.626 132.899 12.9074 132.826 13.1812L131.867 16.7598H133.038L134.598 15.1992C134.799 14.9987 135.124 14.9987 135.324 15.1992C135.525 15.3995 135.525 15.7246 135.324 15.925L134.489 16.7598H135.438C135.489 16.7598 135.539 16.7672 135.585 16.781L137.155 15.2109C137.355 15.0104 137.681 15.0104 137.881 15.2109C138.081 15.4114 138.081 15.7363 137.881 15.9367L136.567 17.2505L137.928 18.6118C138.129 18.8122 138.129 19.1373 137.928 19.3376C137.828 19.4377 137.697 19.4878 137.566 19.4878C137.434 19.4878 137.303 19.4377 137.203 19.3374L135.619 17.7537C135.563 17.7748 135.502 17.7863 135.438 17.7863H134.558L135.372 18.5999C135.572 18.8003 135.572 19.1253 135.372 19.3256C135.272 19.4259 135.14 19.476 135.009 19.476C134.878 19.476 134.746 19.4259 134.646 19.3256L133.107 17.7863H131.868L132.826 21.3628C132.899 21.6365 132.737 21.918 132.463 21.9913L128.881 22.951L129.468 23.9676L131.603 24.5396C131.876 24.6129 132.039 24.8943 131.966 25.1681C131.892 25.442 131.61 25.6047 131.337 25.531L130.194 25.2249L130.666 26.0427C130.693 26.0883 130.711 26.1362 130.722 26.185L132.87 26.7605C133.144 26.8338 133.307 27.1152 133.233 27.389C133.16 27.6629 132.878 27.8252 132.605 27.7519L130.81 27.2712L130.312 29.1307C130.25 29.3598 130.043 29.5111 129.816 29.5111C129.772 29.5111 129.728 29.5054 129.683 29.4934C129.409 29.4201 129.247 29.1387 129.32 28.8649L129.901 26.6996C129.852 26.6609 129.81 26.6127 129.777 26.5558L129.341 25.8005L129.044 26.9098C128.983 27.1389 128.775 27.2902 128.549 27.2902C128.505 27.2902 128.46 27.2845 128.416 27.2725C128.142 27.1992 127.979 26.9178 128.053 26.644L128.616 24.5435L127.994 23.466L125.377 26.0821C125.277 26.1825 125.146 26.2325 125.014 26.2325ZM119.975 19.5918L118.514 20.4349L119.297 17.5148C119.308 17.4716 119.314 17.4269 119.314 17.3821V17.162C119.314 17.1172 119.309 17.0726 119.297 17.0292L118.515 14.1119L119.975 14.9546L120.596 17.2729L119.975 19.5918ZM120.489 20.4801L119.032 21.3215L121.945 22.1022C121.989 22.1138 122.03 22.1311 122.069 22.1535L122.26 22.2635C122.299 22.286 122.334 22.3134 122.366 22.3451L124.5 24.479V22.7948L122.806 21.101L120.489 20.4801ZM120.488 14.0659L119.029 13.2233L121.945 12.4419C121.989 12.4303 122.03 12.413 122.069 12.3905L122.26 12.2806C122.299 12.2581 122.334 12.2307 122.366 12.199L124.5 10.065V11.751L122.806 13.4448L120.488 14.0659ZM125.527 24.4816V22.801L127.227 21.101L129.542 20.4807L130.998 21.3214L128.084 22.1022C128.04 22.1138 127.999 22.1311 127.96 22.1535L127.769 22.2635C127.731 22.286 127.695 22.3133 127.663 22.3451L125.527 24.4816ZM130.059 19.594L131.515 20.4346L130.732 17.5148C130.721 17.4715 130.715 17.4269 130.715 17.3821V17.162C130.715 17.1172 130.721 17.0725 130.732 17.0292L131.514 14.1122L130.059 14.9525L129.437 17.2729L130.059 19.594ZM129.542 14.0653L131.001 13.2234L128.084 12.4419C128.04 12.4303 127.999 12.413 127.96 12.3905L127.769 12.2806C127.731 12.2581 127.695 12.2307 127.663 12.199L125.527 10.0624V11.7448L127.227 13.4448L129.542 14.0653ZM125.011 19.8196C123.606 19.8196 122.463 18.6764 122.463 17.2711C122.463 15.8659 123.606 14.7227 125.011 14.7227C126.417 14.7227 127.56 15.8659 127.56 17.2711C127.56 18.6764 126.417 19.8196 125.011 19.8196ZM125.011 15.7491C124.172 15.7491 123.489 16.4319 123.489 17.2711C123.489 18.1104 124.172 18.7932 125.011 18.7932C125.851 18.7932 126.533 18.1104 126.533 17.2711C126.533 16.4319 125.851 15.7491 125.011 15.7491ZM123.205 20.1451L121.044 19.5662L121.623 17.4057C121.646 17.3187 121.646 17.2269 121.623 17.14L121.044 14.9794L123.205 14.4006C123.292 14.3773 123.371 14.3315 123.435 14.2678L125.016 12.6862L126.598 14.2678C126.662 14.3315 126.741 14.3773 126.828 14.4006L128.989 14.9794L128.41 17.14C128.386 17.227 128.386 17.3188 128.41 17.4057L128.989 19.5662L126.828 20.1451C126.741 20.1684 126.662 20.2142 126.598 20.2779L125.016 21.8595L123.435 20.2779C123.371 20.2142 123.292 20.1684 123.205 20.1451ZM116.483 21.7832L112.7 22.3366C112.603 22.3509 112.515 22.4017 112.454 22.4788L110.083 25.4782C109.985 25.6018 109.973 25.7727 110.052 25.9094C110.121 26.0296 110.249 26.1019 110.385 26.1019C110.403 26.1019 110.422 26.1004 110.441 26.0978L114.224 25.5444C114.321 25.5301 114.409 25.4792 114.47 25.4021L116.841 22.4029C116.938 22.2792 116.951 22.1084 116.872 21.9718C116.793 21.8349 116.638 21.7609 116.483 21.7832ZM114.47 9.14275C114.409 9.06566 114.321 9.01482 114.224 9.00051L110.441 8.44716C110.286 8.42528 110.131 8.49918 110.052 8.63563C109.973 8.77219 109.985 8.94317 110.083 9.06684L112.454 12.0661C112.515 12.1431 112.603 12.194 112.7 12.2083L116.483 12.7618C116.501 12.7644 116.52 12.7658 116.539 12.7658C116.675 12.7658 116.802 12.6935 116.872 12.5733C116.951 12.4367 116.938 12.2658 116.84 12.1421L114.47 9.14275ZM125.012 26.6699C125.17 26.6699 125.311 26.7662 125.37 26.9127L126.782 30.4655C126.818 30.5569 126.818 30.6587 126.782 30.7499L125.37 34.3026C125.311 34.4491 125.169 34.5454 125.012 34.5454C124.854 34.5454 124.712 34.4491 124.654 34.3026L123.242 30.7499C123.206 30.6585 123.206 30.5569 123.242 30.4655L124.654 26.9127C124.712 26.7662 124.854 26.6699 125.012 26.6699ZM137.325 22.3364C137.422 22.3507 137.51 22.4015 137.571 22.4786L139.942 25.4778C140.04 25.6016 140.052 25.7725 139.973 25.909C139.904 26.0293 139.776 26.1015 139.64 26.1015C139.622 26.1015 139.603 26.1001 139.584 26.0975L135.801 25.544C135.704 25.5297 135.616 25.4789 135.555 25.4018L133.185 22.4026C133.087 22.279 133.074 22.108 133.153 21.9715C133.232 21.835 133.387 21.7615 133.542 21.783L137.325 22.3364ZM133.478 12.766C133.497 12.766 133.516 12.7646 133.534 12.762L137.317 12.2085C137.414 12.1942 137.503 12.1434 137.563 12.0663L139.934 9.06708C140.032 8.9434 140.044 8.77255 139.965 8.63586C139.886 8.49918 139.731 8.42469 139.576 8.44739L135.794 9.00074C135.696 9.01505 135.608 9.06589 135.547 9.14299L133.177 12.1423C133.079 12.266 133.067 12.437 133.145 12.5735C133.215 12.6939 133.342 12.766 133.478 12.766Z" fill="url(#paint1_linear_1549_18968)"/>
<path fill-rule="evenodd" clip-rule="evenodd" d="M187.519 46.9238V54.1729C186.306 54.3665 185.226 54.9662 184.425 55.8277L177.933 52.0799L174.849 40.5701C174.702 40.02 174.136 39.693 173.587 39.8414C173.037 39.9886 172.711 40.5538 172.858 41.1037L175.408 50.6223L169.829 47.4008L168.304 41.7128C168.157 41.1629 167.591 40.8354 167.042 40.9841C166.492 41.1313 166.166 41.6964 166.313 42.2463L167.304 45.9432L161.724 42.7214C161.231 42.4365 160.6 42.6056 160.316 43.0987C160.031 43.5917 160.2 44.2218 160.693 44.5065L166.492 47.8543L162.624 48.8909C162.074 49.0381 161.747 49.6032 161.895 50.1531C162.018 50.6135 162.435 50.9172 162.889 50.9172C162.978 50.9172 163.068 50.9058 163.157 50.8816L169.016 49.3117L174.529 52.4945L164.532 55.1733C163.982 55.3205 163.656 55.8856 163.803 56.4355C163.926 56.8959 164.343 57.1996 164.798 57.1996C164.886 57.1996 164.976 57.1884 165.065 57.164L177.053 53.9519L183.332 57.5772C183.104 58.1746 182.979 58.8227 182.979 59.4994C182.979 60.0496 183.061 60.5808 183.215 61.0813L176.725 64.8286L165.22 61.7458C164.67 61.5972 164.104 61.9244 163.957 62.4745C163.81 63.0244 164.136 63.5895 164.686 63.7368L174.2 66.2861L168.619 69.5086L162.934 67.9854C162.385 67.8358 161.819 68.1642 161.672 68.7141C161.525 69.264 161.851 69.8291 162.401 69.9763L166.094 70.9661L160.516 74.1869C160.022 74.4713 159.854 75.1018 160.138 75.5947C160.329 75.9252 160.675 76.1102 161.032 76.1102C161.207 76.1102 161.384 76.0658 161.546 75.972L167.347 72.6226L166.31 76.4946C166.163 77.0445 166.489 77.6096 167.039 77.7568C167.128 77.781 167.218 77.7924 167.306 77.7924C167.761 77.7924 168.178 77.4887 168.301 77.0279L169.872 71.165L175.387 67.9808L172.707 77.9828C172.56 78.5327 172.886 79.0978 173.436 79.245C173.525 79.269 173.615 79.2804 173.704 79.2804C174.158 79.2804 174.575 78.9767 174.698 78.5161L177.912 66.5232L184.188 62.8996C184.935 63.8166 185.976 64.4844 187.166 64.7574V72.2535L178.743 80.6761C178.341 81.0786 178.341 81.7313 178.743 82.1335C179.145 82.5362 179.799 82.5362 180.201 82.1335L187.166 75.1686V81.6104L183.003 85.7734C182.6 86.1756 182.6 86.8286 183.003 87.2308C183.205 87.4322 183.468 87.5328 183.732 87.5328C183.996 87.5328 184.26 87.4322 184.461 87.2308L187.166 84.5254V90.9674C187.166 91.5366 187.628 91.9981 188.197 91.9981C188.766 91.9981 189.227 91.5366 189.227 90.9674V84.2718L192.06 87.104C192.462 87.5067 193.115 87.5067 193.517 87.104C193.92 86.7016 193.92 86.0488 193.517 85.6466L189.227 81.3567V74.9887L196.549 82.31C196.75 82.5113 197.014 82.612 197.278 82.612C197.541 82.612 197.805 82.5113 198.006 82.31C198.409 81.9077 198.409 81.255 198.006 80.8526L189.227 72.0737V64.8257C190.441 64.6317 191.52 64.0317 192.321 63.17L198.815 66.9189L201.898 78.4274C202.022 78.8881 202.438 79.1918 202.893 79.1918C202.981 79.1918 203.071 79.1804 203.161 79.1564C203.71 79.0092 204.037 78.4438 203.889 77.8941L201.339 68.3765L206.921 71.599L208.445 77.2867C208.568 77.7471 208.984 78.0508 209.439 78.0508C209.528 78.0508 209.617 78.0394 209.707 78.0157C210.257 77.8685 210.583 77.3034 210.435 76.7534L209.445 73.0566L215.026 76.2785C215.188 76.3723 215.365 76.417 215.54 76.417C215.896 76.417 216.243 76.232 216.433 75.9012C216.718 75.4083 216.549 74.7781 216.056 74.4934L210.257 71.1454L214.126 70.1087C214.675 69.9614 215.002 69.3961 214.854 68.8464C214.707 68.2965 214.142 67.9695 213.592 68.1177L207.733 69.6879L202.218 66.5036L212.216 63.8246C212.766 63.6774 213.092 63.112 212.945 62.5623C212.797 62.0122 212.232 61.6852 211.682 61.8336L199.693 65.046L193.413 61.4202C193.641 60.8232 193.766 60.1757 193.766 59.4994C193.766 58.9489 193.684 58.4173 193.53 57.9166L200.019 54.1697L211.527 57.2534C211.617 57.2774 211.706 57.2888 211.795 57.2888C212.25 57.2888 212.666 56.9851 212.789 56.5249C212.937 55.975 212.611 55.4099 212.061 55.2627L202.544 52.7123L208.126 49.4893L213.814 51.0133C213.903 51.0372 213.993 51.0486 214.081 51.0486C214.536 51.0486 214.953 50.7447 215.076 50.2848C215.223 49.7349 214.897 49.1698 214.347 49.0226L210.65 48.0319L216.228 44.8114C216.721 44.527 216.89 43.8966 216.606 43.4036C216.321 42.9105 215.691 42.7409 215.198 43.0263L209.401 46.3729L210.438 42.5046C210.585 41.9546 210.259 41.3895 209.709 41.2423C209.158 41.0925 208.594 41.4209 208.447 41.971L206.877 47.8305L201.361 51.0151L204.04 41.0169C204.187 40.467 203.861 39.9019 203.311 39.7547C202.761 39.6058 202.196 39.9332 202.049 40.4834L198.836 52.4727L192.556 56.0985C191.81 55.1824 190.77 54.5151 189.581 54.2419V46.7498L198.006 38.3243C198.409 37.9221 198.409 37.2693 198.006 36.8669C197.604 36.4642 196.951 36.4642 196.549 36.8669L189.581 43.8348V37.3872L193.742 33.2261C194.144 32.8238 194.144 32.1711 193.742 31.7686C193.34 31.3662 192.687 31.3662 192.285 31.7686L189.581 34.4722V28.0307C189.581 27.4613 189.119 27 188.55 27C187.981 27 187.519 27.4616 187.519 28.0307V34.7292L184.685 31.8952C184.283 31.4925 183.63 31.4925 183.228 31.8952C182.825 32.2977 182.825 32.9504 183.228 33.3526L187.519 37.6442V44.0088L180.201 36.6907C179.798 36.288 179.145 36.288 178.743 36.6907C178.341 37.0932 178.341 37.7456 178.743 38.1481L187.519 46.9238ZM188.372 56.1669C186.535 56.1669 185.04 57.6619 185.04 59.4994C185.04 61.337 186.535 62.8319 188.372 62.8319C190.21 62.8319 191.705 61.337 191.705 59.4994C191.705 57.6619 190.21 56.1669 188.372 56.1669ZM184.473 47.5621L180.845 43.9914C180.518 43.6692 180.017 43.6025 179.616 43.8281C179.216 44.0534 179.014 44.5171 179.12 44.964L180.356 50.1716C180.421 50.4429 180.593 50.6768 180.832 50.8195L183.247 52.2551C183.41 52.3515 183.592 52.3997 183.774 52.3997C183.951 52.3997 184.128 52.3541 184.287 52.2629C184.61 52.0777 184.807 51.733 184.805 51.3611L184.781 48.2884C184.778 48.0151 184.668 47.7539 184.473 47.5621ZM179.54 58.5235C179.864 58.7068 180.063 59.0504 180.062 59.4225C180.062 59.7943 179.86 60.1369 179.536 60.3191L177.085 61.6931C176.93 61.78 176.756 61.8247 176.581 61.8247C176.482 61.8247 176.382 61.8104 176.286 61.7815L171.158 60.2483C170.717 60.1168 170.417 59.7095 170.422 59.2501C170.427 58.7909 170.735 58.3901 171.178 58.2676L176.084 56.9113C176.346 56.8386 176.629 56.8728 176.867 57.0082L179.54 58.5235ZM184.149 66.6571C183.827 66.47 183.43 66.4712 183.109 66.66L180.46 68.2171C180.225 68.3555 180.054 68.5823 179.985 68.8468L178.707 73.7737C178.592 74.2187 178.784 74.6859 179.18 74.9198C179.343 75.0162 179.524 75.0632 179.704 75.0632C179.961 75.0632 180.216 74.9673 180.412 74.7819L184.304 71.107C184.507 70.9156 184.623 70.6497 184.627 70.3705L184.662 67.5613C184.667 67.1892 184.471 66.8437 184.149 66.6571ZM195.916 68.1776C196.156 68.3201 196.328 68.5542 196.392 68.8256L197.628 74.0334C197.735 74.4805 197.532 74.9438 197.132 75.1693C196.973 75.2586 196.799 75.302 196.626 75.302C196.362 75.302 196.101 75.2007 195.903 75.006L192.275 71.4353C192.08 71.2437 191.97 70.9825 191.968 70.709L191.943 67.6363C191.941 67.2644 192.138 66.9197 192.461 66.7345C192.784 66.5492 193.181 66.5523 193.501 66.7423L195.916 68.1776ZM205.587 58.7513L200.458 57.2181C200.191 57.1381 199.903 57.1697 199.659 57.3065L197.208 58.6803C196.884 58.8622 196.683 59.205 196.682 59.5769C196.681 59.9487 196.88 60.2925 197.204 60.4758L199.877 61.9914C200.033 62.0802 200.209 62.1256 200.385 62.1256C200.478 62.1256 200.57 62.1132 200.66 62.0883L205.566 60.732C206.009 60.6095 206.317 60.209 206.322 59.7495C206.327 59.2898 206.027 58.8828 205.587 58.7513ZM193.111 52.4812C192.932 52.4812 192.753 52.4349 192.593 52.3418C192.272 52.155 192.075 51.8095 192.08 51.4372L192.116 48.6278C192.119 48.3488 192.236 48.0831 192.439 47.8915L196.331 44.2171C196.664 43.9015 197.167 43.845 197.563 44.0791C197.958 44.313 198.151 44.7803 198.036 45.2253L196.757 50.1519C196.689 50.4164 196.517 50.643 196.282 50.7816L193.633 52.339C193.472 52.434 193.291 52.4812 193.111 52.4812Z" fill="url(#paint2_linear_1549_18968)"/>
<defs>
<linearGradient id="paint0_linear_1549_18968" x1="53.3204" y1="58.9748" x2="55.9171" y2="130.369" gradientUnits="userSpaceOnUse">
<stop stop-color="#28A0FD"/>
<stop offset="1" stop-color="#186097" stop-opacity="0"/>
</linearGradient>
<linearGradient id="paint1_linear_1549_18968" x1="124" y1="17.5" x2="124.474" y2="57.4883" gradientUnits="userSpaceOnUse">
<stop stop-color="#28A0FD"/>
<stop offset="1" stop-color="#186097" stop-opacity="0"/>
</linearGradient>
<linearGradient id="paint2_linear_1549_18968" x1="186.847" y1="48.0741" x2="187.591" y2="95.834" gradientUnits="userSpaceOnUse">
<stop stop-color="#28A0FD"/>
<stop offset="1" stop-color="#186097" stop-opacity="0"/>
</linearGradient>
</defs>
</svg>
