<svg width="24" height="25" viewBox="0 0 24 25" fill="none" xmlns="http://www.w3.org/2000/svg">
<g clip-path="url(#clip0_1127_9896)">
<path fill-rule="evenodd" clip-rule="evenodd" d="M24 12.9722C24 19.5996 18.6274 24.9722 12 24.9722C5.37258 24.9722 0 19.5996 0 12.9722C0 6.34475 5.37258 0.972168 12 0.972168C18.6274 0.972168 24 6.34475 24 12.9722ZM12.43 9.8311C11.2628 10.3166 8.93014 11.3214 5.43189 12.8455C4.86383 13.0714 4.56626 13.2924 4.53917 13.5085C4.49339 13.8737 4.95071 14.0175 5.57347 14.2133C5.65818 14.2399 5.74595 14.2675 5.83594 14.2968C6.44864 14.4959 7.27283 14.7289 7.70129 14.7382C8.08994 14.7466 8.52373 14.5864 9.00264 14.2575C12.2712 12.0512 13.9584 10.936 14.0643 10.9119C14.139 10.895 14.2426 10.8736 14.3128 10.936C14.3829 10.9984 14.376 11.1165 14.3686 11.1482C14.3233 11.3413 12.5281 13.0103 11.5991 13.8739C11.3095 14.1432 11.1041 14.3342 11.0621 14.3778C10.968 14.4755 10.8721 14.5679 10.78 14.6568C10.2108 15.2055 9.78391 15.617 10.8036 16.289C11.2936 16.6119 11.6858 16.8789 12.077 17.1453C12.5042 17.4363 12.9303 17.7264 13.4816 18.0878C13.6221 18.1799 13.7562 18.2755 13.8869 18.3687C14.3841 18.7231 14.8307 19.0416 15.3826 18.9908C15.7032 18.9613 16.0345 18.6598 16.2027 17.7605C16.6002 15.6353 17.3816 11.0306 17.5622 9.13314C17.578 8.9669 17.5581 8.75414 17.5422 8.66074C17.5262 8.56735 17.4928 8.43428 17.3714 8.33577C17.2276 8.2191 17.0056 8.1945 16.9064 8.19625C16.455 8.2042 15.7626 8.44498 12.43 9.8311Z" fill="#F2F4FE"/>
</g>
<defs>
<clipPath id="clip0_1127_9896">
<rect width="24" height="24" fill="white" transform="translate(0 0.972168)"/>
</clipPath>
</defs>
</svg>
