<svg width="24" height="25" viewBox="0 0 24 25" fill="none" xmlns="http://www.w3.org/2000/svg">
<g clip-path="url(#clip0_1114_997)">
<path d="M17.072 0.972168H13.0273V17.32C13.0273 19.2678 11.4717 20.8678 9.53578 20.8678C7.59985 20.8678 6.0442 19.2678 6.0442 17.32C6.0442 15.407 7.56528 13.8417 9.43208 13.7722V9.66784C5.31823 9.73737 1.99951 13.1113 1.99951 17.32C1.99951 21.5635 5.38737 24.9722 9.57036 24.9722C13.7533 24.9722 17.1411 21.5287 17.1411 17.32V8.93737C18.6622 10.0504 20.529 10.7113 22.4995 10.7461V6.64173C19.4574 6.53739 17.072 4.03303 17.072 0.972168Z" fill="#F2F4FE"/>
</g>
<defs>
<clipPath id="clip0_1114_997">
<rect width="24" height="24" fill="white" transform="translate(0 0.972168)"/>
</clipPath>
</defs>
</svg>
