<svg width="24" height="25" viewBox="0 0 24 25" fill="none" xmlns="http://www.w3.org/2000/svg">
<path d="M23.7609 8.17246C23.7609 8.17246 23.5266 6.51777 22.8047 5.79121C21.8906 4.83496 20.8688 4.83027 20.4 4.77402C17.0438 4.53027 12.0047 4.53027 12.0047 4.53027H11.9953C11.9953 4.53027 6.95625 4.53027 3.6 4.77402C3.13125 4.83027 2.10938 4.83496 1.19531 5.79121C0.473438 6.51777 0.24375 8.17246 0.24375 8.17246C0.24375 8.17246 0 10.1178 0 12.0584V13.8771C0 15.8178 0.239062 17.7631 0.239062 17.7631C0.239062 17.7631 0.473437 19.4178 1.19062 20.1443C2.10469 21.1006 3.30469 21.0678 3.83906 21.1709C5.76094 21.3537 12 21.41 12 21.41C12 21.41 17.0438 21.4006 20.4 21.1615C20.8688 21.1053 21.8906 21.1006 22.8047 20.1443C23.5266 19.4178 23.7609 17.7631 23.7609 17.7631C23.7609 17.7631 24 15.8225 24 13.8771V12.0584C24 10.1178 23.7609 8.17246 23.7609 8.17246ZM9.52031 16.085V9.33965L16.0031 12.724L9.52031 16.085Z" fill="#F2F4FE"/>
</svg>
